<?xml version="1.0" encoding="UTF-8" standalone="no"?>
<!-- Created with Inkscape (http://www.inkscape.org/) -->

<svg
   width="1918"
   height="240"
   viewBox="0 0 1918 240"
   version="1.1"
   id="svg1"
   xml:space="preserve"
   inkscape:version="1.3.2 (091e20ef0f, 2023-11-25, custom)"
   sodipodi:docname="liturgica_polonae_new_logo.svg"
   xmlns:inkscape="http://www.inkscape.org/namespaces/inkscape"
   xmlns:sodipodi="http://sodipodi.sourceforge.net/DTD/sodipodi-0.dtd"
   xmlns:xlink="http://www.w3.org/1999/xlink"
   xmlns="http://www.w3.org/2000/svg"
   xmlns:svg="http://www.w3.org/2000/svg"><sodipodi:namedview
     id="namedview1"
     pagecolor="#505050"
     bordercolor="#ffffff"
     borderopacity="1"
     inkscape:showpageshadow="0"
     inkscape:pageopacity="0"
     inkscape:pagecheckerboard="1"
     inkscape:deskcolor="#d1d1d1"
     inkscape:document-units="px"
     showguides="true"
     inkscape:zoom="0.70710678"
     inkscape:cx="814.58701"
     inkscape:cy="739.63369"
     inkscape:window-width="2560"
     inkscape:window-height="1374"
     inkscape:window-x="0"
     inkscape:window-y="699"
     inkscape:window-maximized="1"
     inkscape:current-layer="layer1"
     showgrid="false" /><defs
     id="defs1"><linearGradient
       id="linearGradient597"><stop
         style="stop-color:#a90808;stop-opacity:1;"
         offset="0"
         id="stop596" /><stop
         style="stop-color:#3c0000;stop-opacity:1;"
         offset="1"
         id="stop597" /></linearGradient><linearGradient
       id="linearGradient595"><stop
         style="stop-color:#270202;stop-opacity:1;"
         offset="0"
         id="stop594" /><stop
         style="stop-color:#550000;stop-opacity:1;"
         offset="1"
         id="stop595" /></linearGradient><linearGradient
       id="linearGradient7"><stop
         style="stop-color:#a90808;stop-opacity:1;"
         offset="0"
         id="stop5" /><stop
         style="stop-color:#550000;stop-opacity:1;"
         offset="1"
         id="stop6" /></linearGradient><linearGradient
       id="linearGradient1"><stop
         style="stop-color:#f51919;stop-opacity:1;"
         offset="0"
         id="stop3" /><stop
         style="stop-color:#d70000;stop-opacity:1;"
         offset="1"
         id="stop4" /></linearGradient><linearGradient
       id="gradient_0"
       gradientUnits="userSpaceOnUse"
       x1="492.67029"
       y1="716.02338"
       x2="727.95654"
       y2="633.62958"
       gradientTransform="matrix(0.11839776,0,0,0.11839776,29.483543,44.919718)"><stop
         offset="0"
         stop-color="#03224A"
         id="stop7" /><stop
         offset="1"
         stop-color="#1C4971"
         id="stop8" /></linearGradient><linearGradient
       id="linearGradient15"
       gradientUnits="userSpaceOnUse"
       x1="491.96332"
       y1="804.96106"
       x2="162.27492"
       y2="598.06586"
       gradientTransform="matrix(0.11839776,0,0,0.11839776,29.483543,44.919718)"><stop
         offset="0"
         stop-color="#05244C"
         id="stop9-3" /><stop
         offset="1"
         stop-color="#1D476D"
         id="stop10-4" /></linearGradient><linearGradient
       id="linearGradient16"
       gradientUnits="userSpaceOnUse"
       x1="843.50372"
       y1="685.08618"
       x2="509.90506"
       y2="67.249397"
       gradientTransform="matrix(0.11839776,0,0,0.11839776,29.483543,44.919718)"><stop
         offset="0"
         stop-color="#072859"
         id="stop11-7" /><stop
         offset="1"
         stop-color="#356F72"
         id="stop12-2" /></linearGradient><linearGradient
       inkscape:collect="always"
       xlink:href="#linearGradient7"
       id="linearGradient4"
       x1="-276.46652"
       y1="500.7821"
       x2="-276.46652"
       y2="641.6853"
       gradientUnits="userSpaceOnUse"
       gradientTransform="matrix(1.0965727,0,0,1.0965727,568.55501,-522.86869)" /><linearGradient
       inkscape:collect="always"
       xlink:href="#linearGradient1"
       id="linearGradient3"
       gradientUnits="userSpaceOnUse"
       gradientTransform="matrix(0.23519885,0,0,0.23519885,111.65455,68.569597)"
       x1="-157.70502"
       y1="-209.0509"
       x2="-130.93323"
       y2="292.99088" /></defs><g
     inkscape:label="Layer 1"
     inkscape:groupmode="layer"
     id="layer1"><g
       id="g3"
       transform="matrix(1.3939972,0,0,1.3939972,19.861672,6.857635)"><g
         id="g6"
         transform="matrix(1.2151305,0,0,1.2151305,-30.160734,-20.15783)"><path
           style="fill:url(#linearGradient3);fill-opacity:1;stroke:#ffffff;stroke-width:2.48446;stroke-linecap:round;stroke-linejoin:round;stroke-dasharray:none;stroke-opacity:1"
           d="m 24.557192,149.20711 c -2.337581,-0.62691 -4.131985,-2.27343 -5.483611,-5.03167 -0.704027,-1.43668 -0.749165,-1.68467 -0.749165,-4.11598 0,-2.35909 0.05624,-2.69373 0.637434,-3.79567 0.543657,-1.0307 2.579796,-3.13644 3.037355,-3.14117 0.08076,-7.8e-4 0.19839,1.18918 0.26144,2.64447 0.0886,2.04487 0.248821,3.0062 0.705281,4.23159 1.301534,3.49404 3.590434,6.26109 6.405327,7.74347 l 1.636717,0.86194 -0.900749,0.16895 c -1.971496,0.36986 -4.891034,-0.85915 -6.81797,-2.87006 -1.323615,-1.38133 -2.179754,-2.95072 -2.995263,-5.49068 -0.628797,-1.95841 -0.642199,-1.97762 -0.656147,-0.94083 -0.03245,2.4107 1.134722,5.17443 2.95717,7.00236 1.15099,1.15443 3.698431,2.63506 4.549367,2.64421 0.194038,0 0.511558,0.10637 0.705596,0.23177 0.560007,0.36192 -1.791224,0.26004 -3.292782,-0.1427 z m 5.681563,-1.96984 c -3.717714,-2.04941 -5.886163,-4.86656 -6.966094,-9.05001 -0.441241,-1.70929 -0.481754,-5.05287 -0.06788,-5.60033 0.1617,-0.21388 2.516631,-1.43967 5.233171,-2.72397 2.716549,-1.2843 7.865529,-3.77063 11.442189,-5.52517 3.576651,-1.75455 8.815709,-4.26516 11.642345,-5.57913 2.826636,-1.31397 7.114399,-3.38273 9.528374,-4.59724 2.413976,-1.21452 4.530771,-2.20544 4.703983,-2.20205 0.173211,0.003 0.720798,0.18862 1.216864,0.4116 l 0.901929,0.40543 0.0749,1.99919 c 0.110401,2.94624 1.028781,5.26799 2.907317,7.34996 1.164038,1.29009 1.330494,1.07719 0.352781,-0.45123 -1.469146,-2.29664 -2.617676,-5.83215 -2.397336,-7.37969 0.07944,-0.55814 0.09865,-0.55184 1.120337,0.36815 2.798492,2.51993 4.623079,7.58784 3.304038,9.17719 -0.77355,0.93207 -3.455432,-0.0888 -4.773721,-1.8172 -0.896173,-1.17494 -1.743055,-3.15784 -2.123162,-4.97116 -0.38294,-1.82687 -0.623676,-2.24791 -0.617739,-1.08042 0.0066,1.25964 0.617177,3.8322 1.164591,4.90524 0.675198,1.32348 1.991671,2.73928 3.212251,3.45459 l 1.009894,0.59183 -2.048609,1.07778 c -1.126745,0.59278 -6.12344,3.51678 -11.103776,6.49778 -6.905636,4.1334 -26.312425,15.4633 -26.439986,15.43596 -0.01098,-0.004 -0.58545,-0.31604 -1.276685,-0.6971 z m 10.031079,-6.66918 c 7.412876,-4.43131 15.115557,-8.99581 24.447556,-14.48726 1.584651,-0.9325 2.881188,-1.80595 2.881188,-1.94102 0,-0.14323 -0.220546,-0.10469 -0.529196,0.0925 -0.909271,0.58085 -35.318424,19.90692 -35.70726,20.05516 -0.52316,0.19946 -2.464448,-1.57713 -3.537533,-3.23739 -0.485347,-0.75092 -1.173584,-2.12772 -1.529421,-3.05954 -1.137538,-2.97888 -1.434355,-2.63819 -0.441034,0.50623 0.60896,1.9277 1.926457,4.15557 3.095012,5.23364 0.554144,0.51123 2.609202,1.84648 2.853532,1.85404 0.03956,0 3.849775,-2.25614 8.467156,-5.01634 z m -7.317636,-8.7881 c 2.56219,-1.37164 10.53262,-5.54053 17.712067,-9.2642 15.078115,-7.82039 14.447403,-7.48312 14.289593,-7.64094 -0.06672,-0.0666 -7.198729,3.33848 -15.848982,7.56704 -8.650253,4.22857 -17.238067,8.41466 -19.084033,9.30242 l -3.356295,1.61414 0.388505,0.59293 c 0.264025,0.40297 0.52501,0.54961 0.814552,0.45771 0.234329,-0.0744 2.522395,-1.25747 5.084593,-2.6291 z m 52.756696,6.38031 c -5.127442,-0.60647 -12.07555,-2.2502 -15.953097,-3.77405 -2.408427,-0.9465 -7.331882,-3.32598 -7.329264,-3.5422 8.26e-4,-0.10589 1.242316,-0.89839 2.757847,-1.76112 l 2.755526,-1.56857 0.828929,0.35219 c 5.6446,2.3983 10.730465,3.60369 18.305088,4.33844 5.476385,0.53123 13.615017,-0.27737 19.286527,-1.91616 5.57774,-1.6117 9.6661,-3.46295 14.63184,-6.62546 1.68352,-1.07218 3.96318,-2.47237 5.06591,-3.11153 2.44434,-1.41678 5.35993,-4.07674 7.23369,-6.59945 0.76866,-1.03487 2.08834,-3.31042 2.93263,-5.05677 0.84429,-1.74635 2.24479,-4.44526 3.11223,-5.99757 2.5835,-4.623288 4.17615,-8.622558 5.52617,-13.876737 1.21121,-4.713969 1.58095,-7.635274 1.59261,-12.58314 0.0297,-12.605111 -3.78192,-24.013772 -11.40935,-34.149744 -6.12275,-8.136416 -13.84753,-14.126589 -23.73005,-18.401453 -10.00637,-4.328442 -21.324907,-5.303867 -32.663208,-2.814893 -5.829323,1.27965 -12.839069,4.082544 -17.875113,7.147481 -5.185035,3.155625 -11.766917,9.052086 -15.508811,13.893754 -5.883347,7.612529 -9.713353,17.226035 -10.846969,27.226436 -0.427499,3.77125 -0.17369,12.867459 0.457295,16.388776 2.048609,11.432593 6.322317,20.24319 14.362263,29.60896 1.19465,1.39165 2.135772,2.56502 2.091377,2.60749 -0.168826,0.16154 -4.271982,2.00498 -4.462725,2.00498 -0.110145,0 -1.204461,-1.26073 -2.431821,-2.80164 C 35.565365,106.00858 31.143896,93.777519 30.742195,79.260564 30.482877,69.889174 32.115911,61.709545 36.036681,52.741285 39.418229,45.006397 46.39538,35.929933 53.13385,30.499818 59.137607,25.661767 66.977371,21.601239 74.562508,19.401063 79.3239,18.019955 85.361292,17.168061 90.387896,17.168061 c 2.906886,0 9.044324,0.62039 11.869524,1.199795 6.51815,1.336795 14.92897,4.845962 20.29725,8.468436 14.16578,9.558971 23.95575,24.81455 26.94032,41.980764 0.46083,2.650551 0.52736,3.853558 0.52559,9.502709 -0.002,6.901136 -0.15809,8.452757 -1.41047,14.036719 -3.09318,13.791476 -11.70613,26.805156 -23.03502,34.804566 -9.06587,6.40149 -18.93651,10.09147 -29.483442,11.0219 -4.653187,0.41051 -6.759545,0.40591 -10.382754,-0.0226 z m 0.823189,-8.7241 c -4.725691,-0.39101 -10.562289,-1.65256 -14.309402,-3.09291 l -1.138256,-0.43753 1.318553,-0.64511 c 1.695993,-0.82978 2.128257,-1.59377 2.086488,-3.68764 l -0.03097,-1.55214 5.188933,-2.79903 c 2.853911,-1.53948 5.369097,-2.88739 5.589288,-2.99537 0.625979,-0.30695 2.752585,1.09903 2.937795,1.94228 0.161617,0.73582 0.31965,0.78383 3.602829,1.09462 1.185087,0.11219 1.927002,0.31678 2.394057,0.66019 3.322074,2.44261 4.321158,3.1115 5.649423,3.78236 3.385029,1.70965 6.772459,2.58399 11.113149,2.86845 2.19857,0.14408 2.3099,0.17527 1.72313,0.48271 -1.53654,0.80507 -6.12104,2.41052 -8.4851,2.97139 -5.283357,1.25348 -7.843417,1.56759 -12.430119,1.52511 -2.347953,-0.0217 -4.692355,-0.0746 -5.209801,-0.11738 z m 20.527197,-6.17524 c -6.18569,-1.34513 -10.701031,-3.88449 -15.069153,-8.47464 -1.111946,-1.16846 -2.522163,-2.83957 -3.133824,-3.71359 -1.448386,-2.06964 -1.618632,-2.23946 -1.183131,-1.18012 0.405046,0.98527 1.457544,2.60225 2.704426,4.15492 l 0.83191,1.03594 -1.280311,-0.16943 c -1.821192,-0.24101 -3.011391,-0.84234 -4.172919,-2.10835 -1.300029,-1.41695 -1.952798,-2.93073 -2.102796,-4.8764 -0.134201,-1.74079 0.13491,-2.80607 0.973328,-3.8528 l 0.563203,-0.70316 0.2749,1.02089 c 0.151186,0.5615 0.326478,0.96931 0.389528,0.90626 0.164887,-0.16488 -0.658813,-3.28978 -0.955109,-3.62345 -0.420976,-0.47407 -5.263866,-2.55006 -8.363197,-3.585042 -4.718467,-1.575657 -8.278908,-2.576179 -13.053537,-3.668191 -2.457826,-0.562121 -4.280207,-1.028632 -4.049727,-1.036675 0.774121,-0.027 8.490403,1.185377 11.340896,1.781909 1.552304,0.324853 4.409973,1.123335 6.35037,1.774403 2.944502,0.987986 4.336997,1.565756 7.735953,3.209776 0.117156,0.0567 0.134919,-0.19613 0.0403,-0.573198 -0.433281,-1.726325 -0.05442,-6.324588 0.805953,-9.781416 2.361001,-9.486253 10.525452,-17.402304 19.947827,-19.340917 5.34311,-1.09932 11.25407,-0.440101 16.52471,1.842911 7.41014,3.209749 13.77863,11.467953 15.38855,19.954791 0.45236,2.384652 0.45718,7.061969 0.01,9.612259 -1.79769,10.25008 -9.01499,18.2582 -18.96571,21.04384 -3.04776,0.85319 -8.48024,1.01754 -11.55234,0.34948 z m 9.5202,-4.00175 c 5.50432,-1.40776 9.95473,-4.25351 13.01164,-8.3201 1.41386,-1.88084 3.23951,-5.67569 3.86845,-8.04106 0.75685,-2.84635 0.88058,-7.350266 0.28109,-10.231148 -1.82711,-8.780236 -7.65166,-15.21734 -16.27993,-17.992016 -3.53655,-1.13729 -9.52246,-1.021629 -13.33419,0.257641 -6.941386,2.329637 -12.68457,8.622522 -14.682615,16.087979 -0.444569,1.661062 -0.534771,2.595883 -0.533301,5.527172 0.0017,3.104294 0.0787,3.810432 0.642257,5.879972 0.352261,1.2936 1.104869,3.30454 1.672466,4.46878 3.203637,6.57127 10.322613,11.60276 18.121023,12.80746 1.89321,0.29246 5.12866,0.0935 7.23311,-0.44468 z m -7.46831,-0.64359 c -6.76765,-1.13375 -12.030446,-4.47025 -15.576865,-9.87541 -2.782637,-4.24105 -3.67924,-7.25486 -3.662245,-12.310134 0.01338,-3.971259 0.43897,-5.966505 1.944616,-9.11616 2.337755,-4.89036 5.48006,-8.132083 10.003334,-10.319807 3.37097,-1.630408 5.25837,-2.044719 9.40796,-2.065182 3.85634,-0.01899 5.87091,0.377497 8.98455,1.76839 5.8683,2.621425 10.84209,8.681454 12.46448,15.186628 0.6174,2.47558 0.55745,7.579753 -0.1209,10.294375 -1.02826,4.11486 -3.89757,9.05885 -6.62535,11.41592 -4.69801,4.05953 -11.11875,5.9764 -16.81958,5.02138 z m 7.99677,-1.58669 c 2.12193,-0.58623 5.45534,-2.31696 7.16744,-3.72141 3.4018,-2.79049 6.01521,-6.96541 7.10504,-11.35027 0.72043,-2.898639 0.71234,-7.382761 -0.0182,-10.113546 -0.7609,-2.844101 -2.54532,-6.285107 -4.36039,-8.408362 -0.857,-1.002537 -1.67444,-1.822795 -1.81651,-1.822795 -0.16559,0 -0.21005,0.316587 -0.12385,0.881995 0.0739,0.485099 0.20725,2.012365 0.29625,3.393912 l 0.1618,2.511916 -0.79538,0.122846 c -0.43747,0.06755 -1.48335,0.188918 -2.32419,0.269673 -2.10337,0.202023 -7.2148,1.541188 -9.89264,2.591811 -3.43167,1.346374 -8.78599,4.136089 -11.92609,6.213733 -1.564905,1.035428 -2.921718,2.006278 -3.015149,2.157441 -0.199067,0.322106 -0.179388,0.310946 2.254795,-1.277817 5.017044,-3.274573 13.080194,-6.067079 21.440514,-7.425452 2.80685,-0.456056 6.44078,-0.835403 5.96015,-0.62219 -0.12936,0.05739 -2.39545,0.583501 -5.03577,1.169141 -7.40719,1.64296 -12.95197,3.52456 -18.31055,6.213626 -3.85496,1.934508 -9.554042,5.519198 -10.522316,6.618468 l -0.4704,0.53403 0.588002,-0.29853 c 0.3234,-0.1642 1.117191,-0.69033 1.76399,-1.16919 2.818699,-2.08685 4.756882,-3.12759 9.469794,-5.084976 5.08949,-2.113781 13.93252,-4.165247 20.16526,-4.678077 1.31113,-0.107882 0.88006,0.02816 -2.11679,0.668097 -7.85846,1.678048 -13.57154,3.38049 -18.31241,5.456954 -3.14508,1.377512 -9.416722,4.766122 -10.338405,5.585902 -0.697651,0.62052 -0.644148,0.60755 0.779753,-0.18901 6.151462,-3.44124 14.095682,-6.266426 20.487492,-7.285924 3.23822,-0.516496 9.63737,-1.246593 12.20515,-1.39252 l 2.23439,-0.126975 -2.70479,0.456039 c -1.48764,0.25082 -4.3453,0.723144 -6.35037,1.049607 -4.63198,0.754169 -9.96118,2.101393 -14.46473,3.656683 -5.13428,1.77314 -12.650333,5.17627 -12.270664,5.55594 0.06284,0.0628 0.463934,-0.0666 0.891368,-0.28768 1.977565,-1.02263 8.879886,-3.49631 11.849696,-4.24673 7.23927,-1.82924 12.17993,-2.5664 18.58071,-2.772285 3.13318,-0.100781 3.2911,-0.08891 1.41119,0.106065 -5.7727,0.59871 -13.53456,2.04225 -19.05111,3.5431 -5.17997,1.40927 -13.371626,4.43816 -13.002188,4.80759 0.06549,0.0655 1.82689,-0.46096 3.914254,-1.16984 6.580074,-2.23465 16.243834,-3.94827 23.787864,-4.21815 2.98101,-0.10664 3.15868,-0.0939 1.41119,0.10091 -4.30148,0.4796 -19.15122,3.41936 -23.16708,4.58633 -2.212898,0.64303 -3.418036,1.17883 -2.116792,0.94112 0.388084,-0.0709 3.298662,-0.61132 6.467972,-1.20094 4.17745,-0.77719 7.76778,-1.26283 13.05354,-1.76569 6.57472,-0.62549 11.40714,-0.87531 11.40714,-0.58973 0,0.0586 -0.11751,0.36445 -0.26115,0.67968 -0.31715,0.69608 1.49339,0.41852 -17.14357,2.6281 -8.34368,0.98921 -15.320606,1.8464 -15.504289,1.90487 -0.23816,0.0758 -0.06945,0.38039 0.588002,1.06182 2.929677,3.03633 7.256137,5.3175 11.543477,6.08643 1.74977,0.31383 6.80755,0.11237 8.42959,-0.33574 z m -7.17357,-0.27427 c -2.85483,-0.49988 -3.63209,-0.70102 -5.17438,-1.33912 -0.97019,-0.4014 -2.37079,-1.1212 -3.11244,-1.59957 l -1.34845,-0.86975 0.99565,-0.13931 c 0.54761,-0.0766 2.63617,-0.30547 4.64124,-0.50854 2.00507,-0.20308 7.39358,-0.78765 11.97447,-1.29906 4.58089,-0.51141 8.38228,-0.87645 8.44753,-0.8112 0.0652,0.0652 -0.3488,0.55313 -0.92013,1.08418 -2.64673,2.4602 -6.00757,4.31767 -9.03552,4.99377 -1.71875,0.38377 -5.45479,0.666 -6.46797,0.4886 z m 16.99759,-23.309955 c 0.22885,-0.05962 0.54636,-0.05574 0.7056,0.0087 0.15924,0.06441 -0.028,0.113217 -0.41607,0.108427 -0.38808,-0.005 -0.51837,-0.05747 -0.28953,-0.117147 z m -31.697516,4.475459 c 6.329656,-5.925322 10.422356,-8.722023 17.054126,-11.653758 3.50108,-1.547731 6.11587,-2.416315 8.75895,-2.909557 l 2.29318,-0.427945 v -1.214453 c 0,-1.583519 -0.51861,-2.235364 -2.62065,-3.293947 -5.34974,-2.694087 -10.45908,-3.125137 -15.95377,-1.345945 -3.80732,1.232819 -6.653357,3.193513 -9.073691,6.251034 -3.729969,4.711954 -5.253477,10.293257 -4.495303,16.468251 0.232396,1.892736 -0.201272,2.094006 4.037158,-1.87368 z m 5.947796,-2.630038 c 2.66763,-1.790357 4.99354,-3.04354 8.07631,-4.351448 5.20978,-2.210326 8.06899,-3.04501 12.08297,-3.527376 1.57516,-0.18929 2.34422,-0.377919 2.32846,-0.571114 -0.013,-0.158653 -0.0394,-0.658897 -0.0588,-1.111658 -0.0328,-0.765477 -0.0889,-0.822952 -0.79967,-0.819715 -2.14844,0.0097 -8.41378,2.212921 -13.20844,4.644643 -4.17295,2.116399 -11.615982,7.111822 -10.596426,7.111822 0.06961,0 1.048656,-0.618821 2.175596,-1.375154 z M 86.314394,106.4055 c -0.185441,-0.50614 -0.344622,-0.80375 -0.353731,-0.66136 -0.02304,0.35982 0.487659,1.78484 0.599547,1.67295 0.05021,-0.0502 -0.06037,-0.50545 -0.245816,-1.01159 z m -12.7642,12.01863 c -0.215137,-0.45114 -0.34572,-0.86385 -0.290194,-0.91714 0.05549,-0.0533 2.482336,-1.36863 5.392922,-2.923 l 5.291976,-2.8261 0.528024,0.62685 c 0.290425,0.34477 0.528495,0.67978 0.529056,0.74446 8.26e-4,0.12658 -10.696904,6.11517 -10.924123,6.11517 -0.07506,0 -0.312532,-0.36911 -0.527661,-0.82024 z m -1.73227,-2.84379 c -0.820151,-1.06307 -0.948315,-1.35301 -0.675396,-1.52791 0.759702,-0.48689 10.945916,-5.83208 11.249414,-5.9031 0.36407,-0.0852 1.311897,2.61736 1.015922,2.89674 -0.157529,0.14871 -10.416917,5.84631 -10.527145,5.84631 -0.02783,0 -0.506066,-0.59042 -1.062795,-1.31204 z M 52.374957,114.83439 C 45.530199,107.18907 40.895327,98.86553 38.68762,90.25395 35.974655,79.671523 36.282629,69.723172 39.64501,59.327453 l 1.160107,-3.586775 1.81319,-0.0025 c 1.418583,-0.0017 2.077859,-0.125538 3.029378,-0.568554 2.094548,-0.975227 3.605381,-2.976155 3.605381,-4.774919 0,-0.344011 0.408935,-0.670945 1.528793,-1.222248 L 52.310652,48.41984 V 47.27122 46.1226 l 1.411192,-0.514548 1.411191,-0.514547 V 43.767889 42.44225 l 1.352395,-0.465643 1.352394,-0.465635 0.06961,-1.321105 0.06962,-1.321122 1.223983,-0.207672 1.223991,-0.20768 0.06912,-1.991703 c 0.04261,-1.228467 0.177836,-2.06079 0.352798,-2.171984 0.15601,-0.09916 0.892234,-0.181907 1.636048,-0.183897 l 1.352395,-0.0033 V 31.98573 c 0,-1.164236 0.02642,-2.116225 0.0588,-2.11554 0.03237,7.76e-4 1.328876,0.215335 2.881188,0.476998 5.322936,0.897256 10.456416,2.452334 14.092079,4.26891 3.588426,1.792967 7.601552,4.363877 9.769456,6.258533 l 1.047253,0.915257 1.814719,-1.432901 c 3.455811,-2.728696 8.565876,-5.282397 13.613096,-6.802982 2.31194,-0.696528 8.19606,-1.804874 11.09964,-2.090758 l 0.8685,-0.08551 0.1437,1.538785 c 0.079,0.846337 0.16446,1.750471 0.18989,2.009194 0.0395,0.402594 0.18877,0.459153 1.03527,0.392403 1.89704,-0.149593 1.95093,-0.07911 1.95093,2.551694 v 2.324402 l 1.3524,0.07052 1.35238,0.07052 0.0306,1.763989 0.0306,1.763989 h 1.26297 1.26297 l 0.0695,1.587599 0.0695,1.58759 0.98885,0.0033 c 0.54387,0.0017 1.11515,0.0839 1.26953,0.182039 0.15436,0.09815 0.31312,0.810943 0.3528,1.583998 l 0.0721,1.405543 1.05839,0.117602 1.0584,0.117593 0.0708,1.225412 c 0.0683,1.18294 0.12349,1.271697 1.59182,2.560827 l 1.52105,1.3354 1.89496,0.14397 1.89495,0.143969 1.27675,3.847448 c 2.22454,6.703671 2.81874,10.775875 2.61311,17.90845 -0.0727,2.522502 -0.30339,5.583268 -0.51261,6.801693 -0.78183,4.553236 -2.60005,10.699352 -3.76293,12.71981 -0.33777,0.58687 -0.33844,0.586251 -0.34676,-0.322615 -0.0145,-1.585956 -0.71573,-5.745679 -1.32582,-7.864885 -0.32358,-1.124012 -1.12296,-3.10204 -1.77641,-4.39564 -0.98148,-1.942998 -1.1841,-2.556484 -1.16526,-3.527978 0.0126,-0.646799 0.33685,-5.991692 0.72066,-11.87755 l 0.69786,-10.701546 -1.51096,-1.517901 c -0.83102,-0.834849 -1.58913,-1.439731 -1.68468,-1.344177 -0.0956,0.09555 -0.35282,5.223872 -0.5717,11.396257 -0.21888,6.172385 -0.40921,11.252667 -0.42297,11.289506 -0.0138,0.03683 -0.3414,-0.293348 -0.72808,-0.733755 l -0.70306,-0.800745 0.22574,-8.791794 c 0.12415,-4.835491 0.27757,-10.352927 0.34092,-12.260976 l 0.11518,-3.469182 h -0.69626 -0.69624 l -0.007,12.05394 -0.007,12.05394 -0.71505,-0.786416 c -0.67482,-0.742162 -0.7079,-0.867915 -0.58755,-2.234389 0.0701,-0.796384 0.1937,-6.55473 0.27458,-12.796317 l 0.14707,-11.348345 h -0.67229 -0.67229 l 0.0605,5.821173 c 0.15075,14.519891 0.17942,19.345109 0.11495,19.345109 -0.0382,0 -0.33028,-0.17094 -0.64913,-0.379851 l -0.57972,-0.379851 V 59.71178 45.862107 h -0.58799 -0.588 l 0.0183,4.292371 c 0.0101,2.36081 0.0984,8.420127 0.19636,13.46514 0.098,5.045012 0.15636,9.203174 0.12975,9.24036 -0.0266,0.03716 -0.30992,-0.05153 -0.62959,-0.197217 l -0.58122,-0.264818 -0.15477,-6.014913 c -0.0851,-3.308192 -0.15477,-10.072559 -0.15477,-15.031903 v -9.017015 h -0.7407 -0.7407 l 0.15048,4.292387 c 0.34879,9.948326 0.68625,24.889739 0.56491,25.01109 -0.15565,0.155647 -1.57735,-0.54544 -1.60536,-0.791652 -0.0107,-0.0937 -0.2488,-7.632043 -0.5292,-16.751878 l -0.50982,-16.581523 -0.52919,-0.07515 c -0.65689,-0.09329 -0.6516,-1.499023 -0.0675,17.944207 0.24861,8.275671 0.4257,15.072987 0.39353,15.105152 -0.0595,0.05954 -1.77454,-0.381882 -1.82207,-0.469012 -0.0143,-0.02626 -0.25564,-8.165278 -0.53625,-18.086708 -0.28062,-9.921429 -0.55995,-18.087401 -0.62075,-18.146602 -0.27855,-0.271193 -8.76439,1.295753 -10.71087,1.977813 -5.29888,1.856776 -12.714415,6.236426 -14.130619,8.225297 0.0033,2.019871 -0.128098,26.04167 -0.148627,32.300459 -0.953046,0.877981 -2.039046,2.186038 -2.799038,3.413266 -0.04459,-7.97356 0.155911,-31.746141 0.120724,-35.688604 -0.69325,-3.304072 -10.91811,-8.960638 -20.187489,-10.958138 -1.55232,-0.334523 -3.050683,-0.65855 -3.329712,-0.720072 -0.483464,-0.106594 -0.514176,-0.0096 -0.653083,2.06273 -0.312607,4.663865 -2.265852,47.378458 -2.201077,48.134213 0.06854,0.799753 0.07325,0.80266 2.185486,1.361784 3.858133,1.021274 10.141967,3.78236 13.914506,6.113987 0.796938,0.492539 2.252227,1.558382 3.233986,2.368532 l 1.785022,1.472994 v 1.760992 c 0,0.968538 -0.09747,1.760983 -0.216582,1.760983 -0.119113,0 -1.256891,-0.601372 -2.52839,-1.336382 -2.933857,-1.69596 -6.825914,-3.540556 -9.822863,-4.655409 -2.702493,-1.00532 -8.547283,-2.538184 -11.363663,-2.980251 L 58.6616,88.094056 v -0.888865 c 0,-0.488881 -0.08241,-0.888874 -0.183146,-0.888874 -0.100739,0 -1.661871,2.973562 -3.469181,6.607928 -3.011689,6.056228 -3.535461,7.003279 -3.740432,6.763154 -0.07936,-0.09301 -0.699848,-9.829246 -1.923699,-30.186747 -0.458789,-7.631621 -0.868344,-13.909849 -0.910121,-13.951618 -0.04179,-0.04178 -0.567184,0.299022 -1.167589,0.757324 -0.600406,0.458294 -1.258873,0.926852 -1.463258,1.041234 -0.335803,0.187918 -0.24243,2.369878 0.968902,22.641129 0.737289,12.338249 1.429871,22.487339 1.539074,22.553539 0.109204,0.0662 7.611612,1.16905 16.672031,2.45076 9.723371,1.37549 16.417149,2.42154 16.335989,2.55287 -0.262844,0.42528 -2.062895,1.08223 -2.656983,0.96969 -0.328726,-0.0623 -6.895133,-0.9996 -14.592009,-2.08295 -12.492357,-1.75833 -14.050615,-1.93358 -14.518636,-1.63286 -0.636799,0.40916 -1.143451,1.34427 -1.363304,2.51617 l -0.163937,0.87387 2.907357,0.008 c 3.556964,0.01 7.199126,0.32342 9.717094,0.83704 1.040953,0.21232 4.506658,0.8246 7.701592,1.36058 l 5.808967,0.97453 -1.967606,1.11919 -1.967607,1.11918 -0.783774,-0.73525 c -0.875834,-0.82163 -2.883401,-1.855 -3.6106,-1.85851 -0.261167,-8.3e-4 -1.266635,0.40743 -2.234389,0.90822 -5.249893,2.71668 -9.262442,4.73425 -9.415487,4.73425 -0.09536,0 -0.907752,-0.82025 -1.805313,-1.82279 z M 82.770851,94.551647 C 82.449178,94.031163 77.166294,90.723243 74.419348,89.322283 71.572786,87.870521 65.65947,85.706448 62.799811,85.069928 l -1.388391,-0.30903 0.04575,-1.985774 c 0.0251,-1.092177 0.517611,-11.862107 1.094382,-23.933191 0.576779,-12.071076 1.048682,-22.15229 1.048682,-22.402688 0,-0.325778 -0.163153,-0.455272 -0.573583,-0.455272 -0.498775,0 -0.589588,0.130386 -0.696248,0.999597 -0.09399,0.765978 -2.059163,48.820958 -2.029451,49.626955 0.0033,0.09702 0.269244,0.176399 0.590372,0.176399 0.321137,0 2.42718,0.468649 4.680092,1.041448 5.805128,1.475917 13.695662,4.671421 16.112049,6.525034 0.59398,0.455643 1.329363,0.589703 1.08742,0.198241 z M 51.851781,72.523258 C 51.457363,61.795684 51.134657,52.678491 51.134657,52.262833 c 0,-0.649317 -0.08279,-0.755738 -0.587994,-0.755738 -0.417342,0 -0.587994,0.127512 -0.587994,0.439342 0,0.241637 0.262415,5.295469 0.583147,11.230742 0.320732,5.935274 0.800612,15.130826 1.066395,20.434562 0.459467,9.168642 0.726794,12.021026 0.890368,9.500076 0.03873,-0.596128 -0.25238,-9.860984 -0.646798,-20.588559 z m 1.644702,-0.952385 c -0.15269,-11.229124 -0.325224,-20.65472 -0.383402,-20.945772 -0.120137,-0.600934 -0.971932,-0.738859 -1.182015,-0.191396 -0.07127,0.185805 -0.01965,2.540728 0.114753,5.233179 0.134407,2.692452 0.467724,11.669093 0.740692,19.948092 0.483464,14.663112 0.592998,16.767066 0.859029,16.501035 0.07069,-0.07069 0.0033,-9.316023 -0.149057,-20.545138 z m 1.855224,-3.305864 0.01652,-20.991496 h -0.705596 -0.705596 l -0.0041,2.05799 c -0.0074,4.215398 0.723334,37.404064 0.861342,39.101816 0.377687,4.646053 0.521822,-0.766383 0.537099,-20.16831 z m 1.993421,-0.0588 c 0.198662,-9.637273 0.390793,-19.056989 0.426954,-20.9327 l 0.06573,-3.410385 -0.646791,-0.0744 -0.646798,-0.0744 v 21.230557 c 0,13.167506 0.08349,21.145709 0.219835,21.007132 0.125613,-0.127677 0.374665,-7.733808 0.581057,-17.745762 z m 1.457931,9.937326 c 0.460722,-10.712809 1.504358,-36.347592 1.504358,-36.951408 0,-0.625386 -0.08777,-0.739379 -0.569281,-0.739379 -0.528098,0 -0.578373,0.10633 -0.695058,1.469988 -0.0692,0.808498 -0.238962,8.190803 -0.377291,16.405125 -0.13833,8.214313 -0.308552,16.840238 -0.378266,19.168702 -0.09452,3.156906 -0.0602,4.128945 0.134961,3.822161 0.143945,-0.226285 0.315207,-1.655116 0.380577,-3.175189 z m 19.849863,27.670335 c -3.299439,-0.69335 -20.437526,-3.83575 -22.413556,-4.1097 -0.620431,-0.086 -1.085892,-0.19854 -1.034371,-0.25007 0.281738,-0.28174 18.986176,2.26079 23.683131,3.21928 3.363033,0.68629 3.64558,0.78673 3.64558,1.29595 0,0.61689 -0.253735,0.60673 -3.880784,-0.15546 z m 1.175995,-1.65593 c -5.717146,-1.34657 -24.270983,-5.375877 -24.754406,-5.375877 -0.269648,0 -0.425212,-0.06507 -0.345696,-0.144573 0.316058,-0.316058 13.161138,1.344418 18.610082,2.40573 3.179301,0.61923 9.758029,2.35685 10.086193,2.66402 0.102185,0.0956 -0.0033,0.39198 -0.235195,0.65853 l -0.420993,0.48462 z m 0.235205,-2.46695 C 74.604046,99.751456 65.07587,97.437237 58.45046,96.441439 c -0.956655,-0.143788 -1.909206,-0.36853 -2.116796,-0.499419 -0.286957,-0.180957 -0.208307,-0.207961 0.328165,-0.112688 0.388084,0.06895 2.557788,0.337487 4.821576,0.596796 2.263795,0.259326 5.068539,0.638475 6.232775,0.842571 6.218581,1.090138 17.051916,4.254701 17.051916,4.981091 0,0.28761 -0.519626,0.76855 -0.811439,0.75103 -0.135827,-0.008 -1.887471,-0.59758 -3.892535,-1.30983 z m 1.293589,-3.856242 c -4.36865,-2.351116 -9.195032,-4.121671 -15.758326,-5.780924 -3.233986,-0.817565 -5.644675,-1.490369 -5.35709,-1.495109 1.085777,-0.01784 8.736342,1.407484 10.766668,2.005924 1.164236,0.343161 2.475085,0.727157 2.912998,0.853323 1.727456,0.497709 5.218876,1.911741 7.847353,3.178186 2.558581,1.232769 2.763577,1.380687 2.763577,1.993933 0,0.379868 -0.125389,0.656981 -0.293992,0.649714 -0.1617,-0.0066 -1.458237,-0.639243 -2.881188,-1.405047 z M 58.018699,93.209509 c 0.228845,-0.05962 0.546357,-0.05574 0.705596,0.0087 0.159238,0.06441 -0.02799,0.113225 -0.416071,0.108428 -0.388076,-0.005 -0.518362,-0.05748 -0.289525,-0.11714 z m 0.818722,-2.815165 c 0.1617,-0.06524 0.426302,-0.06524 0.587993,0 0.161708,0.06524 0.0294,0.118626 -0.293992,0.118626 -0.3234,0 -0.455701,-0.05335 -0.294001,-0.118626 z"
           id="path6"
           sodipodi:nodetypes="sssssssscssssscssssssssscscssssssssssscsssssssssssssssssssscssssscscssssssssssssssssssssssssssssscssssssscsscssssssssssssssssscsssscsssssssssssssscsssssssssssssssssssssssssssssssssscssssssssssscsssssssssscsssssssssssssssssssssssssssscssssssssssssssscsssssssssssssssssssssscsssssssssscssccssscccccccccccccssccscssscssscsssscccccccccssscccsscccssssssssscssssscsscccccssscccssscccccsssscsscccsssscsssssssccccssssssscssssscsssssssssssssssscssscccscssccssscssssscsssssssssssscsssssccccccsccsscccssssssssssssssssssssssccssssssssssssssssssssssssssss" /><ellipse
           style="fill:#ffffff;fill-opacity:1;stroke:none;stroke-width:0.154562;stroke-linecap:round;stroke-linejoin:round;paint-order:fill markers stroke"
           id="path4"
           cx="90.599518"
           cy="78.199371"
           rx="58.640953"
           ry="59.892265" /><path
           style="fill:#ffffff;fill-opacity:1;stroke:none;stroke-width:0.155109;stroke-linecap:round;stroke-linejoin:round;paint-order:fill markers stroke"
           d="m 21.740986,133.72038 6.525637,-3.71669 19.237351,-8.97144 -0.89169,-1.67471 2.271905,-2.791 14.344162,9.51385 -2.073837,3.96857 -28.442012,16.43724 -2.060699,2.09056 -3.275218,0.92394 -6.053553,-2.42203 -2.085563,-4.93104 -0.106908,-4.58202 z"
           id="path5" /><path
           style="fill:#d20000;fill-opacity:1;stroke:#ffffff;stroke-width:0.235199;stroke-opacity:1"
           d="m 24.557192,149.20711 c -2.337581,-0.62691 -4.131985,-2.27343 -5.483611,-5.03167 -0.704027,-1.43668 -0.749165,-1.68467 -0.749165,-4.11598 0,-2.35909 0.05624,-2.69373 0.637434,-3.79567 0.543657,-1.0307 2.579796,-3.13644 3.037355,-3.14117 0.08076,-7.8e-4 0.19839,1.18918 0.26144,2.64447 0.0886,2.04487 0.248821,3.0062 0.705281,4.23159 1.301534,3.49404 3.590434,6.26109 6.405327,7.74347 l 1.636717,0.86194 -0.900749,0.16895 c -1.971496,0.36986 -4.891034,-0.85915 -6.81797,-2.87006 -1.323615,-1.38133 -2.179754,-2.95072 -2.995263,-5.49068 -0.628797,-1.95841 -0.642199,-1.97762 -0.656147,-0.94083 -0.03245,2.4107 1.134722,5.17443 2.95717,7.00236 1.15099,1.15443 3.698431,2.63506 4.549367,2.64421 0.194038,0 0.511558,0.10637 0.705596,0.23177 0.560007,0.36192 -1.791224,0.26004 -3.292782,-0.1427 z m 5.681563,-1.96984 c -3.717714,-2.04941 -5.886163,-4.86656 -6.966094,-9.05001 -0.441241,-1.70929 -0.481754,-5.05287 -0.06788,-5.60033 0.1617,-0.21388 2.516631,-1.43967 5.233171,-2.72397 2.716549,-1.2843 7.865529,-3.77063 11.442189,-5.52517 3.576651,-1.75455 8.815709,-4.26516 11.642345,-5.57913 2.826636,-1.31397 7.114399,-3.38273 9.528374,-4.59724 2.413976,-1.21452 4.530771,-2.20544 4.703983,-2.20205 0.173211,0.003 0.720798,0.18862 1.216864,0.4116 l 0.901929,0.40543 0.0749,1.99919 c 0.110401,2.94624 1.028781,5.26799 2.907317,7.34996 1.164038,1.29009 1.330494,1.07719 0.352781,-0.45123 -1.469146,-2.29664 -2.617676,-5.83215 -2.397336,-7.37969 0.07944,-0.55814 0.09865,-0.55184 1.120337,0.36815 2.798492,2.51993 4.623079,7.58784 3.304038,9.17719 -0.77355,0.93207 -3.455432,-0.0888 -4.773721,-1.8172 -0.896173,-1.17494 -1.743055,-3.15784 -2.123162,-4.97116 -0.38294,-1.82687 -0.623676,-2.24791 -0.617739,-1.08042 0.0066,1.25964 0.617177,3.8322 1.164591,4.90524 0.675198,1.32348 1.991671,2.73928 3.212251,3.45459 l 1.009894,0.59183 -2.048609,1.07778 c -1.126745,0.59278 -6.12344,3.51678 -11.103776,6.49778 -6.905636,4.1334 -26.312425,15.4633 -26.439986,15.43596 -0.01098,-0.004 -0.58545,-0.31604 -1.276685,-0.6971 z m 10.031079,-6.66918 c 7.412876,-4.43131 15.115557,-8.99581 24.447556,-14.48726 1.584651,-0.9325 2.881188,-1.80595 2.881188,-1.94102 0,-0.14323 -0.220546,-0.10469 -0.529196,0.0925 -0.909271,0.58085 -35.318424,19.90692 -35.70726,20.05516 -0.52316,0.19946 -2.464448,-1.57713 -3.537533,-3.23739 -0.485347,-0.75092 -1.173584,-2.12772 -1.529421,-3.05954 -1.137538,-2.97888 -1.434355,-2.63819 -0.441034,0.50623 0.60896,1.9277 1.926457,4.15557 3.095012,5.23364 0.554144,0.51123 2.609202,1.84648 2.853532,1.85404 0.03956,0 3.849775,-2.25614 8.467156,-5.01634 z m -7.317636,-8.7881 c 2.56219,-1.37164 10.53262,-5.54053 17.712067,-9.2642 15.078115,-7.82039 14.447403,-7.48312 14.289593,-7.64094 -0.06672,-0.0666 -7.198729,3.33848 -15.848982,7.56704 -8.650253,4.22857 -17.238067,8.41466 -19.084033,9.30242 l -3.356295,1.61414 0.388505,0.59293 c 0.264025,0.40297 0.52501,0.54961 0.814552,0.45771 0.234329,-0.0744 2.522395,-1.25747 5.084593,-2.6291 z m 52.756696,6.38031 c -5.127442,-0.60647 -12.07555,-2.2502 -15.953097,-3.77405 -2.408427,-0.9465 -7.331882,-3.32598 -7.329264,-3.5422 8.26e-4,-0.10589 1.242316,-0.89839 2.757847,-1.76112 l 2.755526,-1.56857 0.828929,0.35219 c 5.6446,2.3983 10.730465,3.60369 18.305088,4.33844 5.476385,0.53123 13.615017,-0.27737 19.286527,-1.91616 5.57774,-1.6117 9.6661,-3.46295 14.63184,-6.62546 1.68352,-1.07218 3.96318,-2.47237 5.06591,-3.11153 2.44434,-1.41678 5.35993,-4.07674 7.23369,-6.59945 0.76866,-1.03487 2.08834,-3.31042 2.93263,-5.05677 0.84429,-1.74635 2.24479,-4.44526 3.11223,-5.99757 2.5835,-4.623288 4.17615,-8.622558 5.52617,-13.876737 1.21121,-4.713969 1.58095,-7.635274 1.59261,-12.58314 0.0297,-12.605111 -3.78192,-24.013772 -11.40935,-34.149744 -6.12275,-8.136416 -13.84753,-14.126589 -23.73005,-18.401453 -10.00637,-4.328442 -21.324907,-5.303867 -32.663208,-2.814893 -5.829323,1.27965 -12.839069,4.082544 -17.875113,7.147481 -5.185035,3.155625 -11.766917,9.052086 -15.508811,13.893754 -5.883347,7.612529 -9.713353,17.226035 -10.846969,27.226436 -0.427499,3.77125 -0.17369,12.867459 0.457295,16.388776 2.048609,11.432593 6.322317,20.24319 14.362263,29.60896 1.19465,1.39165 2.135772,2.56502 2.091377,2.60749 -0.168826,0.16154 -4.271982,2.00498 -4.462725,2.00498 -0.110145,0 -1.204461,-1.26073 -2.431821,-2.80164 C 35.565365,106.00858 31.143896,93.777519 30.742195,79.260564 30.482877,69.889174 32.115911,61.709545 36.036681,52.741285 39.418229,45.006397 46.39538,35.929933 53.13385,30.499818 59.137607,25.661767 66.977371,21.601239 74.562508,19.401063 79.3239,18.019955 85.361292,17.168061 90.387896,17.168061 c 2.906886,0 9.044324,0.62039 11.869524,1.199795 6.51815,1.336795 14.92897,4.845962 20.29725,8.468436 14.16578,9.558971 23.95575,24.81455 26.94032,41.980764 0.46083,2.650551 0.52736,3.853558 0.52559,9.502709 -0.002,6.901136 -0.15809,8.452757 -1.41047,14.036719 -3.09318,13.791476 -11.70613,26.805156 -23.03502,34.804566 -9.06587,6.40149 -18.93651,10.09147 -29.483442,11.0219 -4.653187,0.41051 -6.759545,0.40591 -10.382754,-0.0226 z m 0.823189,-8.7241 c -4.725691,-0.39101 -10.562289,-1.65256 -14.309402,-3.09291 l -1.138256,-0.43753 1.318553,-0.64511 c 1.695993,-0.82978 2.128257,-1.59377 2.086488,-3.68764 l -0.03097,-1.55214 5.188933,-2.79903 c 2.853911,-1.53948 5.369097,-2.88739 5.589288,-2.99537 0.625979,-0.30695 2.752585,1.09903 2.937795,1.94228 0.161617,0.73582 0.31965,0.78383 3.602829,1.09462 1.185087,0.11219 1.927002,0.31678 2.394057,0.66019 3.322074,2.44261 4.321158,3.1115 5.649423,3.78236 3.385029,1.70965 6.772459,2.58399 11.113149,2.86845 2.19857,0.14408 2.3099,0.17527 1.72313,0.48271 -1.53654,0.80507 -6.12104,2.41052 -8.4851,2.97139 -5.283357,1.25348 -7.843417,1.56759 -12.430119,1.52511 -2.347953,-0.0217 -4.692355,-0.0746 -5.209801,-0.11738 z m 20.527197,-6.17524 c -6.18569,-1.34513 -10.701031,-3.88449 -15.069153,-8.47464 -1.111946,-1.16846 -2.522163,-2.83957 -3.133824,-3.71359 -1.448386,-2.06964 -1.618632,-2.23946 -1.183131,-1.18012 0.405046,0.98527 1.457544,2.60225 2.704426,4.15492 l 0.83191,1.03594 -1.280311,-0.16943 c -1.821192,-0.24101 -3.011391,-0.84234 -4.172919,-2.10835 -1.300029,-1.41695 -1.952798,-2.93073 -2.102796,-4.8764 -0.134201,-1.74079 0.13491,-2.80607 0.973328,-3.8528 l 0.563203,-0.70316 0.2749,1.02089 c 0.151186,0.5615 0.326478,0.96931 0.389528,0.90626 0.164887,-0.16488 -0.658813,-3.28978 -0.955109,-3.62345 -0.420976,-0.47407 -5.263866,-2.55006 -8.363197,-3.585042 -4.718467,-1.575657 -8.278908,-2.576179 -13.053537,-3.668191 -2.457826,-0.562121 -4.280207,-1.028632 -4.049727,-1.036675 0.774121,-0.027 8.490403,1.185377 11.340896,1.781909 1.552304,0.324853 4.409973,1.123335 6.35037,1.774403 2.944502,0.987986 4.336997,1.565756 7.735953,3.209776 0.117156,0.0567 0.134919,-0.19613 0.0403,-0.573198 -0.433281,-1.726325 -0.05442,-6.324588 0.805953,-9.781416 2.361001,-9.486253 10.525452,-17.402304 19.947827,-19.340917 5.34311,-1.09932 11.25407,-0.440101 16.52471,1.842911 7.41014,3.209749 13.77863,11.467953 15.38855,19.954791 0.45236,2.384652 0.45718,7.061969 0.01,9.612259 -1.79769,10.25008 -9.01499,18.2582 -18.96571,21.04384 -3.04776,0.85319 -8.48024,1.01754 -11.55234,0.34948 z m 9.5202,-4.00175 c 5.50432,-1.40776 9.95473,-4.25351 13.01164,-8.3201 1.41386,-1.88084 3.23951,-5.67569 3.86845,-8.04106 0.75685,-2.84635 0.88058,-7.350266 0.28109,-10.231148 -1.82711,-8.780236 -7.65166,-15.21734 -16.27993,-17.992016 -3.53655,-1.13729 -9.52246,-1.021629 -13.33419,0.257641 -6.941386,2.329637 -12.68457,8.622522 -14.682615,16.087979 -0.444569,1.661062 -0.534771,2.595883 -0.533301,5.527172 0.0017,3.104294 0.0787,3.810432 0.642257,5.879972 0.352261,1.2936 1.104869,3.30454 1.672466,4.46878 3.203637,6.57127 10.322613,11.60276 18.121023,12.80746 1.89321,0.29246 5.12866,0.0935 7.23311,-0.44468 z m -7.46831,-0.64359 c -6.76765,-1.13375 -12.030446,-4.47025 -15.576865,-9.87541 -2.782637,-4.24105 -3.67924,-7.25486 -3.662245,-12.310134 0.01338,-3.971259 0.43897,-5.966505 1.944616,-9.11616 2.337755,-4.89036 5.48006,-8.132083 10.003334,-10.319807 3.37097,-1.630408 5.25837,-2.044719 9.40796,-2.065182 3.85634,-0.01899 5.87091,0.377497 8.98455,1.76839 5.8683,2.621425 10.84209,8.681454 12.46448,15.186628 0.6174,2.47558 0.55745,7.579753 -0.1209,10.294375 -1.02826,4.11486 -3.89757,9.05885 -6.62535,11.41592 -4.69801,4.05953 -11.11875,5.9764 -16.81958,5.02138 z m 7.99677,-1.58669 c 2.12193,-0.58623 5.45534,-2.31696 7.16744,-3.72141 3.4018,-2.79049 6.01521,-6.96541 7.10504,-11.35027 0.72043,-2.898639 0.71234,-7.382761 -0.0182,-10.113546 -0.7609,-2.844101 -2.54532,-6.285107 -4.36039,-8.408362 -0.857,-1.002537 -1.67444,-1.822795 -1.81651,-1.822795 -0.16559,0 -0.21005,0.316587 -0.12385,0.881995 0.0739,0.485099 0.20725,2.012365 0.29625,3.393912 l 0.1618,2.511916 -0.79538,0.122846 c -0.43747,0.06755 -1.48335,0.188918 -2.32419,0.269673 -2.10337,0.202023 -7.2148,1.541188 -9.89264,2.591811 -3.43167,1.346374 -8.78599,4.136089 -11.92609,6.213733 -1.564905,1.035428 -2.921718,2.006278 -3.015149,2.157441 -0.199067,0.322106 -0.179388,0.310946 2.254795,-1.277817 5.017044,-3.274573 13.080194,-6.067079 21.440514,-7.425452 2.80685,-0.456056 6.44078,-0.835403 5.96015,-0.62219 -0.12936,0.05739 -2.39545,0.583501 -5.03577,1.169141 -7.40719,1.64296 -12.95197,3.52456 -18.31055,6.213626 -3.85496,1.934508 -9.554042,5.519198 -10.522316,6.618468 l -0.4704,0.53403 0.588002,-0.29853 c 0.3234,-0.1642 1.117191,-0.69033 1.76399,-1.16919 2.818699,-2.08685 4.756882,-3.12759 9.469794,-5.084976 5.08949,-2.113781 13.93252,-4.165247 20.16526,-4.678077 1.31113,-0.107882 0.88006,0.02816 -2.11679,0.668097 -7.85846,1.678048 -13.57154,3.38049 -18.31241,5.456954 -3.14508,1.377512 -9.416722,4.766122 -10.338405,5.585902 -0.697651,0.62052 -0.644148,0.60755 0.779753,-0.18901 6.151462,-3.44124 14.095682,-6.266426 20.487492,-7.285924 3.23822,-0.516496 9.63737,-1.246593 12.20515,-1.39252 l 2.23439,-0.126975 -2.70479,0.456039 c -1.48764,0.25082 -4.3453,0.723144 -6.35037,1.049607 -4.63198,0.754169 -9.96118,2.101393 -14.46473,3.656683 -5.13428,1.77314 -12.650333,5.17627 -12.270664,5.55594 0.06284,0.0628 0.463934,-0.0666 0.891368,-0.28768 1.977565,-1.02263 8.879886,-3.49631 11.849696,-4.24673 7.23927,-1.82924 12.17993,-2.5664 18.58071,-2.772285 3.13318,-0.100781 3.2911,-0.08891 1.41119,0.106065 -5.7727,0.59871 -13.53456,2.04225 -19.05111,3.5431 -5.17997,1.40927 -13.371626,4.43816 -13.002188,4.80759 0.06549,0.0655 1.82689,-0.46096 3.914254,-1.16984 6.580074,-2.23465 16.243834,-3.94827 23.787864,-4.21815 2.98101,-0.10664 3.15868,-0.0939 1.41119,0.10091 -4.30148,0.4796 -19.15122,3.41936 -23.16708,4.58633 -2.212898,0.64303 -3.418036,1.17883 -2.116792,0.94112 0.388084,-0.0709 3.298662,-0.61132 6.467972,-1.20094 4.17745,-0.77719 7.76778,-1.26283 13.05354,-1.76569 6.57472,-0.62549 11.40714,-0.87531 11.40714,-0.58973 0,0.0586 -0.11751,0.36445 -0.26115,0.67968 -0.31715,0.69608 1.49339,0.41852 -17.14357,2.6281 -8.34368,0.98921 -15.320606,1.8464 -15.504289,1.90487 -0.23816,0.0758 -0.06945,0.38039 0.588002,1.06182 2.929677,3.03633 7.256137,5.3175 11.543477,6.08643 1.74977,0.31383 6.80755,0.11237 8.42959,-0.33574 z m -7.17357,-0.27427 c -2.85483,-0.49988 -3.63209,-0.70102 -5.17438,-1.33912 -0.97019,-0.4014 -2.37079,-1.1212 -3.11244,-1.59957 l -1.34845,-0.86975 0.99565,-0.13931 c 0.54761,-0.0766 2.63617,-0.30547 4.64124,-0.50854 2.00507,-0.20308 7.39358,-0.78765 11.97447,-1.29906 4.58089,-0.51141 8.38228,-0.87645 8.44753,-0.8112 0.0652,0.0652 -0.3488,0.55313 -0.92013,1.08418 -2.64673,2.4602 -6.00757,4.31767 -9.03552,4.99377 -1.71875,0.38377 -5.45479,0.666 -6.46797,0.4886 z m 16.99759,-23.309955 c 0.22885,-0.05962 0.54636,-0.05574 0.7056,0.0087 0.15924,0.06441 -0.028,0.113217 -0.41607,0.108427 -0.38808,-0.005 -0.51837,-0.05747 -0.28953,-0.117147 z m -31.697516,4.475459 c 6.329656,-5.925322 10.422356,-8.722023 17.054126,-11.653758 3.50108,-1.547731 6.11587,-2.416315 8.75895,-2.909557 l 2.29318,-0.427945 v -1.214453 c 0,-1.583519 -0.51861,-2.235364 -2.62065,-3.293947 -5.34974,-2.694087 -10.45908,-3.125137 -15.95377,-1.345945 -3.80732,1.232819 -6.653357,3.193513 -9.073691,6.251034 -3.729969,4.711954 -5.253477,10.293257 -4.495303,16.468251 0.232396,1.892736 -0.201272,2.094006 4.037158,-1.87368 z m 5.947796,-2.630038 c 2.66763,-1.790357 4.99354,-3.04354 8.07631,-4.351448 5.20978,-2.210326 8.06899,-3.04501 12.08297,-3.527376 1.57516,-0.18929 2.34422,-0.377919 2.32846,-0.571114 -0.013,-0.158653 -0.0394,-0.658897 -0.0588,-1.111658 -0.0328,-0.765477 -0.0889,-0.822952 -0.79967,-0.819715 -2.14844,0.0097 -8.41378,2.212921 -13.20844,4.644643 -4.17295,2.116399 -11.615982,7.111822 -10.596426,7.111822 0.06961,0 1.048656,-0.618821 2.175596,-1.375154 z M 86.314394,106.4055 c -0.185441,-0.50614 -0.344622,-0.80375 -0.353731,-0.66136 -0.02304,0.35982 0.487659,1.78484 0.599547,1.67295 0.05021,-0.0502 -0.06037,-0.50545 -0.245816,-1.01159 z m -12.7642,12.01863 c -0.215137,-0.45114 -0.34572,-0.86385 -0.290194,-0.91714 0.05549,-0.0533 2.482336,-1.36863 5.392922,-2.923 l 5.291976,-2.8261 0.528024,0.62685 c 0.290425,0.34477 0.528495,0.67978 0.529056,0.74446 8.26e-4,0.12658 -10.696904,6.11517 -10.924123,6.11517 -0.07506,0 -0.312532,-0.36911 -0.527661,-0.82024 z m -1.73227,-2.84379 c -0.820151,-1.06307 -0.948315,-1.35301 -0.675396,-1.52791 0.759702,-0.48689 10.945916,-5.83208 11.249414,-5.9031 0.36407,-0.0852 1.311897,2.61736 1.015922,2.89674 -0.157529,0.14871 -10.416917,5.84631 -10.527145,5.84631 -0.02783,0 -0.506066,-0.59042 -1.062795,-1.31204 z M 52.374957,114.83439 C 45.530199,107.18907 40.895327,98.86553 38.68762,90.25395 35.974655,79.671523 36.282629,69.723172 39.64501,59.327453 l 1.160107,-3.586775 1.81319,-0.0025 c 1.418583,-0.0017 2.077859,-0.125538 3.029378,-0.568554 2.094548,-0.975227 3.605381,-2.976155 3.605381,-4.774919 0,-0.344011 0.408935,-0.670945 1.528793,-1.222248 L 52.310652,48.41984 V 47.27122 46.1226 l 1.411192,-0.514548 1.411191,-0.514547 V 43.767889 42.44225 l 1.352395,-0.465643 1.352394,-0.465635 0.06961,-1.321105 0.06962,-1.321122 1.223983,-0.207672 1.223991,-0.20768 0.06912,-1.991703 c 0.04261,-1.228467 0.177836,-2.06079 0.352798,-2.171984 0.15601,-0.09916 0.892234,-0.181907 1.636048,-0.183897 l 1.352395,-0.0033 V 31.98573 c 0,-1.164236 0.02642,-2.116225 0.0588,-2.11554 0.03237,7.76e-4 1.328876,0.215335 2.881188,0.476998 5.322936,0.897256 10.456416,2.452334 14.092079,4.26891 3.588426,1.792967 7.601552,4.363877 9.769456,6.258533 l 1.047253,0.915257 1.814719,-1.432901 c 3.455811,-2.728696 8.565876,-5.282397 13.613096,-6.802982 2.31194,-0.696528 8.19606,-1.804874 11.09964,-2.090758 l 0.8685,-0.08551 0.1437,1.538785 c 0.079,0.846337 0.16446,1.750471 0.18989,2.009194 0.0395,0.402594 0.18877,0.459153 1.03527,0.392403 1.89704,-0.149593 1.95093,-0.07911 1.95093,2.551694 v 2.324402 l 1.3524,0.07052 1.35238,0.07052 0.0306,1.763989 0.0306,1.763989 h 1.26297 1.26297 l 0.0695,1.587599 0.0695,1.58759 0.98885,0.0033 c 0.54387,0.0017 1.11515,0.0839 1.26953,0.182039 0.15436,0.09815 0.31312,0.810943 0.3528,1.583998 l 0.0721,1.405543 1.05839,0.117602 1.0584,0.117593 0.0708,1.225412 c 0.0683,1.18294 0.12349,1.271697 1.59182,2.560827 l 1.52105,1.3354 1.89496,0.14397 1.89495,0.143969 1.27675,3.847448 c 2.22454,6.703671 2.81874,10.775875 2.61311,17.90845 -0.0727,2.522502 -0.30339,5.583268 -0.51261,6.801693 -0.78183,4.553236 -2.60005,10.699352 -3.76293,12.71981 -0.33777,0.58687 -0.33844,0.586251 -0.34676,-0.322615 -0.0145,-1.585956 -0.71573,-5.745679 -1.32582,-7.864885 -0.32358,-1.124012 -1.12296,-3.10204 -1.77641,-4.39564 -0.98148,-1.942998 -1.1841,-2.556484 -1.16526,-3.527978 0.0126,-0.646799 0.33685,-5.991692 0.72066,-11.87755 l 0.69786,-10.701546 -1.51096,-1.517901 c -0.83102,-0.834849 -1.58913,-1.439731 -1.68468,-1.344177 -0.0956,0.09555 -0.35282,5.223872 -0.5717,11.396257 -0.21888,6.172385 -0.40921,11.252667 -0.42297,11.289506 -0.0138,0.03683 -0.3414,-0.293348 -0.72808,-0.733755 l -0.70306,-0.800745 0.22574,-8.791794 c 0.12415,-4.835491 0.27757,-10.352927 0.34092,-12.260976 l 0.11518,-3.469182 h -0.69626 -0.69624 l -0.007,12.05394 -0.007,12.05394 -0.71505,-0.786416 c -0.67482,-0.742162 -0.7079,-0.867915 -0.58755,-2.234389 0.0701,-0.796384 0.1937,-6.55473 0.27458,-12.796317 l 0.14707,-11.348345 h -0.67229 -0.67229 l 0.0605,5.821173 c 0.15075,14.519891 0.17942,19.345109 0.11495,19.345109 -0.0382,0 -0.33028,-0.17094 -0.64913,-0.379851 l -0.57972,-0.379851 V 59.71178 45.862107 h -0.58799 -0.588 l 0.0183,4.292371 c 0.0101,2.36081 0.0984,8.420127 0.19636,13.46514 0.098,5.045012 0.15636,9.203174 0.12975,9.24036 -0.0266,0.03716 -0.30992,-0.05153 -0.62959,-0.197217 l -0.58122,-0.264818 -0.15477,-6.014913 c -0.0851,-3.308192 -0.15477,-10.072559 -0.15477,-15.031903 v -9.017015 h -0.7407 -0.7407 l 0.15048,4.292387 c 0.34879,9.948326 0.68625,24.889739 0.56491,25.01109 -0.15565,0.155647 -1.57735,-0.54544 -1.60536,-0.791652 -0.0107,-0.0937 -0.2488,-7.632043 -0.5292,-16.751878 l -0.50982,-16.581523 -0.52919,-0.07515 c -0.65689,-0.09329 -0.6516,-1.499023 -0.0675,17.944207 0.24861,8.275671 0.4257,15.072987 0.39353,15.105152 -0.0595,0.05954 -1.77454,-0.381882 -1.82207,-0.469012 -0.0143,-0.02626 -0.25564,-8.165278 -0.53625,-18.086708 -0.28062,-9.921429 -0.55995,-18.087401 -0.62075,-18.146602 -0.27855,-0.271193 -8.76439,1.295753 -10.71087,1.977813 -5.29888,1.856776 -12.714415,6.236426 -14.130619,8.225297 0.0033,2.019871 -0.128098,26.04167 -0.148627,32.300459 -0.953046,0.877981 -2.039046,2.186038 -2.799038,3.413266 -0.04459,-7.97356 0.155911,-31.746141 0.120724,-35.688604 -0.69325,-3.304072 -10.91811,-8.960638 -20.187489,-10.958138 -1.55232,-0.334523 -3.050683,-0.65855 -3.329712,-0.720072 -0.483464,-0.106594 -0.514176,-0.0096 -0.653083,2.06273 -0.312607,4.663865 -2.265852,47.378458 -2.201077,48.134213 0.06854,0.799753 0.07325,0.80266 2.185486,1.361784 3.858133,1.021274 10.141967,3.78236 13.914506,6.113987 0.796938,0.492539 2.252227,1.558382 3.233986,2.368532 l 1.785022,1.472994 v 1.760992 c 0,0.968538 -0.09747,1.760983 -0.216582,1.760983 -0.119113,0 -1.256891,-0.601372 -2.52839,-1.336382 -2.933857,-1.69596 -6.825914,-3.540556 -9.822863,-4.655409 -2.702493,-1.00532 -8.547283,-2.538184 -11.363663,-2.980251 L 58.6616,88.094056 v -0.888865 c 0,-0.488881 -0.08241,-0.888874 -0.183146,-0.888874 -0.100739,0 -1.661871,2.973562 -3.469181,6.607928 -3.011689,6.056228 -3.535461,7.003279 -3.740432,6.763154 -0.07936,-0.09301 -0.699848,-9.829246 -1.923699,-30.186747 -0.458789,-7.631621 -0.868344,-13.909849 -0.910121,-13.951618 -0.04179,-0.04178 -0.567184,0.299022 -1.167589,0.757324 -0.600406,0.458294 -1.258873,0.926852 -1.463258,1.041234 -0.335803,0.187918 -0.24243,2.369878 0.968902,22.641129 0.737289,12.338249 1.429871,22.487339 1.539074,22.553539 0.109204,0.0662 7.611612,1.16905 16.672031,2.45076 9.723371,1.37549 16.417149,2.42154 16.335989,2.55287 -0.262844,0.42528 -2.062895,1.08223 -2.656983,0.96969 -0.328726,-0.0623 -6.895133,-0.9996 -14.592009,-2.08295 -12.492357,-1.75833 -14.050615,-1.93358 -14.518636,-1.63286 -0.636799,0.40916 -1.143451,1.34427 -1.363304,2.51617 l -0.163937,0.87387 2.907357,0.008 c 3.556964,0.01 7.199126,0.32342 9.717094,0.83704 1.040953,0.21232 4.506658,0.8246 7.701592,1.36058 l 5.808967,0.97453 -1.967606,1.11919 -1.967607,1.11918 -0.783774,-0.73525 c -0.875834,-0.82163 -2.883401,-1.855 -3.6106,-1.85851 -0.261167,-8.3e-4 -1.266635,0.40743 -2.234389,0.90822 -5.249893,2.71668 -9.262442,4.73425 -9.415487,4.73425 -0.09536,0 -0.907752,-0.82025 -1.805313,-1.82279 z M 82.770851,94.551647 C 82.449178,94.031163 77.166294,90.723243 74.419348,89.322283 71.572786,87.870521 65.65947,85.706448 62.799811,85.069928 l -1.388391,-0.30903 0.04575,-1.985774 c 0.0251,-1.092177 0.517611,-11.862107 1.094382,-23.933191 0.576779,-12.071076 1.048682,-22.15229 1.048682,-22.402688 0,-0.325778 -0.163153,-0.455272 -0.573583,-0.455272 -0.498775,0 -0.589588,0.130386 -0.696248,0.999597 -0.09399,0.765978 -2.059163,48.820958 -2.029451,49.626955 0.0033,0.09702 0.269244,0.176399 0.590372,0.176399 0.321137,0 2.42718,0.468649 4.680092,1.041448 5.805128,1.475917 13.695662,4.671421 16.112049,6.525034 0.59398,0.455643 1.329363,0.589703 1.08742,0.198241 z M 51.851781,72.523258 C 51.457363,61.795684 51.134657,52.678491 51.134657,52.262833 c 0,-0.649317 -0.08279,-0.755738 -0.587994,-0.755738 -0.417342,0 -0.587994,0.127512 -0.587994,0.439342 0,0.241637 0.262415,5.295469 0.583147,11.230742 0.320732,5.935274 0.800612,15.130826 1.066395,20.434562 0.459467,9.168642 0.726794,12.021026 0.890368,9.500076 0.03873,-0.596128 -0.25238,-9.860984 -0.646798,-20.588559 z m 1.644702,-0.952385 c -0.15269,-11.229124 -0.325224,-20.65472 -0.383402,-20.945772 -0.120137,-0.600934 -0.971932,-0.738859 -1.182015,-0.191396 -0.07127,0.185805 -0.01965,2.540728 0.114753,5.233179 0.134407,2.692452 0.467724,11.669093 0.740692,19.948092 0.483464,14.663112 0.592998,16.767066 0.859029,16.501035 0.07069,-0.07069 0.0033,-9.316023 -0.149057,-20.545138 z m 1.855224,-3.305864 0.01652,-20.991496 h -0.705596 -0.705596 l -0.0041,2.05799 c -0.0074,4.215398 0.723334,37.404064 0.861342,39.101816 0.377687,4.646053 0.521822,-0.766383 0.537099,-20.16831 z m 1.993421,-0.0588 c 0.198662,-9.637273 0.390793,-19.056989 0.426954,-20.9327 l 0.06573,-3.410385 -0.646791,-0.0744 -0.646798,-0.0744 v 21.230557 c 0,13.167506 0.08349,21.145709 0.219835,21.007132 0.125613,-0.127677 0.374665,-7.733808 0.581057,-17.745762 z m 1.457931,9.937326 c 0.460722,-10.712809 1.504358,-36.347592 1.504358,-36.951408 0,-0.625386 -0.08777,-0.739379 -0.569281,-0.739379 -0.528098,0 -0.578373,0.10633 -0.695058,1.469988 -0.0692,0.808498 -0.238962,8.190803 -0.377291,16.405125 -0.13833,8.214313 -0.308552,16.840238 -0.378266,19.168702 -0.09452,3.156906 -0.0602,4.128945 0.134961,3.822161 0.143945,-0.226285 0.315207,-1.655116 0.380577,-3.175189 z m 19.849863,27.670335 c -3.299439,-0.69335 -20.437526,-3.83575 -22.413556,-4.1097 -0.620431,-0.086 -1.085892,-0.19854 -1.034371,-0.25007 0.281738,-0.28174 18.986176,2.26079 23.683131,3.21928 3.363033,0.68629 3.64558,0.78673 3.64558,1.29595 0,0.61689 -0.253735,0.60673 -3.880784,-0.15546 z m 1.175995,-1.65593 c -5.717146,-1.34657 -24.270983,-5.375877 -24.754406,-5.375877 -0.269648,0 -0.425212,-0.06507 -0.345696,-0.144573 0.316058,-0.316058 13.161138,1.344418 18.610082,2.40573 3.179301,0.61923 9.758029,2.35685 10.086193,2.66402 0.102185,0.0956 -0.0033,0.39198 -0.235195,0.65853 l -0.420993,0.48462 z m 0.235205,-2.46695 C 74.604046,99.751456 65.07587,97.437237 58.45046,96.441439 c -0.956655,-0.143788 -1.909206,-0.36853 -2.116796,-0.499419 -0.286957,-0.180957 -0.208307,-0.207961 0.328165,-0.112688 0.388084,0.06895 2.557788,0.337487 4.821576,0.596796 2.263795,0.259326 5.068539,0.638475 6.232775,0.842571 6.218581,1.090138 17.051916,4.254701 17.051916,4.981091 0,0.28761 -0.519626,0.76855 -0.811439,0.75103 -0.135827,-0.008 -1.887471,-0.59758 -3.892535,-1.30983 z m 1.293589,-3.856242 c -4.36865,-2.351116 -9.195032,-4.121671 -15.758326,-5.780924 -3.233986,-0.817565 -5.644675,-1.490369 -5.35709,-1.495109 1.085777,-0.01784 8.736342,1.407484 10.766668,2.005924 1.164236,0.343161 2.475085,0.727157 2.912998,0.853323 1.727456,0.497709 5.218876,1.911741 7.847353,3.178186 2.558581,1.232769 2.763577,1.380687 2.763577,1.993933 0,0.379868 -0.125389,0.656981 -0.293992,0.649714 -0.1617,-0.0066 -1.458237,-0.639243 -2.881188,-1.405047 z M 58.018699,93.209509 c 0.228845,-0.05962 0.546357,-0.05574 0.705596,0.0087 0.159238,0.06441 -0.02799,0.113225 -0.416071,0.108428 -0.388076,-0.005 -0.518362,-0.05748 -0.289525,-0.11714 z m 0.818722,-2.815165 c 0.1617,-0.06524 0.426302,-0.06524 0.587993,0 0.161708,0.06524 0.0294,0.118626 -0.293992,0.118626 -0.3234,0 -0.455701,-0.05335 -0.294001,-0.118626 z"
           id="path1"
           sodipodi:nodetypes="sssssssscssssscssssssssscscssssssssssscsssssssssssssssssssscssssscscssssssssssssssssssssssssssssscssssssscsscssssssssssssssssscsssscsssssssssssssscsssssssssssssssssssssssssssssssssscssssssssssscsssssssssscsssssssssssssssssssssssssssscssssssssssssssscsssssssssssssssssssssscsssssssssscssccssscccccccccccccssccscssscssscsssscccccccccssscccsscccssssssssscssssscsscccccssscccssscccccsssscsscccsssscsssssssccccssssssscssssscsssssssssssssssscssscccscssccssscssssscsssssssssssscsssssccccccsccsscccssssssssssssssssssssssccssssssssssssssssssssssssssss" /></g><g
         id="text2-3"
         style="font-weight:bold;font-size:83.4422px;line-height:0.9;font-family:'Noto Sans Osage';-inkscape-font-specification:'Noto Sans Osage Bold';text-align:center;text-anchor:middle;fill:url(#linearGradient4);stroke:#ffffff;stroke-width:6.82136;stroke-linecap:round;stroke-linejoin:round;paint-order:stroke fill markers"
         aria-label="Liturgica &#10;Poloniae"
         transform="translate(40.846031,4.5384478)"><path
           style="font-weight:600;font-family:Labrada;-inkscape-font-specification:'Labrada Semi-Bold';text-align:start;text-anchor:start;fill:#d20000;fill-opacity:1;stroke-width:11.8319"
           d="m 171.10442,122.26456 q -0.43419,-1.7368 -0.72367,-3.32888 -0.14466,-1.7368 -0.14466,-3.32888 l 11.28924,-2.171 q 0.57893,-8.1051 0.86839,-16.644395 0.28948,-8.684031 0.28948,-16.644392 0,-7.381426 -0.14466,-14.762852 0,-7.526159 -0.28948,-14.618118 -0.14466,-7.236692 -0.57893,-13.604982 l -11.86818,-4.052548 q 0,-1.447339 0.14466,-2.749942 0.14466,-1.302605 0.57894,-2.749943 10.27611,-0.14473 20.40747,-0.434202 10.27611,-0.289467 20.55222,-0.72367 0.28946,1.736808 0.57892,3.32888 0.28948,1.592072 0.28948,3.328877 l -10.56557,2.460476 q -0.43421,5.355152 -0.72367,11.723441 -0.28948,6.223557 -0.43421,13.315514 0,7.091958 0,14.907586 0,4.052549 0,8.684031 0,4.631482 0,9.552433 0.14466,4.776218 0.28948,9.552436 0.28946,4.77622 0.57892,9.11823 2.60521,0 5.4999,0 3.0394,-0.14473 6.07882,-0.28947 3.18414,-0.28946 6.07881,-0.4342 2.89469,-0.28947 5.21042,-0.57893 2.31575,-0.43421 4.05255,-0.72367 l 4.63148,-20.986411 q 2.46048,0 4.77623,0.289469 2.31573,0.14473 4.63148,0.723669 l 0.28946,1.736805 -1.15787,28.078368 -0.28946,1.7368 q -7.81563,-0.4342 -16.2102,-0.72367 -8.24982,-0.14473 -16.49966,-0.14473 -4.63148,0 -9.40769,0 -4.63148,0.14473 -9.4077,0.28947 -4.63148,0.28947 -9.40771,0.4342 -4.63148,0.14473 -9.26296,0.4342 z m 76.8536,-0.57893 q -0.4342,-1.44734 -0.57893,-2.74995 -0.14467,-1.3026 -0.14467,-2.74994 l 9.4077,-3.76308 q 0.28946,-2.89468 0.43421,-6.36829 0.14466,-3.47361 0.28946,-6.947222 0.28946,-3.618346 0.28946,-6.36829 0,-4.486749 -0.28946,-8.973499 -0.14466,-4.631483 -0.57894,-9.4077 -0.43421,-4.92095 -1.15788,-9.841901 l -8.39455,-2.026274 q 0,-1.447338 0.14467,-2.749943 0.28946,-1.447339 0.72366,-2.894677 l 23.88108,-3.184144 3.18415,2.460475 -1.15788,5.065684 q -0.43419,4.776218 -0.57893,9.4077 -0.14466,4.631484 -0.14466,9.552434 0,5.065684 0.14466,10.710305 0.14466,5.64462 0.4342,11.289242 0.43421,5.64462 0.8684,10.99977 l 9.69717,2.89468 q 0,1.15787 -0.14466,2.46047 0,1.30261 -0.28947,2.60521 -3.0394,0 -7.81562,0 -4.77623,0.14473 -10.13138,0.14473 -5.21042,0.14473 -10.13136,0.14473 -4.77621,0.14473 -7.96036,0.28947 z m 8.68403,-80.761489 q -0.43421,-2.171008 -0.8684,-4.631482 -0.28947,-2.60521 -0.4342,-5.065685 -0.14467,-2.60521 -0.14467,-4.486749 0.72367,-0.434202 1.88155,-1.013138 1.15785,-0.723669 2.31573,-1.15787 1.15787,-0.578935 1.88154,-0.723669 1.30261,-0.14473 3.18415,-0.14473 2.02627,-0.14473 4.342,-0.14473 2.46048,0 4.48676,0.289469 0.28947,2.605208 0.28947,5.499885 0,2.894677 -0.14466,5.355153 -0.14466,2.460475 -0.72366,3.907813 0,0.14473 -0.72367,1.157872 -0.72367,0.868403 -1.59207,1.736805 -0.72366,0.868403 -0.86841,0.868403 -2.46046,0 -6.36828,-0.4342 -3.76308,-0.434203 -6.51302,-1.013138 z m 50.0778,81.919359 q -1.73681,-2.02628 -3.61835,-4.63149 -1.7368,-2.60521 -3.32888,-5.78935 -1.59206,-3.32888 -2.89467,-6.65776 0.28946,-4.92095 0.43419,-9.841898 0.14466,-4.920951 0.28948,-9.986636 0.14466,-5.065684 0.14466,-9.986633 0.14466,-4.920952 0.14466,-9.841903 -0.8684,-0.723669 -2.31573,-1.302605 -1.30261,-0.723669 -2.74994,-1.302605 -1.30261,-0.578934 -2.74996,-0.868402 l -1.44733,-1.881539 0.72366,-4.776218 9.11824,-2.460474 5.93409,-13.315515 h 10.7103 l -0.28946,15.197053 15.92072,-0.4342 2.17101,1.447338 -1.3026,7.52616 q -1.15787,0 -3.32888,0 -2.02629,-0.14473 -4.6315,-0.14473 -2.60519,-0.14473 -5.06567,-0.14473 -2.46048,-0.14473 -4.05254,-0.14473 -0.14467,3.473612 -0.28948,7.381427 0,3.76308 -0.14466,7.236692 0,3.328878 0,5.934088 0,2.460474 0,3.473612 0,8.394562 0.14466,14.907588 0.28948,6.51302 1.44733,10.85504 3.03942,-0.14473 5.78936,-0.43421 2.74994,-0.28946 5.21042,-0.72367 2.60521,-0.57893 5.06569,-1.44733 l 2.31573,3.47361 q -2.31573,2.02627 -5.49988,4.19728 -3.03941,2.02627 -5.93408,3.47361 -1.44734,0.14473 -3.47361,0.28947 -2.02627,0.28947 -4.19729,0.4342 -2.17101,0.14473 -4.34201,0.14473 -2.02627,0.14473 -3.90781,0.14473 z m 55.14362,-0.14473 q -2.46048,-1.01314 -5.35515,-3.18415 -2.74994,-2.31574 -4.92094,-5.21042 -2.17102,-2.89467 -2.60521,-5.64462 -0.14484,-3.76307 -0.43421,-9.118228 -0.14466,-5.355152 -0.43421,-11.433974 -0.14466,-6.223555 -0.43419,-12.447111 -0.14466,-6.223554 -0.4342,-11.578707 l -9.11824,-2.605209 q 0,-1.447338 0.14466,-2.749943 0.14466,-1.302605 0.57894,-2.749943 l 21.13114,-1.447339 5.35517,3.184144 -0.28948,4.342015 q -0.28946,5.789354 -0.43421,11.433975 -0.14466,5.64462 -0.14466,10.855038 0,5.210418 0,9.841902 0.14466,4.486749 0.43421,8.39456 0.28946,3.76308 0.72366,6.80249 2.46048,1.01314 4.92095,1.59208 2.46048,0.4342 4.19729,0.4342 1.88154,-1.01314 3.90781,-3.32888 2.17101,-2.31574 4.48676,-5.35515 2.46046,-3.184148 5.2104,-6.513026 0,-5.64462 -0.14466,-10.999773 -0.14466,-5.355152 -0.28946,-10.710303 0,-5.499887 -0.28948,-10.999774 l -8.97349,-2.605208 q 0,-1.447339 0.14466,-2.894677 0.14467,-1.447339 0.57894,-2.894677 l 21.99954,-0.578936 4.77623,3.039411 -0.72369,5.499886 q -0.43419,8.394562 -0.72366,16.789126 -0.14466,8.394564 0,16.499659 0.14483,8.105092 1.01314,15.631252 l 9.26297,1.01314 q 0.28946,1.01314 0.4342,2.17101 0.14466,1.15787 0.14466,2.31574 -4.92096,1.44734 -10.42084,2.89468 -5.49988,1.3026 -11.86817,2.171 l -3.61836,-4.34201 0.72369,-11.86818 -0.86842,-1.01313 q -2.46046,4.34201 -5.06567,8.10509 -2.46048,3.61835 -5.21042,7.52616 -3.90781,0.72367 -7.96036,1.15787 -4.05256,0.57894 -9.40771,0.57894 z m 61.8013,-0.86841 q -0.43421,-1.3026 -0.57894,-2.74994 -0.14466,-1.44734 -0.14466,-2.89468 l 9.4077,-3.76308 q 0.28946,-4.34201 0.57894,-9.69716 0.28946,-5.355156 0.28946,-10.131372 0,-4.197282 -0.28946,-9.262966 -0.28948,-5.065685 -0.57894,-9.986636 -0.28948,-5.065685 -0.72367,-8.828764 l -9.55244,-1.592072 q -0.43419,-1.157872 -0.57894,-2.315743 0,-1.15787 0,-2.315741 5.35517,-1.592072 11.28926,-2.894677 5.93408,-1.302605 11.72342,-2.026274 l 3.18415,4.052548 -1.7368,18.8154 1.88153,0.578936 q 2.02629,-5.789354 4.34202,-10.999772 2.31575,-5.355154 4.92096,-10.710305 2.60519,-0.578936 5.78934,-0.868403 3.32888,-0.434202 6.51303,-0.434202 3.18414,0 5.93408,0.289467 l 1.15788,3.618346 -3.32888,13.604982 -2.89467,1.881541 q -2.02629,-0.578936 -4.34202,-1.157872 -2.171,-0.723669 -4.34202,-1.15787 -2.17101,-0.578935 -4.34201,-0.723669 -1.44733,2.171008 -3.03942,5.065685 -1.44733,2.894677 -2.74994,6.368288 -1.15787,3.328879 -2.46048,6.513023 l 1.01315,24.894222 13.02605,3.03941 q 0.14466,1.15787 -0.14466,2.46048 -0.14466,1.3026 -0.43419,2.6052 -3.18415,0 -8.39457,0 -5.06569,0.14473 -10.85505,0.28947 -5.78934,0.14473 -10.99976,0.14473 -5.21042,0.14473 -8.53929,0.28947 z m 78.78639,30.24938 q -2.60521,0 -6.3683,-0.86841 -3.61833,-0.72367 -7.23669,-2.74994 -3.61834,-2.02627 -6.07882,-5.78935 -2.46048,-3.61835 -2.46048,-9.4077 2.31575,-1.73681 4.77623,-3.61835 2.46047,-1.88154 5.06568,-3.61834 2.60521,-1.73681 5.21041,-3.18415 -5.35514,-2.17101 -8.24981,-6.07882 -2.74994,-4.05255 -3.03942,-8.39456 l 12.88132,-8.394566 q -4.63149,-2.026274 -7.81563,-5.355153 -3.03942,-3.328878 -4.63148,-7.236693 -1.59209,-3.907813 -1.59209,-7.960361 0,-4.631482 1.44736,-8.973498 1.44733,-4.486749 3.32887,-6.947225 2.60521,-2.171008 6.07882,-4.052547 3.47361,-2.026274 7.23669,-3.473612 3.76309,-1.592072 6.94722,-2.026275 2.02627,-0.14473 4.48675,-0.14473 2.60521,0 5.78936,0.434203 2.60521,0.4342 5.21042,1.157869 2.60521,0.578936 5.06569,1.447339 l 16.06545,-3.907813 3.03941,2.894677 q 0,2.171007 -0.4342,4.486748 -0.43421,2.315742 -1.15788,4.631483 -1.3026,0 -3.18415,-0.14473 -1.88152,-0.289467 -3.90781,-0.723669 -1.88153,-0.434201 -3.76307,-0.868403 l 0.72367,1.302605 0.43419,0.868403 q 1.3026,2.460474 1.88154,5.499886 0.57894,2.894677 0.57894,5.934088 0,4.631482 -1.59207,9.118231 -1.44733,4.342015 -3.90781,7.236692 -2.74994,2.315743 -6.80249,4.197282 -3.90781,1.881541 -8.39456,3.184149 -4.48676,1.15787 -8.82878,1.59207 -1.59206,0 -3.32888,-0.14473 -1.73679,-0.14473 -2.89467,-0.28947 -1.01314,1.01314 -2.31575,3.18415 -1.15785,2.02627 -1.3026,3.76308 2.02627,0.72366 4.77623,1.3026 2.74994,0.4342 5.78934,0.8684 3.03942,0.28947 6.22356,0.57894 3.18415,0.14473 6.22355,0.28947 6.3683,0.4342 12.15765,1.44733 5.78936,1.01314 9.4077,3.32888 3.61835,2.31574 3.61835,7.09196 0,5.21042 -2.31575,10.42084 -2.31573,5.35515 -6.07881,9.11823 -4.48676,3.03941 -10.42084,5.06568 -5.93409,2.02628 -12.73658,2.89468 -6.8025,1.01314 -13.60498,1.01314 z m 4.19727,-6.36829 q 2.74996,0 6.07884,-0.4342 3.32887,-0.4342 6.36827,-1.15787 3.18415,-0.72367 5.35515,-1.44734 2.31575,-0.72367 2.74996,-1.01314 0.72367,-1.01314 1.59207,-3.18414 0.86839,-2.02628 1.44733,-4.77622 0.72367,-2.60521 0.72367,-5.06569 -2.46046,-0.4342 -5.35515,-0.8684 -2.89467,-0.28947 -6.22355,-0.57893 -3.18415,-0.28947 -6.51302,-0.72367 -3.18415,-0.28947 -6.22357,-0.86841 -3.0394,-0.4342 -5.78934,-1.01313 -1.15787,1.44734 -2.46048,3.18414 -1.15787,1.73681 -2.02627,3.18415 -0.72367,1.59207 -0.72367,2.171 0.28946,1.88154 1.59207,4.05255 1.44733,2.17101 3.18414,4.05255 1.73682,2.02627 3.47361,3.18414 1.73681,1.30261 2.74994,1.30261 z m 3.32888,-50.656847 q 2.17102,0 4.19729,-0.434202 2.171,-0.434201 3.47361,-1.013137 1.88154,-2.171007 3.03942,-5.789353 1.15785,-3.76308 1.15785,-8.394564 0,-4.19728 -1.15785,-7.960362 -1.01315,-3.763079 -3.03942,-6.657756 -2.02627,-2.894677 -4.92094,-4.631482 -2.17102,0 -4.48676,0.4342 -2.171,0.289469 -3.61835,0.723669 -1.7368,2.749944 -3.0394,6.802492 -1.15788,3.907813 -1.15788,8.828764 0,6.078821 2.46048,10.855039 2.46047,4.631482 7.09195,7.236692 z m 45.0123,26.631027 q -0.4342,-1.44734 -0.57893,-2.74994 -0.14466,-1.30261 -0.14466,-2.74995 l 9.40769,-3.76308 q 0.28948,-2.89467 0.43421,-6.36829 0.14466,-3.47361 0.28946,-6.947219 0.28948,-3.618346 0.28948,-6.368289 0,-4.486749 -0.28948,-8.9735 -0.14466,-4.631482 -0.57894,-9.4077 -0.43419,-4.920949 -1.15786,-9.8419 l -8.39456,-2.026274 q 0,-1.447339 0.14466,-2.749944 0.28946,-1.447338 0.72366,-2.894677 l 23.88108,-3.184144 3.18415,2.460475 -1.15787,5.065685 q -0.43419,4.776217 -0.57892,9.4077 -0.14466,4.631484 -0.14466,9.552433 0,5.065685 0.14466,10.710305 0.14466,5.64462 0.43419,11.289239 0.4342,5.64462 0.86841,10.99977 l 9.69716,2.89468 q 0,1.15787 -0.14466,2.46048 0,1.3026 -0.28946,2.6052 -3.03942,0 -7.81563,0 -4.77622,0.14473 -10.13138,0.14473 -5.21042,0.14474 -10.13137,0.14474 -4.77621,0.14473 -7.96036,0.28946 z m 8.68403,-80.761486 q -0.43421,-2.171007 -0.8684,-4.631482 -0.28947,-2.60521 -0.4342,-5.065685 -0.14466,-2.605209 -0.14466,-4.486748 0.72366,-0.434203 1.88154,-1.013138 1.15787,-0.72367 2.31573,-1.15787 1.15788,-0.578936 1.88154,-0.723669 1.30261,-0.14473 3.18415,-0.14473 2.02627,-0.14473 4.34202,-0.14473 2.46047,0 4.48674,0.289468 0.28948,2.605209 0.28948,5.499885 0,2.894677 -0.14466,5.355154 -0.14467,2.460474 -0.72367,3.907813 0,0.14473 -0.72369,1.157871 -0.72366,0.868403 -1.59206,1.736806 -0.72367,0.868403 -0.8684,0.868403 -2.46048,0 -6.36829,-0.434201 -3.76309,-0.434202 -6.51303,-1.013138 z m 62.66965,81.919356 q -9.26297,0 -15.77599,-4.19728 -6.51301,-4.34202 -9.98663,-11.72344 -3.32888,-7.381428 -3.32888,-16.933862 0,-6.80249 1.88154,-13.460248 1.88154,-6.657757 5.06569,-11.868175 3.76309,-2.749943 8.10509,-5.065684 4.34202,-2.315741 9.11824,-3.907813 4.77621,-1.592074 9.55244,-2.315743 5.64461,0 11.43397,1.157871 5.78935,1.013136 9.11823,1.736806 l 0.8684,1.88154 -1.88154,19.828536 -8.39457,0.72367 -0.8684,-0.72367 -3.18415,-14.473384 q -1.3026,-0.578934 -2.60521,-0.868403 -1.3026,-0.289467 -2.74994,-0.4342 -1.3026,-0.289469 -3.0394,-0.14473 -2.60521,0 -5.06569,0.434202 -2.31575,0.289467 -3.90781,0.868403 -2.31575,3.618346 -4.19728,9.841902 -1.73681,6.078821 -1.73681,14.328651 0,8.973497 3.18415,15.052321 3.32888,6.07882 8.82876,9.69717 2.74994,0 6.94723,-0.86841 4.342,-0.8684 8.97349,-2.17101 4.77623,-1.44733 8.53929,-2.89467 l 2.60521,4.63148 q -3.0394,2.46048 -6.80248,5.06569 -3.76309,2.6052 -7.96036,4.77621 -1.59208,0.4342 -5.06569,1.15787 -3.47361,0.86841 -7.6709,0.86841 z m 64.2618,-1.73681 q -3.0394,0.86841 -7.52616,1.30261 -4.48675,0.4342 -9.40771,0 -2.31573,-1.44734 -4.92094,-3.76308 -2.46048,-2.31574 -4.19728,-5.35515 -1.73681,-3.18415 -2.02627,-6.51303 0,-2.171 0.57892,-4.77621 0.72369,-2.605212 1.88154,-5.065686 1.15788,-2.460477 2.46048,-4.342016 1.30261,-2.026274 2.46048,-3.039412 2.60521,-1.013136 6.94722,-1.881539 4.34202,-0.868403 8.9735,-1.592072 4.63149,-0.868404 8.39457,-1.302605 3.90782,-0.434202 5.78936,-0.578936 V 64.660492 q -2.31575,-1.302605 -6.07884,-2.171008 -3.61833,-1.013136 -7.23669,-1.013136 -1.15786,-0.14473 -2.31573,0 -1.15788,0.14473 -2.31575,0.289467 l -2.60521,14.762851 -10.99976,-0.723669 -1.73681,-15.775987 1.3026,-2.026275 q 4.63148,-1.447338 12.15764,-3.03941 7.6709,-1.592074 16.93386,-1.592074 4.63148,0 7.96036,1.302605 3.47361,1.302605 5.78936,3.328879 2.46048,2.026275 3.90781,4.197282 1.59207,2.171008 2.31574,3.76308 -0.28946,3.763079 -0.57892,8.105095 -0.28948,4.342015 -0.43421,8.394564 -0.14466,3.907813 -0.14466,6.223554 0,6.513023 0.28946,11.144507 0.4342,4.486753 0.8684,7.526163 0.4342,3.03941 0.72368,4.63148 l 8.24982,1.01314 0.57894,4.48675 q -4.92095,1.3026 -10.56557,2.74994 -5.64463,1.3026 -12.15765,2.31574 l -3.32888,-4.05255 1.01314,-10.56557 h -0.86839 q -1.59209,1.88154 -3.32888,4.34202 -1.73681,2.31574 -3.47363,4.63148 -1.73679,2.31574 -3.32887,4.19728 z m -9.98664,-11.43397 q 0.72367,0.4342 1.88155,0.8684 1.15787,0.28947 2.60521,0.72367 1.44733,0.28947 2.89467,0.28947 0.86841,-0.28947 2.60521,-1.73681 1.73681,-1.59207 3.61835,-3.47361 2.02627,-1.88154 3.61834,-3.61835 1.73681,-1.7368 2.17102,-2.46047 v -9.697169 q -3.3289,0.289467 -6.8025,1.013136 -3.47361,0.723669 -6.94722,1.736807 -3.32888,1.013136 -6.51302,2.315741 -0.14466,0.578936 -0.28948,1.302605 0,0.578934 0,1.15787 0,0.434202 0,1.013138 0,3.473612 0.28948,6.078822 0.43419,2.46047 0.86839,4.48675 z"
           id="path7" /><path
           style="font-weight:600;font-family:Labrada;-inkscape-font-specification:'Labrada Semi-Bold';text-align:start;text-anchor:start;fill:#d20000;fill-opacity:1;stroke-width:11.8319"
           d="m 775.33012,122.01252 q -0.57893,-1.73681 -0.72366,-3.32888 -0.14466,-1.73681 -0.14466,-3.32888 l 10.85503,-2.17102 q 0.28947,-5.06567 0.4342,-11.72344 0.28946,-6.802485 0.43419,-14.328638 0.28948,-7.670899 0.28948,-15.052322 0,-7.670899 -0.14466,-14.473384 -0.14466,-6.947232 -0.57894,-12.302382 -0.28948,-5.49988 -0.72367,-8.684027 l -10.85504,-3.184148 q 0,-1.447337 0.14466,-2.894675 0.28948,-1.592072 0.72368,-3.184146 6.22355,0 12.73658,-0.289467 6.51302,-0.289467 12.73657,-0.434202 6.36829,-0.289467 12.15765,-0.4342 5.78936,-0.289469 10.56557,-0.289469 6.51302,0 10.42084,0.723669 3.90781,0.578936 4.77621,0.868405 5.93409,3.763079 9.69717,10.420838 3.90782,6.657754 3.90782,14.473384 0,4.342005 -1.15788,8.24982 -1.01314,3.763085 -2.31575,6.513025 -1.3026,2.749957 -1.73679,3.473624 -0.57894,0.723668 -3.32888,3.0394 -2.60521,2.31575 -6.36829,5.21042 -3.76309,2.894687 -7.81563,5.499897 -3.32888,0 -6.3683,-0.14466 -2.89467,-0.144661 -5.49988,-0.28946 -2.46048,-0.144661 -4.34202,-0.289478 -1.7368,-0.14466 -2.46046,-0.28946 l 0.14466,-5.644627 1.01312,-1.157858 q 2.60521,-0.14466 5.21042,-0.434207 2.60521,-0.434207 5.21042,-1.013145 2.60521,-0.57892 5.06569,-1.447335 2.46048,-1.013127 4.19728,-2.171002 0.14466,-0.434208 0.43421,-2.74994 0.4342,-2.31575 0.72366,-5.644628 0.43421,-3.328877 0.43421,-7.091962 0,-4.052545 -1.15787,-8.24982 -1.01315,-4.342022 -2.74994,-7.960359 -1.73682,-3.618355 -3.76309,-5.499898 -2.46048,0 -5.78936,0.289478 -3.32887,0.14466 -6.36827,0.434207 -2.31575,0.144661 -4.63149,0.57892 -2.31574,0.289478 -4.05256,0.578938 0,1.592082 -0.14466,5.789357 -0.14466,4.197275 -0.28946,10.999777 -0.14466,6.657755 -0.14466,15.63126 0,6.223547 0.14466,12.012904 0.14466,5.789358 0.43419,11.144507 0.28948,5.35515 0.57894,10.131359 0.43421,4.77622 0.57894,8.82878 l 14.90759,4.19727 q 0,1.59207 -0.14466,3.03942 -0.14466,1.30261 -0.57894,2.89467 -11.57871,0 -23.01268,0.28946 -11.28924,0.28948 -21.56535,0.86842 z m 112.50953,0.57894 q -8.68403,0 -15.48653,-4.05257 -6.65776,-4.05254 -10.42082,-11.43396 -3.76309,-7.381426 -3.76309,-17.368058 0,-7.526169 2.171,-13.894447 2.17101,-6.513025 5.21042,-11.433984 3.76309,-2.74994 8.39457,-5.06569 4.77621,-2.315733 9.8419,-3.907798 5.06569,-1.736812 9.8419,-2.315749 8.5393,0 15.05233,3.907814 6.65775,3.907815 10.56557,10.999777 3.90781,6.947215 3.90781,16.644387 0,4.776213 -1.01314,9.697173 -1.01313,4.920942 -2.89467,9.552425 -1.73682,4.48675 -4.1973,8.10511 -3.4736,2.60519 -7.96036,4.77621 -4.48675,2.171 -9.40769,3.76308 -4.92096,1.44734 -9.8419,2.02628 z m 2.02627,-8.97351 q 1.88154,0 3.47361,-0.14466 1.73681,-0.28948 3.32887,-0.57894 1.59209,-0.4342 2.60521,-0.86839 1.73682,-2.31575 3.18415,-5.78936 1.44734,-3.47363 2.31575,-7.960361 0.8684,-4.631483 0.8684,-9.697172 0,-10.27611 -3.61834,-17.078595 -3.61835,-6.947232 -9.98665,-9.407694 -2.89467,0 -5.64461,0.43419 -2.74994,0.289477 -4.63148,1.013145 -2.46048,3.328877 -4.48675,9.552424 -1.88154,6.223565 -1.88154,14.039195 0,10.420839 3.76308,17.223328 3.76307,6.80248 10.7103,9.26296 z m 43.99907,7.81563 q -0.43419,-1.3026 -0.57892,-2.60521 -0.14466,-1.44733 -0.14466,-2.89469 l 9.40771,-3.76306 q 0.43419,-5.21042 0.57894,-11.86818 0.28946,-6.8025 0.28946,-13.749715 0.14466,-6.947232 0.14466,-12.591842 0,-8.394567 -0.14466,-17.368072 -0.14466,-8.973487 -0.57894,-16.354927 -0.28946,-7.381419 -0.86839,-10.999765 l -10.42084,-2.171008 q 0,-3.184144 0.8684,-5.64462 l 23.44688,-3.618346 5.35515,3.76308 q -0.14466,2.460476 -0.4342,7.091958 -0.14466,4.486756 -0.43419,10.276096 -0.28948,5.789357 -0.43421,12.302382 -0.14466,6.513025 -0.28946,12.88132 -0.14483,6.368277 -0.14483,11.723444 0,4.486735 0,9.986632 0.14483,5.49988 0.28947,10.99976 0.14466,5.355163 0.28946,9.697173 0.14466,4.34202 0.28948,6.36829 l 10.13136,2.89467 q 0,1.15788 -0.14466,2.46048 -0.14466,1.30261 -0.43421,2.60521 -2.89467,0 -7.67088,0 -4.77623,0.14466 -10.13138,0.14466 -5.35515,0.14467 -10.27609,0.14467 -4.77623,0.14466 -7.96038,0.28947 z m 74.39361,1.15788 q -8.68405,0 -15.4866,-4.05257 -6.6579,-4.05254 -10.4209,-11.43396 -3.76315,-7.381426 -3.76315,-17.368058 0,-7.526169 2.171,-13.894447 2.17105,-6.513025 5.21045,-11.433984 3.76315,-2.74994 8.3947,-5.06569 4.77625,-2.315733 9.842,-3.907798 5.0656,-1.736812 9.8419,-2.315749 8.5393,0 15.0523,3.907814 6.6577,3.907815 10.5656,10.999777 3.9078,6.947215 3.9078,16.644387 0,4.776213 -1.0132,9.697173 -1.0131,4.920942 -2.8946,9.552425 -1.7369,4.48675 -4.1973,8.10511 -3.4736,2.60519 -7.9604,4.77621 -4.4867,2.171 -9.4077,3.76308 -4.9209,1.44734 -9.8419,2.02628 z m 2.0263,-8.97351 q 1.8815,0 3.4736,-0.14466 1.7368,-0.28948 3.3289,-0.57894 1.592,-0.4342 2.6052,-0.86839 1.7368,-2.31575 3.1841,-5.78936 1.4474,-3.47363 2.3158,-7.960361 0.8684,-4.631483 0.8684,-9.697172 0,-10.27611 -3.6184,-17.078595 -3.6183,-6.947232 -9.9866,-9.407694 -2.8947,0 -5.6446,0.43419 -2.75,0.289477 -4.6315,1.013145 -2.46055,3.328877 -4.48685,9.552424 -1.8815,6.223565 -1.8815,14.039195 0,10.420839 3.7631,17.223328 3.76315,6.80248 10.71035,9.26296 z m 43.4201,7.81563 q -0.4342,-1.44733 -0.5789,-2.74994 -0.1447,-1.3026 -0.1447,-2.74996 l 9.4077,-3.76306 q 0.2895,-4.34203 0.579,-9.69718 0.2894,-5.355145 0.2894,-10.131358 0,-4.197292 -0.2894,-9.262965 -0.2895,-5.065689 -0.579,-9.986649 -0.2894,-5.065673 -0.7236,-8.828757 l -9.5525,-1.592065 q -0.4342,-1.157875 -0.5789,-2.31575 0,-1.157875 0,-2.31575 5.3552,-1.592065 11.2892,-2.89467 5.9341,-1.302605 11.7235,-2.026272 l 3.1841,4.052544 -0.5789,19.249597 1.8815,0.578938 q 2.0263,-5.49988 4.342,-10.85503 2.4605,-5.499897 5.7894,-11.289237 4.6315,-1.013145 8.2498,-1.302605 3.7631,-0.434207 8.2499,-0.434207 3.0394,0 5.7893,1.736812 2.8947,1.736795 5.2104,4.197275 2.4605,2.46048 3.6184,4.776212 0.2894,6.223565 0.4342,12.302382 0.2894,6.078818 0.4342,12.302382 0.2894,6.223548 0.4342,12.302363 0.2894,6.07884 0.4342,12.30238 l 9.4077,2.74994 q 0.1446,1.15788 0,2.46048 -0.1447,1.30261 -0.4342,2.60521 -2.75,0 -7.2367,0 -4.342,0.14466 -9.4077,0.14466 -5.0657,0.14467 -9.8419,0.14467 -4.6315,0.14466 -7.8156,0.28947 -0.4342,-1.44733 -0.579,-2.74994 -0.1446,-1.44735 -0.1446,-2.89468 l 8.9735,-3.90782 V 87.999921 q 0,-2.60521 -0.1447,-5.35515 0,-2.74994 -0.1448,-5.49988 -0.1447,-2.894687 -0.4342,-5.499897 -0.1447,-2.74994 -0.579,-4.920942 -2.3157,-0.868415 -5.2104,-1.447353 -2.7499,-0.723667 -5.9341,-1.157857 -1.7368,2.171002 -4.0525,6.223547 -2.3158,4.052545 -4.7762,9.262965 -2.4605,5.21042 -4.6315,10.710317 l 1.0131,22.867939 8.9735,2.46048 q 0.1447,1.15787 0,2.60521 -0.1448,1.3026 -0.4342,2.6052 -2.7499,0 -7.3814,0 -4.6315,0.14467 -9.9866,0.14467 -5.2105,0.14466 -9.9867,0.14466 -4.6315,0.14466 -7.5261,0.28947 z m 84.2352,0 q -0.4342,-1.44733 -0.5789,-2.74994 -0.1447,-1.3026 -0.1447,-2.74996 l 9.4077,-3.76306 q 0.2895,-2.89469 0.4342,-6.3683 0.1447,-3.47361 0.2895,-6.947213 0.2894,-3.618355 0.2894,-6.368295 0,-4.486752 -0.2894,-8.973504 -0.1447,-4.631483 -0.579,-9.407695 -0.4342,-4.92096 -1.1578,-9.841902 l -8.3946,-2.026273 q 0,-1.447335 0.1447,-2.74994 0.2894,-1.447352 0.7236,-2.894687 l 23.8811,-3.184147 3.1842,2.460479 -1.1579,5.06569 q -0.4342,4.776213 -0.579,9.407695 -0.1446,4.631482 -0.1446,9.552442 0,5.065673 0.1446,10.7103 0.1447,5.644627 0.4343,11.28924 0.4342,5.64462 0.8684,10.99977 l 9.6971,2.89467 q 0,1.15788 -0.1446,2.46048 0,1.30261 -0.2895,2.60521 -3.0394,0 -7.8156,0 -4.7763,0.14466 -10.1314,0.14466 -5.2104,0.14467 -10.1314,0.14467 -4.7762,0.14466 -7.9603,0.28947 z m 8.684,-80.761489 q -0.4342,-2.171002 -0.8684,-4.631482 -0.2894,-2.60521 -0.4342,-5.065684 -0.1446,-2.605209 -0.1446,-4.486749 0.7236,-0.434201 1.8815,-1.013137 1.1579,-0.723669 2.3157,-1.157871 1.1579,-0.578936 1.8816,-0.723669 1.3026,-0.14473 3.1841,-0.14473 2.0263,-0.14473 4.342,-0.14473 2.4605,0 4.4868,0.289467 0.2895,2.60521 0.2895,5.499887 0,2.894676 -0.1447,5.355151 -0.1447,2.460463 -0.7237,3.907815 0,0.144661 -0.7236,1.157858 -0.7237,0.868414 -1.5921,1.736812 -0.7237,0.868397 -0.8684,0.868397 -2.4605,0 -6.3683,-0.43419 -3.7631,-0.434207 -6.513,-1.013145 z m 62.5249,80.182549 q -3.0394,0.8684 -7.5261,1.30261 -4.4868,0.43421 -9.4077,0 -2.3158,-1.44734 -4.921,-3.76309 -2.4604,-2.31573 -4.1973,-5.35515 -1.7367,-3.18414 -2.0262,-6.51302 0,-2.171 0.5789,-4.77621 0.7237,-2.605213 1.8816,-5.065693 1.1578,-2.46048 2.4604,-4.342005 1.3026,-2.026272 2.4605,-3.039417 2.6052,-1.013145 6.9472,-1.881543 4.3421,-0.868397 8.9735,-1.592065 4.6315,-0.868414 8.3946,-1.302605 3.9078,-0.434207 5.7893,-0.578937 V 64.408441 q -2.3157,-1.302605 -6.0788,-2.171003 -3.6183,-1.013145 -7.2367,-1.013145 -1.1578,-0.14466 -2.3157,0 -1.1579,0.144834 -2.3158,0.289478 l -2.6052,14.762844 -10.9997,-0.723667 -1.7368,-15.77599 1.3026,-2.026272 q 4.6315,-1.447335 12.1576,-3.039417 7.6709,-1.592065 16.9339,-1.592065 4.6315,0 7.9603,1.302604 3.4736,1.302605 5.7894,3.328878 2.4605,2.026272 3.9078,4.197275 1.5921,2.17102 2.3157,3.763085 -0.2894,3.763084 -0.5789,8.105089 -0.2895,4.342023 -0.4342,8.394568 -0.1447,3.907814 -0.1447,6.223564 0,6.513025 0.2895,11.144507 0.4342,4.486736 0.8684,7.526156 0.4342,3.03941 0.7237,4.63148 l 8.2498,1.01314 0.5789,4.48674 q -4.9209,1.3026 -10.5655,2.74996 -5.6447,1.3026 -12.1577,2.31573 l -3.3289,-4.05255 1.0132,-10.56557 h -0.8684 q -1.5921,1.88155 -3.3289,4.34203 -1.7368,2.31573 -3.4736,4.63148 -1.7368,2.31573 -3.3289,4.19727 z m -9.9866,-11.43396 q 0.7237,0.43419 1.8816,0.86839 1.1578,0.28946 2.6052,0.72367 1.4473,0.28946 2.8946,0.28946 0.8684,-0.28946 2.6052,-1.73679 1.7369,-1.59209 3.6184,-3.47361 2.0263,-1.88154 3.6183,-3.61836 1.7369,-1.73681 2.171,-2.46048 v -9.69715 q -3.3288,0.28946 -6.8024,1.013127 -3.4737,0.723668 -6.9473,1.736813 -3.3289,1.013127 -6.513,2.315732 -0.1446,0.578938 -0.2895,1.302605 0,0.578938 0,1.157875 0,0.434207 0,1.013145 0,3.473603 0.2895,6.078813 0.4342,2.46047 0.8684,4.48676 z m 82.643,13.17078 q -9.1182,0 -15.6312,-4.1973 -6.5131,-4.342 -10.1314,-11.72344 -3.4736,-7.381423 -3.4736,-16.933848 0,-7.526169 2.0263,-13.894447 2.0262,-6.513025 4.9209,-11.433984 3.9078,-2.74994 8.5393,-5.06569 4.7762,-2.315733 9.8419,-3.907798 5.2104,-1.592082 10.4208,-2.315749 5.0657,0 9.9867,3.039417 4.9209,2.89467 8.3945,8.828757 3.6184,5.934087 4.1973,15.48653 l -3.3289,8.249819 q -7.0919,1.157875 -16.7891,2.026273 -9.6972,0.723667 -20.6969,0.868415 0.7236,7.236692 3.7631,12.302365 3.1841,4.92096 8.3945,8.10511 3.9078,0 8.8288,-1.01315 4.9209,-1.15787 9.6971,-2.60521 4.7763,-1.44733 8.2499,-2.74994 l 2.4604,4.77621 q -3.0394,2.31575 -6.9472,5.06569 -3.9078,2.60521 -8.3945,4.92095 -2.0263,0.57893 -5.9341,1.3026 -3.7631,0.86842 -8.3946,0.86842 z m -11.8682,-36.762403 q 7.092,-0.434207 13.1708,-1.157875 6.0788,-0.868397 10.7103,-1.881542 0,-4.197275 -0.8684,-8.24982 -0.8684,-4.052562 -2.4605,-7.381439 -1.4473,-3.473608 -3.4736,-5.35515 -2.6052,0 -6.0788,0.434207 -3.3289,0.28946 -5.0657,1.013128 -2.171,3.473625 -3.9078,9.407712 -1.7368,5.78934 -2.0263,13.170779 z"
           id="path8" /></g></g></g></svg>
