<?xml version="1.0" encoding="UTF-8" standalone="no"?>
<svg
   width="500"
   height="170"
   version="1.1"
   id="svg15"
   sodipodi:docname="liturgica_polonae_flat.svg"
   inkscape:version="1.3.2 (091e20ef0f, 2023-11-25, custom)"
   xml:space="preserve"
   inkscape:export-filename="./liturgica_polonae.png"
   inkscape:export-xdpi="200"
   inkscape:export-ydpi="200"
   xmlns:inkscape="http://www.inkscape.org/namespaces/inkscape"
   xmlns:sodipodi="http://sodipodi.sourceforge.net/DTD/sodipodi-0.dtd"
   xmlns:xlink="http://www.w3.org/1999/xlink"
   xmlns="http://www.w3.org/2000/svg"
   xmlns:svg="http://www.w3.org/2000/svg"><sodipodi:namedview
     id="namedview15"
     pagecolor="#505050"
     bordercolor="#ffffff"
     borderopacity="1"
     inkscape:showpageshadow="0"
     inkscape:pageopacity="0"
     inkscape:pagecheckerboard="1"
     inkscape:deskcolor="#d1d1d1"
     inkscape:zoom="0.8175922"
     inkscape:cx="209.15072"
     inkscape:cy="136.98761"
     inkscape:window-width="1440"
     inkscape:window-height="2534"
     inkscape:window-x="4000"
     inkscape:window-y="48"
     inkscape:window-maximized="1"
     inkscape:current-layer="svg15"
     showgrid="false" /><defs
     id="defs8"><linearGradient
       id="linearGradient7"><stop
         style="stop-color:#a90808;stop-opacity:1;"
         offset="0"
         id="stop5" /><stop
         style="stop-color:#550000;stop-opacity:1;"
         offset="1"
         id="stop6" /></linearGradient><linearGradient
       id="linearGradient1"><stop
         style="stop-color:#f51919;stop-opacity:1;"
         offset="0"
         id="stop3" /><stop
         style="stop-color:#d70000;stop-opacity:1;"
         offset="1"
         id="stop4" /></linearGradient><linearGradient
       id="linearGradient1-1"><stop
         style="stop-color:#f51919;stop-opacity:1;"
         offset="0"
         id="stop1" /><stop
         style="stop-color:#d70000;stop-opacity:1;"
         offset="1"
         id="stop2" /></linearGradient><linearGradient
       id="gradient_0"
       gradientUnits="userSpaceOnUse"
       x1="492.67029"
       y1="716.02338"
       x2="727.95654"
       y2="633.62958"
       gradientTransform="matrix(0.11839776,0,0,0.11839776,29.483543,44.919718)"><stop
         offset="0"
         stop-color="#03224A"
         id="stop7" /><stop
         offset="1"
         stop-color="#1C4971"
         id="stop8" /></linearGradient><linearGradient
       id="linearGradient15"
       gradientUnits="userSpaceOnUse"
       x1="491.96332"
       y1="804.96106"
       x2="162.27492"
       y2="598.06586"
       gradientTransform="matrix(0.11839776,0,0,0.11839776,29.483543,44.919718)"><stop
         offset="0"
         stop-color="#05244C"
         id="stop9-3" /><stop
         offset="1"
         stop-color="#1D476D"
         id="stop10-4" /></linearGradient><linearGradient
       id="linearGradient16"
       gradientUnits="userSpaceOnUse"
       x1="843.50372"
       y1="685.08618"
       x2="509.90506"
       y2="67.249397"
       gradientTransform="matrix(0.11839776,0,0,0.11839776,29.483543,44.919718)"><stop
         offset="0"
         stop-color="#072859"
         id="stop11-7" /><stop
         offset="1"
         stop-color="#356F72"
         id="stop12-2" /></linearGradient><linearGradient
       inkscape:collect="always"
       xlink:href="#linearGradient1"
       id="linearGradient2"
       x1="-157.70502"
       y1="-209.0509"
       x2="-130.93323"
       y2="292.99088"
       gradientUnits="userSpaceOnUse"
       gradientTransform="matrix(0.23519885,0,0,0.23519885,111.65455,68.569597)" /><linearGradient
       inkscape:collect="always"
       xlink:href="#linearGradient7"
       id="linearGradient4"
       x1="-276.46652"
       y1="500.7821"
       x2="-276.46652"
       y2="641.6853"
       gradientUnits="userSpaceOnUse"
       gradientTransform="matrix(1.0965727,0,0,1.0965727,568.55501,-522.86869)" /><linearGradient
       inkscape:collect="always"
       xlink:href="#linearGradient1"
       id="linearGradient6"
       gradientUnits="userSpaceOnUse"
       gradientTransform="matrix(0.23519885,0,0,0.23519885,111.65455,68.569597)"
       x1="-157.70502"
       y1="-209.0509"
       x2="-130.93323"
       y2="292.99088" /></defs><defs
     id="defs10"><linearGradient
       id="gradient_1"
       gradientUnits="userSpaceOnUse"
       x1="491.96332"
       y1="804.96106"
       x2="162.27492"
       y2="598.06586"
       gradientTransform="matrix(0.11839776,0,0,0.11839776,29.483543,44.919718)"><stop
         offset="0"
         stop-color="#05244C"
         id="stop9" /><stop
         offset="1"
         stop-color="#1D476D"
         id="stop10" /></linearGradient></defs><defs
     id="defs12"><linearGradient
       id="gradient_2"
       gradientUnits="userSpaceOnUse"
       x1="843.50372"
       y1="685.08618"
       x2="509.90506"
       y2="67.249397"
       gradientTransform="matrix(0.11839776,0,0,0.11839776,29.483543,44.919718)"><stop
         offset="0"
         stop-color="#072859"
         id="stop11" /><stop
         offset="1"
         stop-color="#356F72"
         id="stop12" /></linearGradient></defs><g
     id="g6"
     transform="matrix(1.1168906,0,0,1.1168906,-9.8389729,-9.7455005)"><path
       style="fill:url(#linearGradient6);fill-opacity:1;stroke:#ffffff;stroke-width:2.48446;stroke-linecap:round;stroke-linejoin:round;stroke-dasharray:none;stroke-opacity:1"
       d="m 24.557192,149.20711 c -2.337581,-0.62691 -4.131985,-2.27343 -5.483611,-5.03167 -0.704027,-1.43668 -0.749165,-1.68467 -0.749165,-4.11598 0,-2.35909 0.05624,-2.69373 0.637434,-3.79567 0.543657,-1.0307 2.579796,-3.13644 3.037355,-3.14117 0.08076,-7.8e-4 0.19839,1.18918 0.26144,2.64447 0.0886,2.04487 0.248821,3.0062 0.705281,4.23159 1.301534,3.49404 3.590434,6.26109 6.405327,7.74347 l 1.636717,0.86194 -0.900749,0.16895 c -1.971496,0.36986 -4.891034,-0.85915 -6.81797,-2.87006 -1.323615,-1.38133 -2.179754,-2.95072 -2.995263,-5.49068 -0.628797,-1.95841 -0.642199,-1.97762 -0.656147,-0.94083 -0.03245,2.4107 1.134722,5.17443 2.95717,7.00236 1.15099,1.15443 3.698431,2.63506 4.549367,2.64421 0.194038,0 0.511558,0.10637 0.705596,0.23177 0.560007,0.36192 -1.791224,0.26004 -3.292782,-0.1427 z m 5.681563,-1.96984 c -3.717714,-2.04941 -5.886163,-4.86656 -6.966094,-9.05001 -0.441241,-1.70929 -0.481754,-5.05287 -0.06788,-5.60033 0.1617,-0.21388 2.516631,-1.43967 5.233171,-2.72397 2.716549,-1.2843 7.865529,-3.77063 11.442189,-5.52517 3.576651,-1.75455 8.815709,-4.26516 11.642345,-5.57913 2.826636,-1.31397 7.114399,-3.38273 9.528374,-4.59724 2.413976,-1.21452 4.530771,-2.20544 4.703983,-2.20205 0.173211,0.003 0.720798,0.18862 1.216864,0.4116 l 0.901929,0.40543 0.0749,1.99919 c 0.110401,2.94624 1.028781,5.26799 2.907317,7.34996 1.164038,1.29009 1.330494,1.07719 0.352781,-0.45123 -1.469146,-2.29664 -2.617676,-5.83215 -2.397336,-7.37969 0.07944,-0.55814 0.09865,-0.55184 1.120337,0.36815 2.798492,2.51993 4.623079,7.58784 3.304038,9.17719 -0.77355,0.93207 -3.455432,-0.0888 -4.773721,-1.8172 -0.896173,-1.17494 -1.743055,-3.15784 -2.123162,-4.97116 -0.38294,-1.82687 -0.623676,-2.24791 -0.617739,-1.08042 0.0066,1.25964 0.617177,3.8322 1.164591,4.90524 0.675198,1.32348 1.991671,2.73928 3.212251,3.45459 l 1.009894,0.59183 -2.048609,1.07778 c -1.126745,0.59278 -6.12344,3.51678 -11.103776,6.49778 -6.905636,4.1334 -26.312425,15.4633 -26.439986,15.43596 -0.01098,-0.004 -0.58545,-0.31604 -1.276685,-0.6971 z m 10.031079,-6.66918 c 7.412876,-4.43131 15.115557,-8.99581 24.447556,-14.48726 1.584651,-0.9325 2.881188,-1.80595 2.881188,-1.94102 0,-0.14323 -0.220546,-0.10469 -0.529196,0.0925 -0.909271,0.58085 -35.318424,19.90692 -35.70726,20.05516 -0.52316,0.19946 -2.464448,-1.57713 -3.537533,-3.23739 -0.485347,-0.75092 -1.173584,-2.12772 -1.529421,-3.05954 -1.137538,-2.97888 -1.434355,-2.63819 -0.441034,0.50623 0.60896,1.9277 1.926457,4.15557 3.095012,5.23364 0.554144,0.51123 2.609202,1.84648 2.853532,1.85404 0.03956,0 3.849775,-2.25614 8.467156,-5.01634 z m -7.317636,-8.7881 c 2.56219,-1.37164 10.53262,-5.54053 17.712067,-9.2642 15.078115,-7.82039 14.447403,-7.48312 14.289593,-7.64094 -0.06672,-0.0666 -7.198729,3.33848 -15.848982,7.56704 -8.650253,4.22857 -17.238067,8.41466 -19.084033,9.30242 l -3.356295,1.61414 0.388505,0.59293 c 0.264025,0.40297 0.52501,0.54961 0.814552,0.45771 0.234329,-0.0744 2.522395,-1.25747 5.084593,-2.6291 z m 52.756696,6.38031 c -5.127442,-0.60647 -12.07555,-2.2502 -15.953097,-3.77405 -2.408427,-0.9465 -7.331882,-3.32598 -7.329264,-3.5422 8.26e-4,-0.10589 1.242316,-0.89839 2.757847,-1.76112 l 2.755526,-1.56857 0.828929,0.35219 c 5.6446,2.3983 10.730465,3.60369 18.305088,4.33844 5.476385,0.53123 13.615017,-0.27737 19.286527,-1.91616 5.57774,-1.6117 9.6661,-3.46295 14.63184,-6.62546 1.68352,-1.07218 3.96318,-2.47237 5.06591,-3.11153 2.44434,-1.41678 5.35993,-4.07674 7.23369,-6.59945 0.76866,-1.03487 2.08834,-3.31042 2.93263,-5.05677 0.84429,-1.74635 2.24479,-4.44526 3.11223,-5.99757 2.5835,-4.623288 4.17615,-8.622558 5.52617,-13.876737 1.21121,-4.713969 1.58095,-7.635274 1.59261,-12.58314 0.0297,-12.605111 -3.78192,-24.013772 -11.40935,-34.149744 -6.12275,-8.136416 -13.84753,-14.126589 -23.73005,-18.401453 -10.00637,-4.328442 -21.324907,-5.303867 -32.663208,-2.814893 -5.829323,1.27965 -12.839069,4.082544 -17.875113,7.147481 -5.185035,3.155625 -11.766917,9.052086 -15.508811,13.893754 -5.883347,7.612529 -9.713353,17.226035 -10.846969,27.226436 -0.427499,3.77125 -0.17369,12.867459 0.457295,16.388776 2.048609,11.432593 6.322317,20.24319 14.362263,29.60896 1.19465,1.39165 2.135772,2.56502 2.091377,2.60749 -0.168826,0.16154 -4.271982,2.00498 -4.462725,2.00498 -0.110145,0 -1.204461,-1.26073 -2.431821,-2.80164 C 35.565365,106.00858 31.143896,93.777519 30.742195,79.260564 30.482877,69.889174 32.115911,61.709545 36.036681,52.741285 39.418229,45.006397 46.39538,35.929933 53.13385,30.499818 59.137607,25.661767 66.977371,21.601239 74.562508,19.401063 79.3239,18.019955 85.361292,17.168061 90.387896,17.168061 c 2.906886,0 9.044324,0.62039 11.869524,1.199795 6.51815,1.336795 14.92897,4.845962 20.29725,8.468436 14.16578,9.558971 23.95575,24.81455 26.94032,41.980764 0.46083,2.650551 0.52736,3.853558 0.52559,9.502709 -0.002,6.901136 -0.15809,8.452757 -1.41047,14.036719 -3.09318,13.791476 -11.70613,26.805156 -23.03502,34.804566 -9.06587,6.40149 -18.93651,10.09147 -29.483442,11.0219 -4.653187,0.41051 -6.759545,0.40591 -10.382754,-0.0226 z m 0.823189,-8.7241 c -4.725691,-0.39101 -10.562289,-1.65256 -14.309402,-3.09291 l -1.138256,-0.43753 1.318553,-0.64511 c 1.695993,-0.82978 2.128257,-1.59377 2.086488,-3.68764 l -0.03097,-1.55214 5.188933,-2.79903 c 2.853911,-1.53948 5.369097,-2.88739 5.589288,-2.99537 0.625979,-0.30695 2.752585,1.09903 2.937795,1.94228 0.161617,0.73582 0.31965,0.78383 3.602829,1.09462 1.185087,0.11219 1.927002,0.31678 2.394057,0.66019 3.322074,2.44261 4.321158,3.1115 5.649423,3.78236 3.385029,1.70965 6.772459,2.58399 11.113149,2.86845 2.19857,0.14408 2.3099,0.17527 1.72313,0.48271 -1.53654,0.80507 -6.12104,2.41052 -8.4851,2.97139 -5.283357,1.25348 -7.843417,1.56759 -12.430119,1.52511 -2.347953,-0.0217 -4.692355,-0.0746 -5.209801,-0.11738 z m 20.527197,-6.17524 c -6.18569,-1.34513 -10.701031,-3.88449 -15.069153,-8.47464 -1.111946,-1.16846 -2.522163,-2.83957 -3.133824,-3.71359 -1.448386,-2.06964 -1.618632,-2.23946 -1.183131,-1.18012 0.405046,0.98527 1.457544,2.60225 2.704426,4.15492 l 0.83191,1.03594 -1.280311,-0.16943 c -1.821192,-0.24101 -3.011391,-0.84234 -4.172919,-2.10835 -1.300029,-1.41695 -1.952798,-2.93073 -2.102796,-4.8764 -0.134201,-1.74079 0.13491,-2.80607 0.973328,-3.8528 l 0.563203,-0.70316 0.2749,1.02089 c 0.151186,0.5615 0.326478,0.96931 0.389528,0.90626 0.164887,-0.16488 -0.658813,-3.28978 -0.955109,-3.62345 -0.420976,-0.47407 -5.263866,-2.55006 -8.363197,-3.585042 -4.718467,-1.575657 -8.278908,-2.576179 -13.053537,-3.668191 -2.457826,-0.562121 -4.280207,-1.028632 -4.049727,-1.036675 0.774121,-0.027 8.490403,1.185377 11.340896,1.781909 1.552304,0.324853 4.409973,1.123335 6.35037,1.774403 2.944502,0.987986 4.336997,1.565756 7.735953,3.209776 0.117156,0.0567 0.134919,-0.19613 0.0403,-0.573198 -0.433281,-1.726325 -0.05442,-6.324588 0.805953,-9.781416 2.361001,-9.486253 10.525452,-17.402304 19.947827,-19.340917 5.34311,-1.09932 11.25407,-0.440101 16.52471,1.842911 7.41014,3.209749 13.77863,11.467953 15.38855,19.954791 0.45236,2.384652 0.45718,7.061969 0.01,9.612259 -1.79769,10.25008 -9.01499,18.2582 -18.96571,21.04384 -3.04776,0.85319 -8.48024,1.01754 -11.55234,0.34948 z m 9.5202,-4.00175 c 5.50432,-1.40776 9.95473,-4.25351 13.01164,-8.3201 1.41386,-1.88084 3.23951,-5.67569 3.86845,-8.04106 0.75685,-2.84635 0.88058,-7.350266 0.28109,-10.231148 -1.82711,-8.780236 -7.65166,-15.21734 -16.27993,-17.992016 -3.53655,-1.13729 -9.52246,-1.021629 -13.33419,0.257641 -6.941386,2.329637 -12.68457,8.622522 -14.682615,16.087979 -0.444569,1.661062 -0.534771,2.595883 -0.533301,5.527172 0.0017,3.104294 0.0787,3.810432 0.642257,5.879972 0.352261,1.2936 1.104869,3.30454 1.672466,4.46878 3.203637,6.57127 10.322613,11.60276 18.121023,12.80746 1.89321,0.29246 5.12866,0.0935 7.23311,-0.44468 z m -7.46831,-0.64359 c -6.76765,-1.13375 -12.030446,-4.47025 -15.576865,-9.87541 -2.782637,-4.24105 -3.67924,-7.25486 -3.662245,-12.310134 0.01338,-3.971259 0.43897,-5.966505 1.944616,-9.11616 2.337755,-4.89036 5.48006,-8.132083 10.003334,-10.319807 3.37097,-1.630408 5.25837,-2.044719 9.40796,-2.065182 3.85634,-0.01899 5.87091,0.377497 8.98455,1.76839 5.8683,2.621425 10.84209,8.681454 12.46448,15.186628 0.6174,2.47558 0.55745,7.579753 -0.1209,10.294375 -1.02826,4.11486 -3.89757,9.05885 -6.62535,11.41592 -4.69801,4.05953 -11.11875,5.9764 -16.81958,5.02138 z m 7.99677,-1.58669 c 2.12193,-0.58623 5.45534,-2.31696 7.16744,-3.72141 3.4018,-2.79049 6.01521,-6.96541 7.10504,-11.35027 0.72043,-2.898639 0.71234,-7.382761 -0.0182,-10.113546 -0.7609,-2.844101 -2.54532,-6.285107 -4.36039,-8.408362 -0.857,-1.002537 -1.67444,-1.822795 -1.81651,-1.822795 -0.16559,0 -0.21005,0.316587 -0.12385,0.881995 0.0739,0.485099 0.20725,2.012365 0.29625,3.393912 l 0.1618,2.511916 -0.79538,0.122846 c -0.43747,0.06755 -1.48335,0.188918 -2.32419,0.269673 -2.10337,0.202023 -7.2148,1.541188 -9.89264,2.591811 -3.43167,1.346374 -8.78599,4.136089 -11.92609,6.213733 -1.564905,1.035428 -2.921718,2.006278 -3.015149,2.157441 -0.199067,0.322106 -0.179388,0.310946 2.254795,-1.277817 5.017044,-3.274573 13.080194,-6.067079 21.440514,-7.425452 2.80685,-0.456056 6.44078,-0.835403 5.96015,-0.62219 -0.12936,0.05739 -2.39545,0.583501 -5.03577,1.169141 -7.40719,1.64296 -12.95197,3.52456 -18.31055,6.213626 -3.85496,1.934508 -9.554042,5.519198 -10.522316,6.618468 l -0.4704,0.53403 0.588002,-0.29853 c 0.3234,-0.1642 1.117191,-0.69033 1.76399,-1.16919 2.818699,-2.08685 4.756882,-3.12759 9.469794,-5.084976 5.08949,-2.113781 13.93252,-4.165247 20.16526,-4.678077 1.31113,-0.107882 0.88006,0.02816 -2.11679,0.668097 -7.85846,1.678048 -13.57154,3.38049 -18.31241,5.456954 -3.14508,1.377512 -9.416722,4.766122 -10.338405,5.585902 -0.697651,0.62052 -0.644148,0.60755 0.779753,-0.18901 6.151462,-3.44124 14.095682,-6.266426 20.487492,-7.285924 3.23822,-0.516496 9.63737,-1.246593 12.20515,-1.39252 l 2.23439,-0.126975 -2.70479,0.456039 c -1.48764,0.25082 -4.3453,0.723144 -6.35037,1.049607 -4.63198,0.754169 -9.96118,2.101393 -14.46473,3.656683 -5.13428,1.77314 -12.650333,5.17627 -12.270664,5.55594 0.06284,0.0628 0.463934,-0.0666 0.891368,-0.28768 1.977565,-1.02263 8.879886,-3.49631 11.849696,-4.24673 7.23927,-1.82924 12.17993,-2.5664 18.58071,-2.772285 3.13318,-0.100781 3.2911,-0.08891 1.41119,0.106065 -5.7727,0.59871 -13.53456,2.04225 -19.05111,3.5431 -5.17997,1.40927 -13.371626,4.43816 -13.002188,4.80759 0.06549,0.0655 1.82689,-0.46096 3.914254,-1.16984 6.580074,-2.23465 16.243834,-3.94827 23.787864,-4.21815 2.98101,-0.10664 3.15868,-0.0939 1.41119,0.10091 -4.30148,0.4796 -19.15122,3.41936 -23.16708,4.58633 -2.212898,0.64303 -3.418036,1.17883 -2.116792,0.94112 0.388084,-0.0709 3.298662,-0.61132 6.467972,-1.20094 4.17745,-0.77719 7.76778,-1.26283 13.05354,-1.76569 6.57472,-0.62549 11.40714,-0.87531 11.40714,-0.58973 0,0.0586 -0.11751,0.36445 -0.26115,0.67968 -0.31715,0.69608 1.49339,0.41852 -17.14357,2.6281 -8.34368,0.98921 -15.320606,1.8464 -15.504289,1.90487 -0.23816,0.0758 -0.06945,0.38039 0.588002,1.06182 2.929677,3.03633 7.256137,5.3175 11.543477,6.08643 1.74977,0.31383 6.80755,0.11237 8.42959,-0.33574 z m -7.17357,-0.27427 c -2.85483,-0.49988 -3.63209,-0.70102 -5.17438,-1.33912 -0.97019,-0.4014 -2.37079,-1.1212 -3.11244,-1.59957 l -1.34845,-0.86975 0.99565,-0.13931 c 0.54761,-0.0766 2.63617,-0.30547 4.64124,-0.50854 2.00507,-0.20308 7.39358,-0.78765 11.97447,-1.29906 4.58089,-0.51141 8.38228,-0.87645 8.44753,-0.8112 0.0652,0.0652 -0.3488,0.55313 -0.92013,1.08418 -2.64673,2.4602 -6.00757,4.31767 -9.03552,4.99377 -1.71875,0.38377 -5.45479,0.666 -6.46797,0.4886 z m 16.99759,-23.309955 c 0.22885,-0.05962 0.54636,-0.05574 0.7056,0.0087 0.15924,0.06441 -0.028,0.113217 -0.41607,0.108427 -0.38808,-0.005 -0.51837,-0.05747 -0.28953,-0.117147 z m -31.697516,4.475459 c 6.329656,-5.925322 10.422356,-8.722023 17.054126,-11.653758 3.50108,-1.547731 6.11587,-2.416315 8.75895,-2.909557 l 2.29318,-0.427945 v -1.214453 c 0,-1.583519 -0.51861,-2.235364 -2.62065,-3.293947 -5.34974,-2.694087 -10.45908,-3.125137 -15.95377,-1.345945 -3.80732,1.232819 -6.653357,3.193513 -9.073691,6.251034 -3.729969,4.711954 -5.253477,10.293257 -4.495303,16.468251 0.232396,1.892736 -0.201272,2.094006 4.037158,-1.87368 z m 5.947796,-2.630038 c 2.66763,-1.790357 4.99354,-3.04354 8.07631,-4.351448 5.20978,-2.210326 8.06899,-3.04501 12.08297,-3.527376 1.57516,-0.18929 2.34422,-0.377919 2.32846,-0.571114 -0.013,-0.158653 -0.0394,-0.658897 -0.0588,-1.111658 -0.0328,-0.765477 -0.0889,-0.822952 -0.79967,-0.819715 -2.14844,0.0097 -8.41378,2.212921 -13.20844,4.644643 -4.17295,2.116399 -11.615982,7.111822 -10.596426,7.111822 0.06961,0 1.048656,-0.618821 2.175596,-1.375154 z M 86.314394,106.4055 c -0.185441,-0.50614 -0.344622,-0.80375 -0.353731,-0.66136 -0.02304,0.35982 0.487659,1.78484 0.599547,1.67295 0.05021,-0.0502 -0.06037,-0.50545 -0.245816,-1.01159 z m -12.7642,12.01863 c -0.215137,-0.45114 -0.34572,-0.86385 -0.290194,-0.91714 0.05549,-0.0533 2.482336,-1.36863 5.392922,-2.923 l 5.291976,-2.8261 0.528024,0.62685 c 0.290425,0.34477 0.528495,0.67978 0.529056,0.74446 8.26e-4,0.12658 -10.696904,6.11517 -10.924123,6.11517 -0.07506,0 -0.312532,-0.36911 -0.527661,-0.82024 z m -1.73227,-2.84379 c -0.820151,-1.06307 -0.948315,-1.35301 -0.675396,-1.52791 0.759702,-0.48689 10.945916,-5.83208 11.249414,-5.9031 0.36407,-0.0852 1.311897,2.61736 1.015922,2.89674 -0.157529,0.14871 -10.416917,5.84631 -10.527145,5.84631 -0.02783,0 -0.506066,-0.59042 -1.062795,-1.31204 z M 52.374957,114.83439 C 45.530199,107.18907 40.895327,98.86553 38.68762,90.25395 35.974655,79.671523 36.282629,69.723172 39.64501,59.327453 l 1.160107,-3.586775 1.81319,-0.0025 c 1.418583,-0.0017 2.077859,-0.125538 3.029378,-0.568554 2.094548,-0.975227 3.605381,-2.976155 3.605381,-4.774919 0,-0.344011 0.408935,-0.670945 1.528793,-1.222248 L 52.310652,48.41984 V 47.27122 46.1226 l 1.411192,-0.514548 1.411191,-0.514547 V 43.767889 42.44225 l 1.352395,-0.465643 1.352394,-0.465635 0.06961,-1.321105 0.06962,-1.321122 1.223983,-0.207672 1.223991,-0.20768 0.06912,-1.991703 c 0.04261,-1.228467 0.177836,-2.06079 0.352798,-2.171984 0.15601,-0.09916 0.892234,-0.181907 1.636048,-0.183897 l 1.352395,-0.0033 V 31.98573 c 0,-1.164236 0.02642,-2.116225 0.0588,-2.11554 0.03237,7.76e-4 1.328876,0.215335 2.881188,0.476998 5.322936,0.897256 10.456416,2.452334 14.092079,4.26891 3.588426,1.792967 7.601552,4.363877 9.769456,6.258533 l 1.047253,0.915257 1.814719,-1.432901 c 3.455811,-2.728696 8.565876,-5.282397 13.613096,-6.802982 2.31194,-0.696528 8.19606,-1.804874 11.09964,-2.090758 l 0.8685,-0.08551 0.1437,1.538785 c 0.079,0.846337 0.16446,1.750471 0.18989,2.009194 0.0395,0.402594 0.18877,0.459153 1.03527,0.392403 1.89704,-0.149593 1.95093,-0.07911 1.95093,2.551694 v 2.324402 l 1.3524,0.07052 1.35238,0.07052 0.0306,1.763989 0.0306,1.763989 h 1.26297 1.26297 l 0.0695,1.587599 0.0695,1.58759 0.98885,0.0033 c 0.54387,0.0017 1.11515,0.0839 1.26953,0.182039 0.15436,0.09815 0.31312,0.810943 0.3528,1.583998 l 0.0721,1.405543 1.05839,0.117602 1.0584,0.117593 0.0708,1.225412 c 0.0683,1.18294 0.12349,1.271697 1.59182,2.560827 l 1.52105,1.3354 1.89496,0.14397 1.89495,0.143969 1.27675,3.847448 c 2.22454,6.703671 2.81874,10.775875 2.61311,17.90845 -0.0727,2.522502 -0.30339,5.583268 -0.51261,6.801693 -0.78183,4.553236 -2.60005,10.699352 -3.76293,12.71981 -0.33777,0.58687 -0.33844,0.586251 -0.34676,-0.322615 -0.0145,-1.585956 -0.71573,-5.745679 -1.32582,-7.864885 -0.32358,-1.124012 -1.12296,-3.10204 -1.77641,-4.39564 -0.98148,-1.942998 -1.1841,-2.556484 -1.16526,-3.527978 0.0126,-0.646799 0.33685,-5.991692 0.72066,-11.87755 l 0.69786,-10.701546 -1.51096,-1.517901 c -0.83102,-0.834849 -1.58913,-1.439731 -1.68468,-1.344177 -0.0956,0.09555 -0.35282,5.223872 -0.5717,11.396257 -0.21888,6.172385 -0.40921,11.252667 -0.42297,11.289506 -0.0138,0.03683 -0.3414,-0.293348 -0.72808,-0.733755 l -0.70306,-0.800745 0.22574,-8.791794 c 0.12415,-4.835491 0.27757,-10.352927 0.34092,-12.260976 l 0.11518,-3.469182 h -0.69626 -0.69624 l -0.007,12.05394 -0.007,12.05394 -0.71505,-0.786416 c -0.67482,-0.742162 -0.7079,-0.867915 -0.58755,-2.234389 0.0701,-0.796384 0.1937,-6.55473 0.27458,-12.796317 l 0.14707,-11.348345 h -0.67229 -0.67229 l 0.0605,5.821173 c 0.15075,14.519891 0.17942,19.345109 0.11495,19.345109 -0.0382,0 -0.33028,-0.17094 -0.64913,-0.379851 l -0.57972,-0.379851 V 59.71178 45.862107 h -0.58799 -0.588 l 0.0183,4.292371 c 0.0101,2.36081 0.0984,8.420127 0.19636,13.46514 0.098,5.045012 0.15636,9.203174 0.12975,9.24036 -0.0266,0.03716 -0.30992,-0.05153 -0.62959,-0.197217 l -0.58122,-0.264818 -0.15477,-6.014913 c -0.0851,-3.308192 -0.15477,-10.072559 -0.15477,-15.031903 v -9.017015 h -0.7407 -0.7407 l 0.15048,4.292387 c 0.34879,9.948326 0.68625,24.889739 0.56491,25.01109 -0.15565,0.155647 -1.57735,-0.54544 -1.60536,-0.791652 -0.0107,-0.0937 -0.2488,-7.632043 -0.5292,-16.751878 l -0.50982,-16.581523 -0.52919,-0.07515 c -0.65689,-0.09329 -0.6516,-1.499023 -0.0675,17.944207 0.24861,8.275671 0.4257,15.072987 0.39353,15.105152 -0.0595,0.05954 -1.77454,-0.381882 -1.82207,-0.469012 -0.0143,-0.02626 -0.25564,-8.165278 -0.53625,-18.086708 -0.28062,-9.921429 -0.55995,-18.087401 -0.62075,-18.146602 -0.27855,-0.271193 -8.76439,1.295753 -10.71087,1.977813 -5.29888,1.856776 -12.714415,6.236426 -14.130619,8.225297 0.0033,2.019871 -0.128098,26.04167 -0.148627,32.300459 -0.953046,0.877981 -2.039046,2.186038 -2.799038,3.413266 -0.04459,-7.97356 0.155911,-31.746141 0.120724,-35.688604 -0.69325,-3.304072 -10.91811,-8.960638 -20.187489,-10.958138 -1.55232,-0.334523 -3.050683,-0.65855 -3.329712,-0.720072 -0.483464,-0.106594 -0.514176,-0.0096 -0.653083,2.06273 -0.312607,4.663865 -2.265852,47.378458 -2.201077,48.134213 0.06854,0.799753 0.07325,0.80266 2.185486,1.361784 3.858133,1.021274 10.141967,3.78236 13.914506,6.113987 0.796938,0.492539 2.252227,1.558382 3.233986,2.368532 l 1.785022,1.472994 v 1.760992 c 0,0.968538 -0.09747,1.760983 -0.216582,1.760983 -0.119113,0 -1.256891,-0.601372 -2.52839,-1.336382 -2.933857,-1.69596 -6.825914,-3.540556 -9.822863,-4.655409 -2.702493,-1.00532 -8.547283,-2.538184 -11.363663,-2.980251 L 58.6616,88.094056 v -0.888865 c 0,-0.488881 -0.08241,-0.888874 -0.183146,-0.888874 -0.100739,0 -1.661871,2.973562 -3.469181,6.607928 -3.011689,6.056228 -3.535461,7.003279 -3.740432,6.763154 -0.07936,-0.09301 -0.699848,-9.829246 -1.923699,-30.186747 -0.458789,-7.631621 -0.868344,-13.909849 -0.910121,-13.951618 -0.04179,-0.04178 -0.567184,0.299022 -1.167589,0.757324 -0.600406,0.458294 -1.258873,0.926852 -1.463258,1.041234 -0.335803,0.187918 -0.24243,2.369878 0.968902,22.641129 0.737289,12.338249 1.429871,22.487339 1.539074,22.553539 0.109204,0.0662 7.611612,1.16905 16.672031,2.45076 9.723371,1.37549 16.417149,2.42154 16.335989,2.55287 -0.262844,0.42528 -2.062895,1.08223 -2.656983,0.96969 -0.328726,-0.0623 -6.895133,-0.9996 -14.592009,-2.08295 -12.492357,-1.75833 -14.050615,-1.93358 -14.518636,-1.63286 -0.636799,0.40916 -1.143451,1.34427 -1.363304,2.51617 l -0.163937,0.87387 2.907357,0.008 c 3.556964,0.01 7.199126,0.32342 9.717094,0.83704 1.040953,0.21232 4.506658,0.8246 7.701592,1.36058 l 5.808967,0.97453 -1.967606,1.11919 -1.967607,1.11918 -0.783774,-0.73525 c -0.875834,-0.82163 -2.883401,-1.855 -3.6106,-1.85851 -0.261167,-8.3e-4 -1.266635,0.40743 -2.234389,0.90822 -5.249893,2.71668 -9.262442,4.73425 -9.415487,4.73425 -0.09536,0 -0.907752,-0.82025 -1.805313,-1.82279 z M 82.770851,94.551647 C 82.449178,94.031163 77.166294,90.723243 74.419348,89.322283 71.572786,87.870521 65.65947,85.706448 62.799811,85.069928 l -1.388391,-0.30903 0.04575,-1.985774 c 0.0251,-1.092177 0.517611,-11.862107 1.094382,-23.933191 0.576779,-12.071076 1.048682,-22.15229 1.048682,-22.402688 0,-0.325778 -0.163153,-0.455272 -0.573583,-0.455272 -0.498775,0 -0.589588,0.130386 -0.696248,0.999597 -0.09399,0.765978 -2.059163,48.820958 -2.029451,49.626955 0.0033,0.09702 0.269244,0.176399 0.590372,0.176399 0.321137,0 2.42718,0.468649 4.680092,1.041448 5.805128,1.475917 13.695662,4.671421 16.112049,6.525034 0.59398,0.455643 1.329363,0.589703 1.08742,0.198241 z M 51.851781,72.523258 C 51.457363,61.795684 51.134657,52.678491 51.134657,52.262833 c 0,-0.649317 -0.08279,-0.755738 -0.587994,-0.755738 -0.417342,0 -0.587994,0.127512 -0.587994,0.439342 0,0.241637 0.262415,5.295469 0.583147,11.230742 0.320732,5.935274 0.800612,15.130826 1.066395,20.434562 0.459467,9.168642 0.726794,12.021026 0.890368,9.500076 0.03873,-0.596128 -0.25238,-9.860984 -0.646798,-20.588559 z m 1.644702,-0.952385 c -0.15269,-11.229124 -0.325224,-20.65472 -0.383402,-20.945772 -0.120137,-0.600934 -0.971932,-0.738859 -1.182015,-0.191396 -0.07127,0.185805 -0.01965,2.540728 0.114753,5.233179 0.134407,2.692452 0.467724,11.669093 0.740692,19.948092 0.483464,14.663112 0.592998,16.767066 0.859029,16.501035 0.07069,-0.07069 0.0033,-9.316023 -0.149057,-20.545138 z m 1.855224,-3.305864 0.01652,-20.991496 h -0.705596 -0.705596 l -0.0041,2.05799 c -0.0074,4.215398 0.723334,37.404064 0.861342,39.101816 0.377687,4.646053 0.521822,-0.766383 0.537099,-20.16831 z m 1.993421,-0.0588 c 0.198662,-9.637273 0.390793,-19.056989 0.426954,-20.9327 l 0.06573,-3.410385 -0.646791,-0.0744 -0.646798,-0.0744 v 21.230557 c 0,13.167506 0.08349,21.145709 0.219835,21.007132 0.125613,-0.127677 0.374665,-7.733808 0.581057,-17.745762 z m 1.457931,9.937326 c 0.460722,-10.712809 1.504358,-36.347592 1.504358,-36.951408 0,-0.625386 -0.08777,-0.739379 -0.569281,-0.739379 -0.528098,0 -0.578373,0.10633 -0.695058,1.469988 -0.0692,0.808498 -0.238962,8.190803 -0.377291,16.405125 -0.13833,8.214313 -0.308552,16.840238 -0.378266,19.168702 -0.09452,3.156906 -0.0602,4.128945 0.134961,3.822161 0.143945,-0.226285 0.315207,-1.655116 0.380577,-3.175189 z m 19.849863,27.670335 c -3.299439,-0.69335 -20.437526,-3.83575 -22.413556,-4.1097 -0.620431,-0.086 -1.085892,-0.19854 -1.034371,-0.25007 0.281738,-0.28174 18.986176,2.26079 23.683131,3.21928 3.363033,0.68629 3.64558,0.78673 3.64558,1.29595 0,0.61689 -0.253735,0.60673 -3.880784,-0.15546 z m 1.175995,-1.65593 c -5.717146,-1.34657 -24.270983,-5.375877 -24.754406,-5.375877 -0.269648,0 -0.425212,-0.06507 -0.345696,-0.144573 0.316058,-0.316058 13.161138,1.344418 18.610082,2.40573 3.179301,0.61923 9.758029,2.35685 10.086193,2.66402 0.102185,0.0956 -0.0033,0.39198 -0.235195,0.65853 l -0.420993,0.48462 z m 0.235205,-2.46695 C 74.604046,99.751456 65.07587,97.437237 58.45046,96.441439 c -0.956655,-0.143788 -1.909206,-0.36853 -2.116796,-0.499419 -0.286957,-0.180957 -0.208307,-0.207961 0.328165,-0.112688 0.388084,0.06895 2.557788,0.337487 4.821576,0.596796 2.263795,0.259326 5.068539,0.638475 6.232775,0.842571 6.218581,1.090138 17.051916,4.254701 17.051916,4.981091 0,0.28761 -0.519626,0.76855 -0.811439,0.75103 -0.135827,-0.008 -1.887471,-0.59758 -3.892535,-1.30983 z m 1.293589,-3.856242 c -4.36865,-2.351116 -9.195032,-4.121671 -15.758326,-5.780924 -3.233986,-0.817565 -5.644675,-1.490369 -5.35709,-1.495109 1.085777,-0.01784 8.736342,1.407484 10.766668,2.005924 1.164236,0.343161 2.475085,0.727157 2.912998,0.853323 1.727456,0.497709 5.218876,1.911741 7.847353,3.178186 2.558581,1.232769 2.763577,1.380687 2.763577,1.993933 0,0.379868 -0.125389,0.656981 -0.293992,0.649714 -0.1617,-0.0066 -1.458237,-0.639243 -2.881188,-1.405047 z M 58.018699,93.209509 c 0.228845,-0.05962 0.546357,-0.05574 0.705596,0.0087 0.159238,0.06441 -0.02799,0.113225 -0.416071,0.108428 -0.388076,-0.005 -0.518362,-0.05748 -0.289525,-0.11714 z m 0.818722,-2.815165 c 0.1617,-0.06524 0.426302,-0.06524 0.587993,0 0.161708,0.06524 0.0294,0.118626 -0.293992,0.118626 -0.3234,0 -0.455701,-0.05335 -0.294001,-0.118626 z"
       id="path6"
       sodipodi:nodetypes="sssssssscssssscssssssssscscssssssssssscsssssssssssssssssssscssssscscssssssssssssssssssssssssssssscssssssscsscssssssssssssssssscsssscsssssssssssssscsssssssssssssssssssssssssssssssssscssssssssssscsssssssssscsssssssssssssssssssssssssssscssssssssssssssscsssssssssssssssssssssscsssssssssscssccssscccccccccccccssccscssscssscsssscccccccccssscccsscccssssssssscssssscsscccccssscccssscccccsssscsscccsssscsssssssccccssssssscssssscsssssssssssssssscssscccscssccssscssssscsssssssssssscsssssccccccsccsscccssssssssssssssssssssssccssssssssssssssssssssssssssss" /><ellipse
       style="fill:#ffffff;fill-opacity:1;stroke:none;stroke-width:0.154562;stroke-linecap:round;stroke-linejoin:round;paint-order:fill markers stroke"
       id="path4"
       cx="90.599518"
       cy="78.199371"
       rx="58.640953"
       ry="59.892265" /><path
       style="fill:#ffffff;fill-opacity:1;stroke:none;stroke-width:0.155109;stroke-linecap:round;stroke-linejoin:round;paint-order:fill markers stroke"
       d="m 21.740986,133.72038 6.525637,-3.71669 19.237351,-8.97144 -0.89169,-1.67471 2.271905,-2.791 14.344162,9.51385 -2.073837,3.96857 -28.442012,16.43724 -2.060699,2.09056 -3.275218,0.92394 -6.053553,-2.42203 -2.085563,-4.93104 -0.106908,-4.58202 z"
       id="path5" /><path
       style="fill:url(#linearGradient2);fill-opacity:1;stroke-width:0.235199"
       d="m 24.557192,149.20711 c -2.337581,-0.62691 -4.131985,-2.27343 -5.483611,-5.03167 -0.704027,-1.43668 -0.749165,-1.68467 -0.749165,-4.11598 0,-2.35909 0.05624,-2.69373 0.637434,-3.79567 0.543657,-1.0307 2.579796,-3.13644 3.037355,-3.14117 0.08076,-7.8e-4 0.19839,1.18918 0.26144,2.64447 0.0886,2.04487 0.248821,3.0062 0.705281,4.23159 1.301534,3.49404 3.590434,6.26109 6.405327,7.74347 l 1.636717,0.86194 -0.900749,0.16895 c -1.971496,0.36986 -4.891034,-0.85915 -6.81797,-2.87006 -1.323615,-1.38133 -2.179754,-2.95072 -2.995263,-5.49068 -0.628797,-1.95841 -0.642199,-1.97762 -0.656147,-0.94083 -0.03245,2.4107 1.134722,5.17443 2.95717,7.00236 1.15099,1.15443 3.698431,2.63506 4.549367,2.64421 0.194038,0 0.511558,0.10637 0.705596,0.23177 0.560007,0.36192 -1.791224,0.26004 -3.292782,-0.1427 z m 5.681563,-1.96984 c -3.717714,-2.04941 -5.886163,-4.86656 -6.966094,-9.05001 -0.441241,-1.70929 -0.481754,-5.05287 -0.06788,-5.60033 0.1617,-0.21388 2.516631,-1.43967 5.233171,-2.72397 2.716549,-1.2843 7.865529,-3.77063 11.442189,-5.52517 3.576651,-1.75455 8.815709,-4.26516 11.642345,-5.57913 2.826636,-1.31397 7.114399,-3.38273 9.528374,-4.59724 2.413976,-1.21452 4.530771,-2.20544 4.703983,-2.20205 0.173211,0.003 0.720798,0.18862 1.216864,0.4116 l 0.901929,0.40543 0.0749,1.99919 c 0.110401,2.94624 1.028781,5.26799 2.907317,7.34996 1.164038,1.29009 1.330494,1.07719 0.352781,-0.45123 -1.469146,-2.29664 -2.617676,-5.83215 -2.397336,-7.37969 0.07944,-0.55814 0.09865,-0.55184 1.120337,0.36815 2.798492,2.51993 4.623079,7.58784 3.304038,9.17719 -0.77355,0.93207 -3.455432,-0.0888 -4.773721,-1.8172 -0.896173,-1.17494 -1.743055,-3.15784 -2.123162,-4.97116 -0.38294,-1.82687 -0.623676,-2.24791 -0.617739,-1.08042 0.0066,1.25964 0.617177,3.8322 1.164591,4.90524 0.675198,1.32348 1.991671,2.73928 3.212251,3.45459 l 1.009894,0.59183 -2.048609,1.07778 c -1.126745,0.59278 -6.12344,3.51678 -11.103776,6.49778 -6.905636,4.1334 -26.312425,15.4633 -26.439986,15.43596 -0.01098,-0.004 -0.58545,-0.31604 -1.276685,-0.6971 z m 10.031079,-6.66918 c 7.412876,-4.43131 15.115557,-8.99581 24.447556,-14.48726 1.584651,-0.9325 2.881188,-1.80595 2.881188,-1.94102 0,-0.14323 -0.220546,-0.10469 -0.529196,0.0925 -0.909271,0.58085 -35.318424,19.90692 -35.70726,20.05516 -0.52316,0.19946 -2.464448,-1.57713 -3.537533,-3.23739 -0.485347,-0.75092 -1.173584,-2.12772 -1.529421,-3.05954 -1.137538,-2.97888 -1.434355,-2.63819 -0.441034,0.50623 0.60896,1.9277 1.926457,4.15557 3.095012,5.23364 0.554144,0.51123 2.609202,1.84648 2.853532,1.85404 0.03956,0 3.849775,-2.25614 8.467156,-5.01634 z m -7.317636,-8.7881 c 2.56219,-1.37164 10.53262,-5.54053 17.712067,-9.2642 15.078115,-7.82039 14.447403,-7.48312 14.289593,-7.64094 -0.06672,-0.0666 -7.198729,3.33848 -15.848982,7.56704 -8.650253,4.22857 -17.238067,8.41466 -19.084033,9.30242 l -3.356295,1.61414 0.388505,0.59293 c 0.264025,0.40297 0.52501,0.54961 0.814552,0.45771 0.234329,-0.0744 2.522395,-1.25747 5.084593,-2.6291 z m 52.756696,6.38031 c -5.127442,-0.60647 -12.07555,-2.2502 -15.953097,-3.77405 -2.408427,-0.9465 -7.331882,-3.32598 -7.329264,-3.5422 8.26e-4,-0.10589 1.242316,-0.89839 2.757847,-1.76112 l 2.755526,-1.56857 0.828929,0.35219 c 5.6446,2.3983 10.730465,3.60369 18.305088,4.33844 5.476385,0.53123 13.615017,-0.27737 19.286527,-1.91616 5.57774,-1.6117 9.6661,-3.46295 14.63184,-6.62546 1.68352,-1.07218 3.96318,-2.47237 5.06591,-3.11153 2.44434,-1.41678 5.35993,-4.07674 7.23369,-6.59945 0.76866,-1.03487 2.08834,-3.31042 2.93263,-5.05677 0.84429,-1.74635 2.24479,-4.44526 3.11223,-5.99757 2.5835,-4.623288 4.17615,-8.622558 5.52617,-13.876737 1.21121,-4.713969 1.58095,-7.635274 1.59261,-12.58314 0.0297,-12.605111 -3.78192,-24.013772 -11.40935,-34.149744 -6.12275,-8.136416 -13.84753,-14.126589 -23.73005,-18.401453 -10.00637,-4.328442 -21.324907,-5.303867 -32.663208,-2.814893 -5.829323,1.27965 -12.839069,4.082544 -17.875113,7.147481 -5.185035,3.155625 -11.766917,9.052086 -15.508811,13.893754 -5.883347,7.612529 -9.713353,17.226035 -10.846969,27.226436 -0.427499,3.77125 -0.17369,12.867459 0.457295,16.388776 2.048609,11.432593 6.322317,20.24319 14.362263,29.60896 1.19465,1.39165 2.135772,2.56502 2.091377,2.60749 -0.168826,0.16154 -4.271982,2.00498 -4.462725,2.00498 -0.110145,0 -1.204461,-1.26073 -2.431821,-2.80164 C 35.565365,106.00858 31.143896,93.777519 30.742195,79.260564 30.482877,69.889174 32.115911,61.709545 36.036681,52.741285 39.418229,45.006397 46.39538,35.929933 53.13385,30.499818 59.137607,25.661767 66.977371,21.601239 74.562508,19.401063 79.3239,18.019955 85.361292,17.168061 90.387896,17.168061 c 2.906886,0 9.044324,0.62039 11.869524,1.199795 6.51815,1.336795 14.92897,4.845962 20.29725,8.468436 14.16578,9.558971 23.95575,24.81455 26.94032,41.980764 0.46083,2.650551 0.52736,3.853558 0.52559,9.502709 -0.002,6.901136 -0.15809,8.452757 -1.41047,14.036719 -3.09318,13.791476 -11.70613,26.805156 -23.03502,34.804566 -9.06587,6.40149 -18.93651,10.09147 -29.483442,11.0219 -4.653187,0.41051 -6.759545,0.40591 -10.382754,-0.0226 z m 0.823189,-8.7241 c -4.725691,-0.39101 -10.562289,-1.65256 -14.309402,-3.09291 l -1.138256,-0.43753 1.318553,-0.64511 c 1.695993,-0.82978 2.128257,-1.59377 2.086488,-3.68764 l -0.03097,-1.55214 5.188933,-2.79903 c 2.853911,-1.53948 5.369097,-2.88739 5.589288,-2.99537 0.625979,-0.30695 2.752585,1.09903 2.937795,1.94228 0.161617,0.73582 0.31965,0.78383 3.602829,1.09462 1.185087,0.11219 1.927002,0.31678 2.394057,0.66019 3.322074,2.44261 4.321158,3.1115 5.649423,3.78236 3.385029,1.70965 6.772459,2.58399 11.113149,2.86845 2.19857,0.14408 2.3099,0.17527 1.72313,0.48271 -1.53654,0.80507 -6.12104,2.41052 -8.4851,2.97139 -5.283357,1.25348 -7.843417,1.56759 -12.430119,1.52511 -2.347953,-0.0217 -4.692355,-0.0746 -5.209801,-0.11738 z m 20.527197,-6.17524 c -6.18569,-1.34513 -10.701031,-3.88449 -15.069153,-8.47464 -1.111946,-1.16846 -2.522163,-2.83957 -3.133824,-3.71359 -1.448386,-2.06964 -1.618632,-2.23946 -1.183131,-1.18012 0.405046,0.98527 1.457544,2.60225 2.704426,4.15492 l 0.83191,1.03594 -1.280311,-0.16943 c -1.821192,-0.24101 -3.011391,-0.84234 -4.172919,-2.10835 -1.300029,-1.41695 -1.952798,-2.93073 -2.102796,-4.8764 -0.134201,-1.74079 0.13491,-2.80607 0.973328,-3.8528 l 0.563203,-0.70316 0.2749,1.02089 c 0.151186,0.5615 0.326478,0.96931 0.389528,0.90626 0.164887,-0.16488 -0.658813,-3.28978 -0.955109,-3.62345 -0.420976,-0.47407 -5.263866,-2.55006 -8.363197,-3.585042 -4.718467,-1.575657 -8.278908,-2.576179 -13.053537,-3.668191 -2.457826,-0.562121 -4.280207,-1.028632 -4.049727,-1.036675 0.774121,-0.027 8.490403,1.185377 11.340896,1.781909 1.552304,0.324853 4.409973,1.123335 6.35037,1.774403 2.944502,0.987986 4.336997,1.565756 7.735953,3.209776 0.117156,0.0567 0.134919,-0.19613 0.0403,-0.573198 -0.433281,-1.726325 -0.05442,-6.324588 0.805953,-9.781416 2.361001,-9.486253 10.525452,-17.402304 19.947827,-19.340917 5.34311,-1.09932 11.25407,-0.440101 16.52471,1.842911 7.41014,3.209749 13.77863,11.467953 15.38855,19.954791 0.45236,2.384652 0.45718,7.061969 0.01,9.612259 -1.79769,10.25008 -9.01499,18.2582 -18.96571,21.04384 -3.04776,0.85319 -8.48024,1.01754 -11.55234,0.34948 z m 9.5202,-4.00175 c 5.50432,-1.40776 9.95473,-4.25351 13.01164,-8.3201 1.41386,-1.88084 3.23951,-5.67569 3.86845,-8.04106 0.75685,-2.84635 0.88058,-7.350266 0.28109,-10.231148 -1.82711,-8.780236 -7.65166,-15.21734 -16.27993,-17.992016 -3.53655,-1.13729 -9.52246,-1.021629 -13.33419,0.257641 -6.941386,2.329637 -12.68457,8.622522 -14.682615,16.087979 -0.444569,1.661062 -0.534771,2.595883 -0.533301,5.527172 0.0017,3.104294 0.0787,3.810432 0.642257,5.879972 0.352261,1.2936 1.104869,3.30454 1.672466,4.46878 3.203637,6.57127 10.322613,11.60276 18.121023,12.80746 1.89321,0.29246 5.12866,0.0935 7.23311,-0.44468 z m -7.46831,-0.64359 c -6.76765,-1.13375 -12.030446,-4.47025 -15.576865,-9.87541 -2.782637,-4.24105 -3.67924,-7.25486 -3.662245,-12.310134 0.01338,-3.971259 0.43897,-5.966505 1.944616,-9.11616 2.337755,-4.89036 5.48006,-8.132083 10.003334,-10.319807 3.37097,-1.630408 5.25837,-2.044719 9.40796,-2.065182 3.85634,-0.01899 5.87091,0.377497 8.98455,1.76839 5.8683,2.621425 10.84209,8.681454 12.46448,15.186628 0.6174,2.47558 0.55745,7.579753 -0.1209,10.294375 -1.02826,4.11486 -3.89757,9.05885 -6.62535,11.41592 -4.69801,4.05953 -11.11875,5.9764 -16.81958,5.02138 z m 7.99677,-1.58669 c 2.12193,-0.58623 5.45534,-2.31696 7.16744,-3.72141 3.4018,-2.79049 6.01521,-6.96541 7.10504,-11.35027 0.72043,-2.898639 0.71234,-7.382761 -0.0182,-10.113546 -0.7609,-2.844101 -2.54532,-6.285107 -4.36039,-8.408362 -0.857,-1.002537 -1.67444,-1.822795 -1.81651,-1.822795 -0.16559,0 -0.21005,0.316587 -0.12385,0.881995 0.0739,0.485099 0.20725,2.012365 0.29625,3.393912 l 0.1618,2.511916 -0.79538,0.122846 c -0.43747,0.06755 -1.48335,0.188918 -2.32419,0.269673 -2.10337,0.202023 -7.2148,1.541188 -9.89264,2.591811 -3.43167,1.346374 -8.78599,4.136089 -11.92609,6.213733 -1.564905,1.035428 -2.921718,2.006278 -3.015149,2.157441 -0.199067,0.322106 -0.179388,0.310946 2.254795,-1.277817 5.017044,-3.274573 13.080194,-6.067079 21.440514,-7.425452 2.80685,-0.456056 6.44078,-0.835403 5.96015,-0.62219 -0.12936,0.05739 -2.39545,0.583501 -5.03577,1.169141 -7.40719,1.64296 -12.95197,3.52456 -18.31055,6.213626 -3.85496,1.934508 -9.554042,5.519198 -10.522316,6.618468 l -0.4704,0.53403 0.588002,-0.29853 c 0.3234,-0.1642 1.117191,-0.69033 1.76399,-1.16919 2.818699,-2.08685 4.756882,-3.12759 9.469794,-5.084976 5.08949,-2.113781 13.93252,-4.165247 20.16526,-4.678077 1.31113,-0.107882 0.88006,0.02816 -2.11679,0.668097 -7.85846,1.678048 -13.57154,3.38049 -18.31241,5.456954 -3.14508,1.377512 -9.416722,4.766122 -10.338405,5.585902 -0.697651,0.62052 -0.644148,0.60755 0.779753,-0.18901 6.151462,-3.44124 14.095682,-6.266426 20.487492,-7.285924 3.23822,-0.516496 9.63737,-1.246593 12.20515,-1.39252 l 2.23439,-0.126975 -2.70479,0.456039 c -1.48764,0.25082 -4.3453,0.723144 -6.35037,1.049607 -4.63198,0.754169 -9.96118,2.101393 -14.46473,3.656683 -5.13428,1.77314 -12.650333,5.17627 -12.270664,5.55594 0.06284,0.0628 0.463934,-0.0666 0.891368,-0.28768 1.977565,-1.02263 8.879886,-3.49631 11.849696,-4.24673 7.23927,-1.82924 12.17993,-2.5664 18.58071,-2.772285 3.13318,-0.100781 3.2911,-0.08891 1.41119,0.106065 -5.7727,0.59871 -13.53456,2.04225 -19.05111,3.5431 -5.17997,1.40927 -13.371626,4.43816 -13.002188,4.80759 0.06549,0.0655 1.82689,-0.46096 3.914254,-1.16984 6.580074,-2.23465 16.243834,-3.94827 23.787864,-4.21815 2.98101,-0.10664 3.15868,-0.0939 1.41119,0.10091 -4.30148,0.4796 -19.15122,3.41936 -23.16708,4.58633 -2.212898,0.64303 -3.418036,1.17883 -2.116792,0.94112 0.388084,-0.0709 3.298662,-0.61132 6.467972,-1.20094 4.17745,-0.77719 7.76778,-1.26283 13.05354,-1.76569 6.57472,-0.62549 11.40714,-0.87531 11.40714,-0.58973 0,0.0586 -0.11751,0.36445 -0.26115,0.67968 -0.31715,0.69608 1.49339,0.41852 -17.14357,2.6281 -8.34368,0.98921 -15.320606,1.8464 -15.504289,1.90487 -0.23816,0.0758 -0.06945,0.38039 0.588002,1.06182 2.929677,3.03633 7.256137,5.3175 11.543477,6.08643 1.74977,0.31383 6.80755,0.11237 8.42959,-0.33574 z m -7.17357,-0.27427 c -2.85483,-0.49988 -3.63209,-0.70102 -5.17438,-1.33912 -0.97019,-0.4014 -2.37079,-1.1212 -3.11244,-1.59957 l -1.34845,-0.86975 0.99565,-0.13931 c 0.54761,-0.0766 2.63617,-0.30547 4.64124,-0.50854 2.00507,-0.20308 7.39358,-0.78765 11.97447,-1.29906 4.58089,-0.51141 8.38228,-0.87645 8.44753,-0.8112 0.0652,0.0652 -0.3488,0.55313 -0.92013,1.08418 -2.64673,2.4602 -6.00757,4.31767 -9.03552,4.99377 -1.71875,0.38377 -5.45479,0.666 -6.46797,0.4886 z m 16.99759,-23.309955 c 0.22885,-0.05962 0.54636,-0.05574 0.7056,0.0087 0.15924,0.06441 -0.028,0.113217 -0.41607,0.108427 -0.38808,-0.005 -0.51837,-0.05747 -0.28953,-0.117147 z m -31.697516,4.475459 c 6.329656,-5.925322 10.422356,-8.722023 17.054126,-11.653758 3.50108,-1.547731 6.11587,-2.416315 8.75895,-2.909557 l 2.29318,-0.427945 v -1.214453 c 0,-1.583519 -0.51861,-2.235364 -2.62065,-3.293947 -5.34974,-2.694087 -10.45908,-3.125137 -15.95377,-1.345945 -3.80732,1.232819 -6.653357,3.193513 -9.073691,6.251034 -3.729969,4.711954 -5.253477,10.293257 -4.495303,16.468251 0.232396,1.892736 -0.201272,2.094006 4.037158,-1.87368 z m 5.947796,-2.630038 c 2.66763,-1.790357 4.99354,-3.04354 8.07631,-4.351448 5.20978,-2.210326 8.06899,-3.04501 12.08297,-3.527376 1.57516,-0.18929 2.34422,-0.377919 2.32846,-0.571114 -0.013,-0.158653 -0.0394,-0.658897 -0.0588,-1.111658 -0.0328,-0.765477 -0.0889,-0.822952 -0.79967,-0.819715 -2.14844,0.0097 -8.41378,2.212921 -13.20844,4.644643 -4.17295,2.116399 -11.615982,7.111822 -10.596426,7.111822 0.06961,0 1.048656,-0.618821 2.175596,-1.375154 z M 86.314394,106.4055 c -0.185441,-0.50614 -0.344622,-0.80375 -0.353731,-0.66136 -0.02304,0.35982 0.487659,1.78484 0.599547,1.67295 0.05021,-0.0502 -0.06037,-0.50545 -0.245816,-1.01159 z m -12.7642,12.01863 c -0.215137,-0.45114 -0.34572,-0.86385 -0.290194,-0.91714 0.05549,-0.0533 2.482336,-1.36863 5.392922,-2.923 l 5.291976,-2.8261 0.528024,0.62685 c 0.290425,0.34477 0.528495,0.67978 0.529056,0.74446 8.26e-4,0.12658 -10.696904,6.11517 -10.924123,6.11517 -0.07506,0 -0.312532,-0.36911 -0.527661,-0.82024 z m -1.73227,-2.84379 c -0.820151,-1.06307 -0.948315,-1.35301 -0.675396,-1.52791 0.759702,-0.48689 10.945916,-5.83208 11.249414,-5.9031 0.36407,-0.0852 1.311897,2.61736 1.015922,2.89674 -0.157529,0.14871 -10.416917,5.84631 -10.527145,5.84631 -0.02783,0 -0.506066,-0.59042 -1.062795,-1.31204 z M 52.374957,114.83439 C 45.530199,107.18907 40.895327,98.86553 38.68762,90.25395 35.974655,79.671523 36.282629,69.723172 39.64501,59.327453 l 1.160107,-3.586775 1.81319,-0.0025 c 1.418583,-0.0017 2.077859,-0.125538 3.029378,-0.568554 2.094548,-0.975227 3.605381,-2.976155 3.605381,-4.774919 0,-0.344011 0.408935,-0.670945 1.528793,-1.222248 L 52.310652,48.41984 V 47.27122 46.1226 l 1.411192,-0.514548 1.411191,-0.514547 V 43.767889 42.44225 l 1.352395,-0.465643 1.352394,-0.465635 0.06961,-1.321105 0.06962,-1.321122 1.223983,-0.207672 1.223991,-0.20768 0.06912,-1.991703 c 0.04261,-1.228467 0.177836,-2.06079 0.352798,-2.171984 0.15601,-0.09916 0.892234,-0.181907 1.636048,-0.183897 l 1.352395,-0.0033 V 31.98573 c 0,-1.164236 0.02642,-2.116225 0.0588,-2.11554 0.03237,7.76e-4 1.328876,0.215335 2.881188,0.476998 5.322936,0.897256 10.456416,2.452334 14.092079,4.26891 3.588426,1.792967 7.601552,4.363877 9.769456,6.258533 l 1.047253,0.915257 1.814719,-1.432901 c 3.455811,-2.728696 8.565876,-5.282397 13.613096,-6.802982 2.31194,-0.696528 8.19606,-1.804874 11.09964,-2.090758 l 0.8685,-0.08551 0.1437,1.538785 c 0.079,0.846337 0.16446,1.750471 0.18989,2.009194 0.0395,0.402594 0.18877,0.459153 1.03527,0.392403 1.89704,-0.149593 1.95093,-0.07911 1.95093,2.551694 v 2.324402 l 1.3524,0.07052 1.35238,0.07052 0.0306,1.763989 0.0306,1.763989 h 1.26297 1.26297 l 0.0695,1.587599 0.0695,1.58759 0.98885,0.0033 c 0.54387,0.0017 1.11515,0.0839 1.26953,0.182039 0.15436,0.09815 0.31312,0.810943 0.3528,1.583998 l 0.0721,1.405543 1.05839,0.117602 1.0584,0.117593 0.0708,1.225412 c 0.0683,1.18294 0.12349,1.271697 1.59182,2.560827 l 1.52105,1.3354 1.89496,0.14397 1.89495,0.143969 1.27675,3.847448 c 2.22454,6.703671 2.81874,10.775875 2.61311,17.90845 -0.0727,2.522502 -0.30339,5.583268 -0.51261,6.801693 -0.78183,4.553236 -2.60005,10.699352 -3.76293,12.71981 -0.33777,0.58687 -0.33844,0.586251 -0.34676,-0.322615 -0.0145,-1.585956 -0.71573,-5.745679 -1.32582,-7.864885 -0.32358,-1.124012 -1.12296,-3.10204 -1.77641,-4.39564 -0.98148,-1.942998 -1.1841,-2.556484 -1.16526,-3.527978 0.0126,-0.646799 0.33685,-5.991692 0.72066,-11.87755 l 0.69786,-10.701546 -1.51096,-1.517901 c -0.83102,-0.834849 -1.58913,-1.439731 -1.68468,-1.344177 -0.0956,0.09555 -0.35282,5.223872 -0.5717,11.396257 -0.21888,6.172385 -0.40921,11.252667 -0.42297,11.289506 -0.0138,0.03683 -0.3414,-0.293348 -0.72808,-0.733755 l -0.70306,-0.800745 0.22574,-8.791794 c 0.12415,-4.835491 0.27757,-10.352927 0.34092,-12.260976 l 0.11518,-3.469182 h -0.69626 -0.69624 l -0.007,12.05394 -0.007,12.05394 -0.71505,-0.786416 c -0.67482,-0.742162 -0.7079,-0.867915 -0.58755,-2.234389 0.0701,-0.796384 0.1937,-6.55473 0.27458,-12.796317 l 0.14707,-11.348345 h -0.67229 -0.67229 l 0.0605,5.821173 c 0.15075,14.519891 0.17942,19.345109 0.11495,19.345109 -0.0382,0 -0.33028,-0.17094 -0.64913,-0.379851 l -0.57972,-0.379851 V 59.71178 45.862107 h -0.58799 -0.588 l 0.0183,4.292371 c 0.0101,2.36081 0.0984,8.420127 0.19636,13.46514 0.098,5.045012 0.15636,9.203174 0.12975,9.24036 -0.0266,0.03716 -0.30992,-0.05153 -0.62959,-0.197217 l -0.58122,-0.264818 -0.15477,-6.014913 c -0.0851,-3.308192 -0.15477,-10.072559 -0.15477,-15.031903 v -9.017015 h -0.7407 -0.7407 l 0.15048,4.292387 c 0.34879,9.948326 0.68625,24.889739 0.56491,25.01109 -0.15565,0.155647 -1.57735,-0.54544 -1.60536,-0.791652 -0.0107,-0.0937 -0.2488,-7.632043 -0.5292,-16.751878 l -0.50982,-16.581523 -0.52919,-0.07515 c -0.65689,-0.09329 -0.6516,-1.499023 -0.0675,17.944207 0.24861,8.275671 0.4257,15.072987 0.39353,15.105152 -0.0595,0.05954 -1.77454,-0.381882 -1.82207,-0.469012 -0.0143,-0.02626 -0.25564,-8.165278 -0.53625,-18.086708 -0.28062,-9.921429 -0.55995,-18.087401 -0.62075,-18.146602 -0.27855,-0.271193 -8.76439,1.295753 -10.71087,1.977813 -5.29888,1.856776 -12.714415,6.236426 -14.130619,8.225297 0.0033,2.019871 -0.128098,26.04167 -0.148627,32.300459 -0.953046,0.877981 -2.039046,2.186038 -2.799038,3.413266 -0.04459,-7.97356 0.155911,-31.746141 0.120724,-35.688604 -0.69325,-3.304072 -10.91811,-8.960638 -20.187489,-10.958138 -1.55232,-0.334523 -3.050683,-0.65855 -3.329712,-0.720072 -0.483464,-0.106594 -0.514176,-0.0096 -0.653083,2.06273 -0.312607,4.663865 -2.265852,47.378458 -2.201077,48.134213 0.06854,0.799753 0.07325,0.80266 2.185486,1.361784 3.858133,1.021274 10.141967,3.78236 13.914506,6.113987 0.796938,0.492539 2.252227,1.558382 3.233986,2.368532 l 1.785022,1.472994 v 1.760992 c 0,0.968538 -0.09747,1.760983 -0.216582,1.760983 -0.119113,0 -1.256891,-0.601372 -2.52839,-1.336382 -2.933857,-1.69596 -6.825914,-3.540556 -9.822863,-4.655409 -2.702493,-1.00532 -8.547283,-2.538184 -11.363663,-2.980251 L 58.6616,88.094056 v -0.888865 c 0,-0.488881 -0.08241,-0.888874 -0.183146,-0.888874 -0.100739,0 -1.661871,2.973562 -3.469181,6.607928 -3.011689,6.056228 -3.535461,7.003279 -3.740432,6.763154 -0.07936,-0.09301 -0.699848,-9.829246 -1.923699,-30.186747 -0.458789,-7.631621 -0.868344,-13.909849 -0.910121,-13.951618 -0.04179,-0.04178 -0.567184,0.299022 -1.167589,0.757324 -0.600406,0.458294 -1.258873,0.926852 -1.463258,1.041234 -0.335803,0.187918 -0.24243,2.369878 0.968902,22.641129 0.737289,12.338249 1.429871,22.487339 1.539074,22.553539 0.109204,0.0662 7.611612,1.16905 16.672031,2.45076 9.723371,1.37549 16.417149,2.42154 16.335989,2.55287 -0.262844,0.42528 -2.062895,1.08223 -2.656983,0.96969 -0.328726,-0.0623 -6.895133,-0.9996 -14.592009,-2.08295 -12.492357,-1.75833 -14.050615,-1.93358 -14.518636,-1.63286 -0.636799,0.40916 -1.143451,1.34427 -1.363304,2.51617 l -0.163937,0.87387 2.907357,0.008 c 3.556964,0.01 7.199126,0.32342 9.717094,0.83704 1.040953,0.21232 4.506658,0.8246 7.701592,1.36058 l 5.808967,0.97453 -1.967606,1.11919 -1.967607,1.11918 -0.783774,-0.73525 c -0.875834,-0.82163 -2.883401,-1.855 -3.6106,-1.85851 -0.261167,-8.3e-4 -1.266635,0.40743 -2.234389,0.90822 -5.249893,2.71668 -9.262442,4.73425 -9.415487,4.73425 -0.09536,0 -0.907752,-0.82025 -1.805313,-1.82279 z M 82.770851,94.551647 C 82.449178,94.031163 77.166294,90.723243 74.419348,89.322283 71.572786,87.870521 65.65947,85.706448 62.799811,85.069928 l -1.388391,-0.30903 0.04575,-1.985774 c 0.0251,-1.092177 0.517611,-11.862107 1.094382,-23.933191 0.576779,-12.071076 1.048682,-22.15229 1.048682,-22.402688 0,-0.325778 -0.163153,-0.455272 -0.573583,-0.455272 -0.498775,0 -0.589588,0.130386 -0.696248,0.999597 -0.09399,0.765978 -2.059163,48.820958 -2.029451,49.626955 0.0033,0.09702 0.269244,0.176399 0.590372,0.176399 0.321137,0 2.42718,0.468649 4.680092,1.041448 5.805128,1.475917 13.695662,4.671421 16.112049,6.525034 0.59398,0.455643 1.329363,0.589703 1.08742,0.198241 z M 51.851781,72.523258 C 51.457363,61.795684 51.134657,52.678491 51.134657,52.262833 c 0,-0.649317 -0.08279,-0.755738 -0.587994,-0.755738 -0.417342,0 -0.587994,0.127512 -0.587994,0.439342 0,0.241637 0.262415,5.295469 0.583147,11.230742 0.320732,5.935274 0.800612,15.130826 1.066395,20.434562 0.459467,9.168642 0.726794,12.021026 0.890368,9.500076 0.03873,-0.596128 -0.25238,-9.860984 -0.646798,-20.588559 z m 1.644702,-0.952385 c -0.15269,-11.229124 -0.325224,-20.65472 -0.383402,-20.945772 -0.120137,-0.600934 -0.971932,-0.738859 -1.182015,-0.191396 -0.07127,0.185805 -0.01965,2.540728 0.114753,5.233179 0.134407,2.692452 0.467724,11.669093 0.740692,19.948092 0.483464,14.663112 0.592998,16.767066 0.859029,16.501035 0.07069,-0.07069 0.0033,-9.316023 -0.149057,-20.545138 z m 1.855224,-3.305864 0.01652,-20.991496 h -0.705596 -0.705596 l -0.0041,2.05799 c -0.0074,4.215398 0.723334,37.404064 0.861342,39.101816 0.377687,4.646053 0.521822,-0.766383 0.537099,-20.16831 z m 1.993421,-0.0588 c 0.198662,-9.637273 0.390793,-19.056989 0.426954,-20.9327 l 0.06573,-3.410385 -0.646791,-0.0744 -0.646798,-0.0744 v 21.230557 c 0,13.167506 0.08349,21.145709 0.219835,21.007132 0.125613,-0.127677 0.374665,-7.733808 0.581057,-17.745762 z m 1.457931,9.937326 c 0.460722,-10.712809 1.504358,-36.347592 1.504358,-36.951408 0,-0.625386 -0.08777,-0.739379 -0.569281,-0.739379 -0.528098,0 -0.578373,0.10633 -0.695058,1.469988 -0.0692,0.808498 -0.238962,8.190803 -0.377291,16.405125 -0.13833,8.214313 -0.308552,16.840238 -0.378266,19.168702 -0.09452,3.156906 -0.0602,4.128945 0.134961,3.822161 0.143945,-0.226285 0.315207,-1.655116 0.380577,-3.175189 z m 19.849863,27.670335 c -3.299439,-0.69335 -20.437526,-3.83575 -22.413556,-4.1097 -0.620431,-0.086 -1.085892,-0.19854 -1.034371,-0.25007 0.281738,-0.28174 18.986176,2.26079 23.683131,3.21928 3.363033,0.68629 3.64558,0.78673 3.64558,1.29595 0,0.61689 -0.253735,0.60673 -3.880784,-0.15546 z m 1.175995,-1.65593 c -5.717146,-1.34657 -24.270983,-5.375877 -24.754406,-5.375877 -0.269648,0 -0.425212,-0.06507 -0.345696,-0.144573 0.316058,-0.316058 13.161138,1.344418 18.610082,2.40573 3.179301,0.61923 9.758029,2.35685 10.086193,2.66402 0.102185,0.0956 -0.0033,0.39198 -0.235195,0.65853 l -0.420993,0.48462 z m 0.235205,-2.46695 C 74.604046,99.751456 65.07587,97.437237 58.45046,96.441439 c -0.956655,-0.143788 -1.909206,-0.36853 -2.116796,-0.499419 -0.286957,-0.180957 -0.208307,-0.207961 0.328165,-0.112688 0.388084,0.06895 2.557788,0.337487 4.821576,0.596796 2.263795,0.259326 5.068539,0.638475 6.232775,0.842571 6.218581,1.090138 17.051916,4.254701 17.051916,4.981091 0,0.28761 -0.519626,0.76855 -0.811439,0.75103 -0.135827,-0.008 -1.887471,-0.59758 -3.892535,-1.30983 z m 1.293589,-3.856242 c -4.36865,-2.351116 -9.195032,-4.121671 -15.758326,-5.780924 -3.233986,-0.817565 -5.644675,-1.490369 -5.35709,-1.495109 1.085777,-0.01784 8.736342,1.407484 10.766668,2.005924 1.164236,0.343161 2.475085,0.727157 2.912998,0.853323 1.727456,0.497709 5.218876,1.911741 7.847353,3.178186 2.558581,1.232769 2.763577,1.380687 2.763577,1.993933 0,0.379868 -0.125389,0.656981 -0.293992,0.649714 -0.1617,-0.0066 -1.458237,-0.639243 -2.881188,-1.405047 z M 58.018699,93.209509 c 0.228845,-0.05962 0.546357,-0.05574 0.705596,0.0087 0.159238,0.06441 -0.02799,0.113225 -0.416071,0.108428 -0.388076,-0.005 -0.518362,-0.05748 -0.289525,-0.11714 z m 0.818722,-2.815165 c 0.1617,-0.06524 0.426302,-0.06524 0.587993,0 0.161708,0.06524 0.0294,0.118626 -0.293992,0.118626 -0.3234,0 -0.455701,-0.05335 -0.294001,-0.118626 z"
       id="path1"
       sodipodi:nodetypes="sssssssscssssscssssssssscscssssssssssscsssssssssssssssssssscssssscscssssssssssssssssssssssssssssscssssssscsscssssssssssssssssscsssscsssssssssssssscsssssssssssssssssssssssssssssssssscssssssssssscsssssssssscsssssssssssssssssssssssssssscssssssssssssssscsssssssssssssssssssssscsssssssssscssccssscccccccccccccssccscssscssscsssscccccccccssscccsscccssssssssscssssscsscccccssscccssscccccsssscsscccsssscsssssssccccssssssscssssscsssssssssssssssscssscccscssccssscssssscsssssssssssscsssssccccccsccsscccssssssssssssssssssssssccssssssssssssssssssssssssssss" /></g><g
     id="text2"
     style="font-weight:bold;font-size:83.4422px;line-height:0.9;font-family:'Noto Sans Osage';-inkscape-font-specification:'Noto Sans Osage Bold';text-align:center;text-anchor:middle;fill:url(#linearGradient4);stroke:#ffffff;stroke-width:6.82136;stroke-linecap:round;stroke-linejoin:round;paint-order:stroke fill markers"
     aria-label="Liturgica &#10;Poloniae"><path
       style="font-weight:600;font-family:Labrada;-inkscape-font-specification:'Labrada Semi-Bold';text-align:start;text-anchor:start"
       d="m 168.04757,75.522571 q -0.25032,-1.001306 -0.41721,-1.91917 -0.0834,-1.001307 -0.0834,-1.919171 l 6.50849,-1.251633 q 0.33377,-4.672763 0.50065,-9.595853 0.16689,-5.006532 0.16689,-9.595853 0,-4.255552 -0.0834,-8.511104 0,-4.338994 -0.16689,-8.427662 -0.0834,-4.17211 -0.33377,-7.843567 l -6.84226,-2.336382 q 0,-0.834422 0.0834,-1.585401 0.0834,-0.75098 0.33377,-1.585402 5.9244,-0.08344 11.76535,-0.250327 5.9244,-0.166884 11.8488,-0.417211 0.16688,1.001307 0.33376,1.919171 0.16689,0.917864 0.16689,1.91917 l -6.09128,1.418518 q -0.25033,3.087361 -0.41721,6.758818 -0.16689,3.588015 -0.25033,7.676682 0,4.088668 0,8.594547 0,2.336382 0,5.006532 0,2.67015 0,5.507185 0.0834,2.753593 0.16689,5.507185 0.16688,2.753593 0.33376,5.256859 1.50196,0 3.17081,0 1.75228,-0.08344 3.50457,-0.166885 1.83573,-0.166884 3.50457,-0.250326 1.66885,-0.166885 3.00392,-0.333769 1.33508,-0.250327 2.33638,-0.417211 l 2.67015,-12.099119 q 1.41852,0 2.7536,0.166885 1.33507,0.08344 2.67015,0.417211 l 0.16688,1.001306 -0.66754,16.187787 -0.16688,1.001306 q -4.50588,-0.250327 -9.34553,-0.417211 -4.7562,-0.08344 -9.51241,-0.08344 -2.67015,0 -5.42374,0 -2.67015,0.08344 -5.42374,0.166884 -2.67015,0.166885 -5.42375,0.250327 -2.67015,0.08344 -5.3403,0.250326 z m 44.30777,-0.333768 q -0.25033,-0.834422 -0.33377,-1.585402 -0.0834,-0.75098 -0.0834,-1.585402 l 5.42374,-2.169497 q 0.16688,-1.668844 0.25033,-3.671457 0.0834,-2.002613 0.16688,-4.005225 0.16688,-2.086055 0.16688,-3.671457 0,-2.586708 -0.16688,-5.173417 -0.0834,-2.67015 -0.33377,-5.423743 -0.25033,-2.837034 -0.66754,-5.674069 l -4.83964,-1.168191 q 0,-0.834422 0.0834,-1.585402 0.16688,-0.834422 0.41721,-1.668844 l 13.76796,-1.835728 1.83573,1.418517 -0.66754,2.920477 q -0.25032,2.753593 -0.33377,5.423743 -0.0834,2.670151 -0.0834,5.507185 0,2.920477 0.0834,6.174723 0.0834,3.254246 0.25033,6.508492 0.25033,3.254246 0.50065,6.341607 l 5.59063,1.668844 q 0,0.667537 -0.0834,1.418517 0,0.75098 -0.16689,1.50196 -1.75228,0 -4.50587,0 -2.7536,0.08344 -5.84096,0.08344 -3.00392,0.08344 -5.84095,0.08344 -2.75359,0.08344 -4.58932,0.166885 z m 5.00653,-46.560748 q -0.25033,-1.251633 -0.50065,-2.67015 -0.16689,-1.50196 -0.25033,-2.920477 -0.0834,-1.50196 -0.0834,-2.586708 0.41721,-0.250327 1.08475,-0.584096 0.66753,-0.417211 1.33507,-0.667537 0.66754,-0.333769 1.08475,-0.417211 0.75098,-0.08344 1.83573,-0.08344 1.16819,-0.08344 2.50326,-0.08344 1.41852,0 2.58671,0.166885 0.16689,1.501959 0.16689,3.170803 0,1.668844 -0.0834,3.087362 -0.0834,1.418517 -0.41721,2.252939 0,0.08344 -0.41721,0.667538 -0.41721,0.500653 -0.91786,1.001306 -0.41721,0.500653 -0.50066,0.500653 -1.41851,0 -3.67145,-0.250326 -2.1695,-0.250327 -3.7549,-0.584096 z m 28.87094,47.228285 q -1.00131,-1.168191 -2.08606,-2.67015 -1.0013,-1.50196 -1.91917,-3.337688 -0.91786,-1.919171 -1.66884,-3.838341 0.16688,-2.837035 0.25032,-5.67407 0.0834,-2.837035 0.16689,-5.757512 0.0834,-2.920477 0.0834,-5.757511 0.0834,-2.837035 0.0834,-5.67407 -0.50065,-0.417211 -1.33507,-0.75098 -0.75098,-0.417211 -1.5854,-0.75098 -0.75098,-0.333768 -1.58541,-0.500653 l -0.83442,-1.084748 0.41721,-2.753593 5.25686,-1.418517 3.42113,-7.676683 h 6.17472 l -0.16688,8.761431 9.17864,-0.250326 1.25164,0.834422 -0.75098,4.338994 q -0.66754,0 -1.91917,0 -1.1682,-0.08344 -2.67016,-0.08344 -1.50195,-0.08344 -2.92047,-0.08344 -1.41852,-0.08344 -2.33638,-0.08344 -0.0834,2.002613 -0.16689,4.255553 0,2.169497 -0.0834,4.17211 0,1.91917 0,3.42113 0,1.418517 0,2.002613 0,4.839647 0.0834,8.594546 0.16689,3.754899 0.83442,6.258165 1.75229,-0.08344 3.33769,-0.250327 1.5854,-0.166884 3.00392,-0.417211 1.50196,-0.333768 2.92048,-0.834422 l 1.33507,2.002613 q -1.33507,1.168191 -3.1708,2.419824 -1.75229,1.168191 -3.42113,2.002613 -0.83442,0.08344 -2.00261,0.166884 -1.16819,0.166885 -2.41983,0.250327 -1.25163,0.08344 -2.50326,0.08344 -1.16819,0.08344 -2.25294,0.08344 z m 31.79149,-0.08344 q -1.41852,-0.584095 -3.08736,-1.835728 -1.5854,-1.335076 -2.83703,-3.00392 -1.25164,-1.668844 -1.50196,-3.254245 -0.0835,-2.169497 -0.25033,-5.256859 -0.0834,-3.087361 -0.25033,-6.591934 -0.0834,-3.588014 -0.25032,-7.176029 -0.0834,-3.588014 -0.25033,-6.675376 l -5.25686,-1.501959 q 0,-0.834422 0.0834,-1.585402 0.0834,-0.75098 0.33377,-1.585402 l 12.18256,-0.834422 3.08737,1.835728 -0.16689,2.503266 q -0.16688,3.337688 -0.25033,6.591934 -0.0834,3.254246 -0.0834,6.258165 0,3.003919 0,5.67407 0.0834,2.586708 0.25033,4.839647 0.16688,2.169498 0.41721,3.921784 1.41852,0.584095 2.83703,0.917864 1.41852,0.250326 2.41983,0.250326 1.08475,-0.584095 2.25294,-1.91917 1.25163,-1.335075 2.58671,-3.087361 1.41851,-1.835729 3.00391,-3.754899 0,-3.254246 -0.0834,-6.341608 -0.0834,-3.087361 -0.16688,-6.174722 0,-3.170804 -0.16689,-6.341608 l -5.17341,-1.501959 q 0,-0.834422 0.0834,-1.668844 0.0834,-0.834422 0.33377,-1.668844 l 12.68321,-0.333769 2.7536,1.752286 -0.41722,3.170804 q -0.25032,4.839647 -0.41721,9.679295 -0.0834,4.839648 0,9.512411 0.0835,4.672763 0.5841,9.011757 l 5.3403,0.584096 q 0.16688,0.584095 0.25033,1.251633 0.0834,0.667537 0.0834,1.335075 -2.83704,0.834422 -6.00784,1.668844 -3.1708,0.75098 -6.84226,1.251633 l -2.08606,-2.503266 0.41722,-6.84226 -0.50066,-0.584096 q -1.41851,2.503266 -2.92047,4.672763 -1.41852,2.086055 -3.00392,4.338995 -2.25294,0.417211 -4.58932,0.667537 -2.33639,0.333769 -5.42375,0.333769 z m 35.62979,-0.500653 q -0.25033,-0.75098 -0.33377,-1.585402 -0.0834,-0.834422 -0.0834,-1.668844 l 5.42374,-2.169497 q 0.16688,-2.503266 0.33377,-5.590627 0.16688,-3.087362 0.16688,-5.840954 0,-2.419824 -0.16688,-5.340301 -0.16689,-2.920477 -0.33377,-5.757512 -0.16689,-2.920477 -0.41721,-5.089974 l -5.50719,-0.917864 q -0.25032,-0.667538 -0.33377,-1.335076 0,-0.667537 0,-1.335075 3.08737,-0.917864 6.5085,-1.668844 3.42113,-0.75098 6.75881,-1.168191 l 1.83573,2.336382 -1.0013,10.847486 1.08474,0.333769 q 1.1682,-3.337688 2.50327,-6.341607 1.33508,-3.087362 2.83704,-6.174723 1.50195,-0.333769 3.33768,-0.500653 1.91917,-0.250327 3.7549,-0.250327 1.83573,0 3.42113,0.166884 l 0.66754,2.086055 -1.91917,7.843567 -1.66884,1.084749 q -1.1682,-0.333769 -2.50327,-0.667538 -1.25163,-0.417211 -2.50327,-0.667537 -1.25163,-0.333769 -2.50326,-0.417211 -0.83442,1.251633 -1.75229,2.920477 -0.83442,1.668844 -1.5854,3.671456 -0.66754,1.919171 -1.41852,3.754899 l 0.5841,14.352059 7.5098,1.752286 q 0.0834,0.667537 -0.0834,1.418517 -0.0834,0.75098 -0.25032,1.50196 -1.83573,0 -4.83965,0 -2.92048,0.08344 -6.25817,0.166884 -3.33768,0.08344 -6.3416,0.08344 -3.00392,0.08344 -4.92309,0.166885 z m 45.42206,17.43942 q -1.50196,0 -3.67146,-0.500654 -2.08605,-0.417211 -4.17211,-1.585401 -2.08605,-1.168191 -3.50457,-3.337688 -1.41852,-2.086055 -1.41852,-5.423743 1.33508,-1.001307 2.7536,-2.086055 1.41851,-1.084749 2.92047,-2.086055 1.50196,-1.001307 3.00392,-1.835729 -3.08736,-1.251633 -4.7562,-3.504572 -1.5854,-2.336382 -1.75229,-4.839648 l 7.42636,-4.839647 q -2.67015,-1.168191 -4.50588,-3.087362 -1.75229,-1.91917 -2.67015,-4.17211 -0.91787,-2.252939 -0.91787,-4.589321 0,-2.67015 0.83443,-5.173416 0.83442,-2.586708 1.91917,-4.005226 1.50196,-1.251633 3.50457,-2.336381 2.00261,-1.168191 4.17211,-2.002613 2.1695,-0.917864 4.00522,-1.168191 1.16819,-0.08344 2.58671,-0.08344 1.50196,0 3.33769,0.250327 1.50196,0.250326 3.00392,0.667537 1.50196,0.333769 2.92048,0.834422 l 9.26208,-2.252939 1.75229,1.668844 q 0,1.251633 -0.25033,2.586708 -0.25033,1.335075 -0.66754,2.67015 -0.75098,0 -1.83573,-0.08344 -1.08474,-0.166884 -2.25294,-0.417211 -1.08474,-0.250326 -2.16949,-0.500653 l 0.41721,0.75098 0.25032,0.500653 q 0.75098,1.418517 1.08475,3.170804 0.33377,1.668844 0.33377,3.42113 0,2.67015 -0.91786,5.256858 -0.83442,2.503266 -2.25294,4.17211 -1.5854,1.335076 -3.92178,2.419824 -2.25294,1.084749 -4.83965,1.835729 -2.58671,0.667537 -5.08998,0.917864 -0.91786,0 -1.91917,-0.08344 -1.0013,-0.08344 -1.66884,-0.166885 -0.5841,0.584096 -1.33508,1.835729 -0.66753,1.16819 -0.75098,2.169497 1.16819,0.417211 2.7536,0.750979 1.5854,0.250327 3.33768,0.500654 1.75229,0.166884 3.58802,0.333768 1.83573,0.08344 3.58801,0.166885 3.67146,0.250326 7.00915,0.834422 3.33769,0.584095 5.42374,1.91917 2.08606,1.335076 2.08606,4.088668 0,3.003919 -1.33508,6.007839 -1.33507,3.087361 -3.50457,5.256858 -2.58671,1.752286 -6.00784,2.920477 -3.42113,1.168191 -7.34291,1.668844 -3.92179,0.584096 -7.84357,0.584096 z m 2.41982,-3.671457 q 1.58541,0 3.50458,-0.250327 1.91917,-0.250326 3.67145,-0.667537 1.83573,-0.417211 3.08736,-0.834422 1.33508,-0.417211 1.58541,-0.584096 0.41721,-0.584095 0.91786,-1.835728 0.50065,-1.168191 0.83442,-2.753593 0.41721,-1.501959 0.41721,-2.920477 -1.41851,-0.250326 -3.08736,-0.500653 -1.66884,-0.166884 -3.58801,-0.333769 -1.83573,-0.166884 -3.7549,-0.417211 -1.83573,-0.166884 -3.58802,-0.500653 -1.75228,-0.250327 -3.33768,-0.584095 -0.66754,0.834422 -1.41852,1.835728 -0.66754,1.001306 -1.16819,1.835728 -0.41721,0.917865 -0.41721,1.251633 0.16688,1.084749 0.91786,2.336382 0.83442,1.251633 1.83573,2.336382 1.00131,1.16819 2.00261,1.835728 1.00131,0.75098 1.5854,0.75098 z m 1.91917,-29.20477 q 1.25164,0 2.41983,-0.250327 1.25163,-0.250326 2.00261,-0.584095 1.08475,-1.251633 1.75229,-3.337688 0.66753,-2.169497 0.66753,-4.839648 0,-2.419823 -0.66753,-4.589321 -0.5841,-2.169497 -1.75229,-3.838341 -1.16819,-1.668844 -2.83703,-2.67015 -1.25164,0 -2.58671,0.250326 -1.25163,0.166885 -2.08606,0.417211 -1.0013,1.585402 -1.75228,3.921784 -0.66754,2.252939 -0.66754,5.089974 0,3.504572 1.41852,6.258165 1.41851,2.67015 4.08866,4.17211 z m 25.95057,15.353365 q -0.25033,-0.834422 -0.33377,-1.585402 -0.0834,-0.75098 -0.0834,-1.585402 l 5.42374,-2.169497 q 0.16689,-1.668844 0.25033,-3.671457 0.0834,-2.002613 0.16688,-4.005225 0.16689,-2.086055 0.16689,-3.671457 0,-2.586708 -0.16689,-5.173417 -0.0834,-2.67015 -0.33377,-5.423743 -0.25032,-2.837034 -0.66753,-5.674069 l -4.83965,-1.168191 q 0,-0.834422 0.0834,-1.585402 0.16688,-0.834422 0.41721,-1.668844 l 13.76796,-1.835728 1.83573,1.418517 -0.66754,2.920477 q -0.25032,2.753593 -0.33376,5.423743 -0.0834,2.670151 -0.0834,5.507185 0,2.920477 0.0834,6.174723 0.0834,3.254246 0.25032,6.508492 0.25033,3.254246 0.50066,6.341607 l 5.59062,1.668844 q 0,0.667537 -0.0834,1.418517 0,0.75098 -0.16688,1.50196 -1.75229,0 -4.50588,0 -2.75359,0.08344 -5.84096,0.08344 -3.00392,0.08344 -5.84095,0.08344 -2.75359,0.08344 -4.58932,0.166885 z m 5.00653,-46.560748 q -0.25033,-1.251633 -0.50065,-2.67015 -0.16689,-1.50196 -0.25033,-2.920477 -0.0834,-1.50196 -0.0834,-2.586708 0.41721,-0.250327 1.08475,-0.584096 0.66754,-0.417211 1.33507,-0.667537 0.66754,-0.333769 1.08475,-0.417211 0.75098,-0.08344 1.83573,-0.08344 1.16819,-0.08344 2.50327,-0.08344 1.41851,0 2.5867,0.166885 0.16689,1.501959 0.16689,3.170803 0,1.668844 -0.0834,3.087362 -0.0834,1.418517 -0.41721,2.252939 0,0.08344 -0.41722,0.667538 -0.41721,0.500653 -0.91786,1.001306 -0.41721,0.500653 -0.50065,0.500653 -1.41852,0 -3.67146,-0.250326 -2.1695,-0.250327 -3.7549,-0.584096 z m 36.13041,47.228285 q -5.3403,0 -9.0952,-2.419824 -3.75489,-2.503266 -5.75751,-6.758818 -1.91917,-4.255552 -1.91917,-9.762737 0,-3.921783 1.08475,-7.760125 1.08475,-3.838341 2.92048,-6.84226 2.1695,-1.585402 4.67276,-2.920477 2.50327,-1.335075 5.25686,-2.252939 2.75359,-0.917865 5.50719,-1.335076 3.25424,0 6.59193,0.667538 3.33769,0.584095 5.25686,1.001306 l 0.50065,1.084749 -1.08475,11.431581 -4.83965,0.417211 -0.50065,-0.417211 -1.83573,-8.34422 q -0.75098,-0.333768 -1.50196,-0.500653 -0.75098,-0.166884 -1.5854,-0.250326 -0.75098,-0.166885 -1.75228,-0.08344 -1.50196,0 -2.92048,0.250327 -1.33508,0.166884 -2.25294,0.500653 -1.33508,2.086055 -2.41982,5.67407 -1.00131,3.504572 -1.00131,8.260778 0,5.173416 1.83573,8.677988 1.91917,3.504573 5.08997,5.590628 1.5854,0 4.00523,-0.500654 2.50326,-0.500653 5.17341,-1.251633 2.7536,-0.834421 4.92309,-1.668843 l 1.50196,2.67015 q -1.75228,1.418517 -3.92178,2.920477 -2.1695,1.501959 -4.58932,2.753592 -0.91787,0.250327 -2.92048,0.667538 -2.00261,0.500653 -4.42244,0.500653 z m 37.04832,-1.001306 q -1.75228,0.500653 -4.33899,0.75098 -2.58671,0.250326 -5.42375,0 -1.33507,-0.834422 -2.83703,-2.169498 -1.41852,-1.335075 -2.41982,-3.087361 -1.00131,-1.835728 -1.16819,-3.754899 0,-1.251633 0.33376,-2.753592 0.41722,-1.50196 1.08475,-2.920477 0.66754,-1.418518 1.41852,-2.503266 0.75098,-1.168191 1.41852,-1.752287 1.50196,-0.584095 4.00522,-1.084748 2.50327,-0.500653 5.17342,-0.917864 2.67015,-0.500654 4.83965,-0.75098 2.25294,-0.250327 3.33769,-0.333769 V 42.312576 q -1.33508,-0.75098 -3.50458,-1.251633 -2.08605,-0.584095 -4.17211,-0.584095 -0.66753,-0.08344 -1.33507,0 -0.66754,0.08344 -1.33508,0.166884 l -1.50196,8.511104 -6.3416,-0.417211 -1.00131,-9.095199 0.75098,-1.168191 q 2.67015,-0.834422 7.00914,-1.752286 4.42244,-0.917865 9.76274,-0.917865 2.67015,0 4.58932,0.75098 2.00261,0.75098 3.33769,1.919171 1.41852,1.168191 2.25294,2.419824 0.91786,1.251633 1.33507,2.169497 -0.16688,2.169497 -0.33376,4.672763 -0.16689,2.503266 -0.25033,4.839648 -0.0834,2.252939 -0.0834,3.588014 0,3.754899 0.16688,6.42505 0.25033,2.586708 0.50065,4.338994 0.25033,1.752286 0.41722,2.67015 l 4.7562,0.584096 0.33377,2.586708 q -2.83703,0.75098 -6.09128,1.585402 -3.25425,0.750979 -7.00915,1.335075 l -1.91917,-2.336382 0.5841,-6.09128 h -0.50065 q -0.91787,1.084748 -1.91917,2.503266 -1.00131,1.335075 -2.00262,2.67015 -1.0013,1.335075 -1.91917,2.419824 z M 461.79346,68.2631 q 0.41721,0.250327 1.08475,0.500653 0.66754,0.166885 1.50196,0.417211 0.83442,0.166885 1.66884,0.166885 0.50066,-0.166885 1.50196,-1.001307 1.00131,-0.917864 2.08606,-2.002612 1.16819,-1.084749 2.08605,-2.086055 1.00131,-1.001307 1.25164,-1.418518 V 57.24873 q -1.91918,0.166884 -3.92179,0.584095 -2.00261,0.417211 -4.00522,1.001307 -1.91917,0.584095 -3.7549,1.335075 -0.0834,0.333769 -0.16689,0.75098 0,0.333768 0,0.667537 0,0.250327 0,0.584096 0,2.002612 0.16689,3.504572 0.25032,1.418517 0.50065,2.586708 z"
       id="path7" /><path
       style="font-weight:600;font-family:Labrada;-inkscape-font-specification:'Labrada Semi-Bold';text-align:start;text-anchor:start"
       d="m 167.96413,151.2474 q -0.33377,-1.00131 -0.41721,-1.91917 -0.0834,-1.00131 -0.0834,-1.91917 l 6.25816,-1.25164 q 0.16689,-2.92047 0.25033,-6.75882 0.16688,-3.92178 0.25032,-8.26077 0.16689,-4.42244 0.16689,-8.67799 0,-4.42244 -0.0834,-8.34422 -0.0834,-4.00523 -0.33377,-7.09259 -0.16689,-3.1708 -0.41721,-5.00653 l -6.25817,-1.83573 q 0,-0.834421 0.0834,-1.668843 0.16689,-0.917864 0.41722,-1.835729 3.58801,0 7.34291,-0.166884 3.7549,-0.166884 7.34291,-0.250327 3.67146,-0.166884 7.00915,-0.250326 3.33769,-0.166885 6.09128,-0.166885 3.7549,0 6.00784,0.417211 2.25294,0.333769 2.75359,0.500654 3.42113,2.169497 5.59063,6.007839 2.25294,3.83834 2.25294,8.34422 0,2.50326 -0.66754,4.7562 -0.5841,2.1695 -1.33508,3.7549 -0.75098,1.58541 -1.0013,2.00262 -0.33377,0.41721 -1.91917,1.75228 -1.50196,1.33508 -3.67146,3.00392 -2.1695,1.66885 -4.50588,3.17081 -1.91917,0 -3.67146,-0.0834 -1.66884,-0.0834 -3.1708,-0.16688 -1.41852,-0.0834 -2.50327,-0.16689 -1.0013,-0.0834 -1.41851,-0.16688 l 0.0834,-3.25425 0.58409,-0.66753 q 1.50196,-0.0834 3.00392,-0.25033 1.50196,-0.25033 3.00392,-0.5841 1.50196,-0.33376 2.92048,-0.83442 1.41852,-0.58409 2.41982,-1.25163 0.0834,-0.25033 0.25033,-1.5854 0.25033,-1.33508 0.41721,-3.25425 0.25033,-1.91917 0.25033,-4.08867 0,-2.33638 -0.66754,-4.7562 -0.5841,-2.50327 -1.5854,-4.58932 -1.00131,-2.08606 -2.1695,-3.17081 -1.41852,0 -3.33769,0.16689 -1.91917,0.0834 -3.67145,0.25033 -1.33508,0.0834 -2.67015,0.33376 -1.33508,0.16689 -2.33639,0.33377 0,0.91787 -0.0834,3.33769 -0.0834,2.41982 -0.16688,6.34161 -0.0834,3.83834 -0.0834,9.01176 0,3.58801 0.0834,6.9257 0.0834,3.33769 0.25032,6.42505 0.16689,3.08736 0.33377,5.84095 0.25033,2.75359 0.33377,5.08998 l 8.59455,2.41982 q 0,0.91786 -0.0834,1.75229 -0.0834,0.75098 -0.33377,1.66884 -6.67538,0 -13.26731,0.16688 -6.50849,0.16689 -12.43289,0.50066 z m 64.86418,0.33377 q -5.00653,0 -8.92832,-2.33639 -3.83834,-2.33638 -6.00783,-6.59193 -2.1695,-4.25555 -2.1695,-10.01306 0,-4.339 1.25163,-8.01045 1.25163,-3.7549 3.00392,-6.59194 2.1695,-1.5854 4.83965,-2.92048 2.75359,-1.33507 5.67407,-2.25293 2.92048,-1.00131 5.67407,-1.33508 4.92309,0 8.67799,2.25294 3.83834,2.25294 6.09128,6.34161 2.25294,4.00522 2.25294,9.59585 0,2.75359 -0.5841,5.59063 -0.58409,2.83703 -1.66884,5.50718 -1.00131,2.58671 -2.41983,4.67277 -2.00261,1.50195 -4.58932,2.75359 -2.58671,1.25163 -5.42374,2.1695 -2.83704,0.83442 -5.67407,1.16819 z m 1.16819,-5.17342 q 1.08475,0 2.00261,-0.0834 1.00131,-0.16689 1.91917,-0.33377 0.91787,-0.25033 1.50196,-0.50065 1.00131,-1.33508 1.83573,-3.33769 0.83442,-2.00262 1.33508,-4.58932 0.50065,-2.67015 0.50065,-5.59063 0,-5.9244 -2.08605,-9.84618 -2.08606,-4.00523 -5.75752,-5.42374 -1.66884,0 -3.25424,0.25032 -1.5854,0.16689 -2.67015,0.5841 -1.41852,1.91917 -2.58671,5.50718 -1.08475,3.58802 -1.08475,8.0939 0,6.00784 2.1695,9.92962 2.16949,3.92178 6.17472,5.3403 z m 25.36642,4.50588 q -0.25032,-0.75098 -0.33376,-1.50196 -0.0834,-0.83442 -0.0834,-1.66885 l 5.42375,-2.16949 q 0.25032,-3.00392 0.33377,-6.84226 0.16688,-3.92179 0.16688,-7.92701 0.0834,-4.00523 0.0834,-7.25947 0,-4.83965 -0.0834,-10.01307 -0.0834,-5.17341 -0.33377,-9.42897 -0.16688,-4.255548 -0.50065,-6.341603 l -6.00784,-1.251633 q 0,-1.835728 0.50065,-3.254246 l 13.51764,-2.086055 3.08736,2.169497 q -0.0834,1.418518 -0.25033,4.088668 -0.0834,2.586712 -0.25032,5.924392 -0.16689,3.33769 -0.25033,7.09259 -0.0834,3.7549 -0.16688,7.42636 -0.0835,3.67145 -0.0835,6.75882 0,2.5867 0,5.75751 0.0835,3.1708 0.16689,6.3416 0.0834,3.08737 0.16688,5.59063 0.0834,2.50327 0.16689,3.67146 l 5.84095,1.66884 q 0,0.66754 -0.0834,1.41852 -0.0834,0.75098 -0.25033,1.50196 -1.66884,0 -4.42243,0 -2.7536,0.0834 -5.84096,0.0834 -3.08736,0.0834 -5.92439,0.0834 -2.7536,0.0834 -4.58933,0.16689 z m 42.88936,0.66754 q -5.00653,0 -8.92832,-2.33639 -3.83834,-2.33638 -6.00783,-6.59193 -2.1695,-4.25555 -2.1695,-10.01306 0,-4.339 1.25163,-8.01045 1.25163,-3.7549 3.00392,-6.59194 2.1695,-1.5854 4.83965,-2.92048 2.75359,-1.33507 5.67407,-2.25293 2.92047,-1.00131 5.67407,-1.33508 4.92309,0 8.67799,2.25294 3.83834,2.25294 6.09128,6.34161 2.25294,4.00522 2.25294,9.59585 0,2.75359 -0.5841,5.59063 -0.5841,2.83703 -1.66884,5.50718 -1.00131,2.58671 -2.41983,4.67277 -2.00261,1.50195 -4.58932,2.75359 -2.58671,1.25163 -5.42374,2.1695 -2.83704,0.83442 -5.67407,1.16819 z m 1.16819,-5.17342 q 1.08475,0 2.00261,-0.0834 1.00131,-0.16689 1.91917,-0.33377 0.91787,-0.25033 1.50196,-0.50065 1.00131,-1.33508 1.83573,-3.33769 0.83442,-2.00262 1.33508,-4.58932 0.50065,-2.67015 0.50065,-5.59063 0,-5.9244 -2.08606,-9.84618 -2.08605,-4.00523 -5.75751,-5.42374 -1.66884,0 -3.25424,0.25032 -1.5854,0.16689 -2.67015,0.5841 -1.41852,1.91917 -2.58671,5.50718 -1.08475,3.58802 -1.08475,8.0939 0,6.00784 2.1695,9.92962 2.16949,3.92178 6.17472,5.3403 z m 25.03266,4.50588 q -0.25033,-0.83442 -0.33377,-1.5854 -0.0834,-0.75098 -0.0834,-1.58541 l 5.42374,-2.16949 q 0.16689,-2.50327 0.33377,-5.59063 0.16688,-3.08736 0.16688,-5.84095 0,-2.41983 -0.16688,-5.3403 -0.16688,-2.92048 -0.33377,-5.75752 -0.16688,-2.92047 -0.41721,-5.08997 l -5.50719,-0.91786 q -0.25032,-0.66754 -0.33376,-1.33508 0,-0.66754 0,-1.33508 3.08736,-0.91786 6.50849,-1.66884 3.42113,-0.75098 6.75882,-1.16819 l 1.83572,2.33638 -0.33376,11.09781 1.08474,0.33377 q 1.16819,-3.1708 2.50327,-6.25816 1.41852,-3.17081 3.33769,-6.50849 2.67015,-0.5841 4.7562,-0.75098 2.1695,-0.25033 4.75621,-0.25033 1.75228,0 3.33769,1.00131 1.66884,1.0013 3.00392,2.41982 1.41851,1.41852 2.08605,2.75359 0.16689,3.58802 0.25033,7.09259 0.16688,3.50457 0.25032,7.09259 0.16689,3.58801 0.25033,7.09258 0.16688,3.50458 0.25033,7.09259 l 5.42374,1.5854 q 0.0834,0.66754 0,1.41852 -0.0834,0.75098 -0.25033,1.50196 -1.5854,0 -4.17211,0 -2.50326,0.0834 -5.42374,0.0834 -2.92048,0.0834 -5.67407,0.0834 -2.67015,0.0834 -4.50588,0.16689 -0.25032,-0.83442 -0.33377,-1.5854 -0.0834,-0.83443 -0.0834,-1.66885 l 5.17342,-2.25294 v -13.76796 q 0,-1.50196 -0.0834,-3.08736 0,-1.5854 -0.0835,-3.1708 -0.0834,-1.66885 -0.25032,-3.17081 -0.0834,-1.5854 -0.33377,-2.83703 -1.33508,-0.50066 -3.00392,-0.83443 -1.5854,-0.41721 -3.42113,-0.66753 -1.00131,1.25163 -2.33638,3.58801 -1.33508,2.33638 -2.7536,5.3403 -1.41851,3.00392 -2.67015,6.17473 l 0.5841,13.18386 5.17342,1.41852 q 0.0834,0.66754 0,1.50196 -0.0835,0.75098 -0.25033,1.50196 -1.5854,0 -4.25555,0 -2.67015,0.0834 -5.75751,0.0834 -3.00392,0.0834 -5.75752,0.0834 -2.67015,0.0834 -4.33899,0.16689 z m 48.5634,0 q -0.25033,-0.83442 -0.33377,-1.5854 -0.0834,-0.75098 -0.0834,-1.58541 l 5.42374,-2.16949 q 0.16688,-1.66885 0.25033,-3.67146 0.0834,-2.00261 0.16688,-4.00522 0.16688,-2.08606 0.16688,-3.67146 0,-2.58671 -0.16688,-5.17342 -0.0834,-2.67015 -0.33377,-5.42374 -0.25033,-2.83704 -0.66754,-5.67407 l -4.83964,-1.16819 q 0,-0.83442 0.0834,-1.5854 0.16688,-0.83443 0.41721,-1.66885 l 13.76796,-1.83573 1.83573,1.41852 -0.66754,2.92048 q -0.25032,2.75359 -0.33377,5.42374 -0.0834,2.67015 -0.0834,5.50719 0,2.92047 0.0834,6.17472 0.0834,3.25425 0.25033,6.50849 0.25033,3.25425 0.50065,6.34161 l 5.59063,1.66884 q 0,0.66754 -0.0834,1.41852 0,0.75098 -0.16689,1.50196 -1.75228,0 -4.50587,0 -2.7536,0.0834 -5.84096,0.0834 -3.00392,0.0834 -5.84095,0.0834 -2.75359,0.0834 -4.58932,0.16689 z m 5.00653,-46.56075 q -0.25033,-1.25163 -0.50065,-2.67015 -0.16689,-1.50196 -0.25033,-2.920477 -0.0834,-1.501959 -0.0834,-2.586708 0.41721,-0.250326 1.08475,-0.584095 0.66753,-0.417211 1.33507,-0.667538 0.66754,-0.333769 1.08475,-0.417211 0.75098,-0.08344 1.83573,-0.08344 1.16819,-0.08344 2.50326,-0.08344 1.41852,0 2.58671,0.166884 0.16689,1.50196 0.16689,3.170804 0,1.668844 -0.0834,3.087365 -0.0834,1.41851 -0.41721,2.25294 0,0.0834 -0.41721,0.66753 -0.41721,0.50066 -0.91786,1.00131 -0.41721,0.50065 -0.50066,0.50065 -1.41851,0 -3.67145,-0.25032 -2.1695,-0.25033 -3.7549,-0.5841 z m 36.04697,46.22698 q -1.75229,0.50065 -4.33899,0.75098 -2.58671,0.25033 -5.42375,0 -1.33507,-0.83442 -2.83703,-2.1695 -1.41852,-1.33507 -2.41983,-3.08736 -1.0013,-1.83573 -1.16819,-3.7549 0,-1.25163 0.33377,-2.75359 0.41721,-1.50196 1.08475,-2.92048 0.66754,-1.41852 1.41852,-2.50326 0.75098,-1.16819 1.41852,-1.75229 1.50196,-0.5841 4.00522,-1.08475 2.50327,-0.50065 5.17342,-0.91786 2.67015,-0.50066 4.83965,-0.75098 2.25293,-0.25033 3.33768,-0.33377 v -11.2647 q -1.33507,-0.75098 -3.50457,-1.25163 -2.08605,-0.5841 -4.17211,-0.5841 -0.66754,-0.0834 -1.33507,0 -0.66754,0.0835 -1.33508,0.16689 l -1.50196,8.5111 -6.34161,-0.41721 -1.0013,-9.0952 0.75098,-1.16819 q 2.67015,-0.83442 7.00914,-1.75229 4.42244,-0.91786 9.76274,-0.91786 2.67015,0 4.58932,0.75098 2.00261,0.75098 3.33769,1.91917 1.41852,1.16819 2.25294,2.41982 0.91786,1.25164 1.33507,2.1695 -0.16688,2.1695 -0.33377,4.67276 -0.16688,2.50327 -0.25032,4.83965 -0.0834,2.25294 -0.0834,3.58802 0,3.7549 0.16688,6.42505 0.25033,2.5867 0.50065,4.33899 0.25033,1.75229 0.41721,2.67015 l 4.75621,0.5841 0.33377,2.5867 q -2.83704,0.75098 -6.09128,1.58541 -3.25425,0.75098 -7.00915,1.33507 l -1.91917,-2.33638 0.5841,-6.09128 h -0.50066 q -0.91786,1.08475 -1.91917,2.50327 -1.0013,1.33507 -2.00261,2.67015 -1.00131,1.33507 -1.91917,2.41982 z m -5.75751,-6.59193 q 0.41721,0.25032 1.08475,0.50065 0.66753,0.16688 1.50196,0.41721 0.83442,0.16688 1.66884,0.16688 0.50065,-0.16688 1.50196,-1.0013 1.00131,-0.91787 2.08606,-2.00261 1.16819,-1.08475 2.08605,-2.08606 1.00131,-1.00131 1.25163,-1.41852 v -5.59062 q -1.91917,0.16688 -3.92178,0.58409 -2.00261,0.41721 -4.00523,1.00131 -1.91917,0.58409 -3.75489,1.33507 -0.0834,0.33377 -0.16689,0.75098 0,0.33377 0,0.66754 0,0.25033 0,0.5841 0,2.00261 0.16689,3.50457 0.25032,1.41851 0.50065,2.58671 z m 47.64548,7.59324 q -5.25686,0 -9.01176,-2.41983 -3.7549,-2.50326 -5.84095,-6.75882 -2.00261,-4.25555 -2.00261,-9.76273 0,-4.339 1.16819,-8.01045 1.16819,-3.7549 2.83703,-6.59194 2.25294,-1.5854 4.92309,-2.92048 2.75359,-1.33507 5.67407,-2.25293 3.00392,-0.91787 6.00784,-1.33508 2.92048,0 5.75751,1.75229 2.83703,1.66884 4.83965,5.08997 2.08605,3.42113 2.41982,8.92832 l -1.91917,4.7562 q -4.08867,0.66754 -9.67929,1.16819 -5.59063,0.41721 -11.93224,0.50066 0.41721,4.17211 2.1695,7.09258 1.83573,2.83704 4.83965,4.67277 2.25294,0 5.08997,-0.5841 2.83703,-0.66754 5.59063,-1.50196 2.75359,-0.83442 4.7562,-1.5854 l 1.41852,2.75359 q -1.75229,1.33508 -4.00523,2.92048 -2.25293,1.50196 -4.83964,2.83703 -1.16819,0.33377 -3.42113,0.75098 -2.1695,0.50066 -4.83965,0.50066 z m -6.84226,-21.19432 q 4.08867,-0.25033 7.59324,-0.66754 3.50457,-0.50065 6.17472,-1.08475 0,-2.41982 -0.50065,-4.7562 -0.50065,-2.33639 -1.41852,-4.25556 -0.83442,-2.00261 -2.00261,-3.08736 -1.50196,0 -3.50457,0.25033 -1.91917,0.16688 -2.92048,0.58409 -1.25163,2.00262 -2.25294,5.42375 -1.00131,3.33768 -1.16819,7.59324 z"
       id="path8" /></g></svg>
