<?xml version="1.0" encoding="UTF-8" standalone="no"?>
<!-- Generator: Adobe Illustrator 26.2.1, SVG Export Plug-In . SVG Version: 6.00 Build 0)  -->

<svg
   version="1.1"
   id="Layer_1"
   x="0px"
   y="0px"
   viewBox="0 0 1920 800"
   xml:space="preserve"
   sodipodi:docname="nprh_logo_on_white_eng.svg"
   width="1920"
   height="800"
   inkscape:version="1.3.2 (091e20ef0f, 2023-11-25, custom)"
   xmlns:inkscape="http://www.inkscape.org/namespaces/inkscape"
   xmlns:sodipodi="http://sodipodi.sourceforge.net/DTD/sodipodi-0.dtd"
   xmlns="http://www.w3.org/2000/svg"
   xmlns:svg="http://www.w3.org/2000/svg"><defs
   id="defs48" /><sodipodi:namedview
   id="namedview48"
   pagecolor="#ffffff"
   bordercolor="#000000"
   borderopacity="0.25"
   inkscape:showpageshadow="2"
   inkscape:pageopacity="0.0"
   inkscape:pagecheckerboard="0"
   inkscape:deskcolor="#d1d1d1"
   inkscape:zoom="0.35989583"
   inkscape:cx="1029.4645"
   inkscape:cy="540.43415"
   inkscape:window-width="1366"
   inkscape:window-height="723"
   inkscape:window-x="0"
   inkscape:window-y="0"
   inkscape:window-maximized="1"
   inkscape:current-layer="Layer_1" />
<style
   type="text/css"
   id="style1">
	.st0{fill:#FFFFFF;}
	.st1{fill:#E6E6E6;}
	.st2{fill:#DD0E3F;}
	.st3{fill:#1A1A1A;}
</style>
<rect
   x="0.039999999"
   y="-0.31999999"
   class="st0"
   width="1919.96"
   height="800.32001"
   id="rect1"
   style="stroke-width:0.860572" />
<polygon
   class="st1"
   points="528.37,456.85 528.37,660.95 462.11,660.95 462.11,395.91 727.14,395.91 727.14,456.85 660.88,456.85 660.88,528.43 594.63,528.43 594.63,456.85 "
   id="polygon1"
   transform="matrix(1.7299049,0,0,1.7299049,-687.38793,-566.32301)" />
<polygon
   class="st0"
   points="660.88,528.43 660.88,456.85 727.14,456.85 727.14,660.95 660.88,660.95 660.88,589.36 594.63,589.36 594.63,660.95 528.37,660.95 528.37,456.85 594.63,456.85 594.63,528.43 "
   id="polygon2"
   transform="matrix(1.7299049,0,0,1.7299049,-687.38793,-566.32301)" />
<polygon
   class="st2"
   points="660.88,589.36 660.88,660.95 727.14,660.95 727.14,456.85 793.4,456.85 793.4,721.89 528.37,721.89 528.37,660.95 594.63,660.95 594.63,589.36 "
   id="polygon3"
   transform="matrix(1.7299049,0,0,1.7299049,-687.38793,-566.32301)" />
<g
   id="g25"
   transform="matrix(1.7299049,0,0,1.7299049,-687.38793,-566.32301)">
	<path
   class="st3"
   d="m 861.12,604.6 h 19.01 c 3.37,0 6.52,0.68 9.47,2.03 2.95,1.35 5.53,3.16 7.74,5.41 2.21,2.25 3.94,4.88 5.21,7.87 1.27,2.99 1.9,6.13 1.9,9.41 0,3.24 -0.62,6.35 -1.87,9.34 -1.25,2.99 -2.97,5.63 -5.18,7.9 -2.21,2.27 -4.79,4.09 -7.74,5.44 -2.95,1.35 -6.13,2.03 -9.54,2.03 H 861.11 V 604.6 Z m 12.85,38.55 h 2.95 c 2.23,0 4.22,-0.35 5.97,-1.05 1.75,-0.7 3.22,-1.66 4.42,-2.89 1.2,-1.22 2.12,-2.68 2.75,-4.36 0.63,-1.68 0.95,-3.53 0.95,-5.54 0,-1.97 -0.33,-3.8 -0.98,-5.51 -0.66,-1.7 -1.59,-3.17 -2.79,-4.39 -1.2,-1.22 -2.68,-2.18 -4.43,-2.88 -1.75,-0.7 -3.72,-1.05 -5.9,-1.05 h -2.95 v 27.67 z"
   id="path3" />
	<path
   class="st3"
   d="M 940.78,615.48 H 925.5 v 8.26 h 14.43 v 10.88 H 925.5 v 8.52 h 15.28 v 10.88 H 912.65 V 604.6 h 28.13 z"
   id="path4" />
	<path
   class="st3"
   d="m 958.81,604.6 11.93,30.1 12,-30.1 h 13.97 l -20.85,49.44 H 965.63 L 944.85,604.6 Z"
   id="path5" />
	<path
   class="st3"
   d="m 1030.01,615.48 h -15.28 v 8.26 h 14.43 v 10.88 h -14.43 v 8.52 h 15.28 v 10.88 h -28.13 V 604.6 h 28.13 z"
   id="path6" />
	<path
   class="st3"
   d="m 1052.11,604.6 v 38.55 h 15.41 v 10.88 h -28.26 V 604.6 Z"
   id="path7" />
	<path
   class="st3"
   d="m 1070.92,629.32 c 0,-3.67 0.68,-7.09 2.03,-10.26 1.35,-3.17 3.23,-5.94 5.64,-8.3 2.4,-2.36 5.28,-4.21 8.62,-5.54 3.34,-1.33 7.02,-2 11.05,-2 3.98,0 7.65,0.67 11.02,2 3.37,1.33 6.26,3.18 8.69,5.54 2.43,2.36 4.32,5.13 5.67,8.3 1.35,3.17 2.03,6.59 2.03,10.26 0,3.67 -0.68,7.09 -2.03,10.26 -1.35,3.17 -3.24,5.93 -5.67,8.29 -2.42,2.36 -5.32,4.21 -8.69,5.54 -3.37,1.33 -7.04,2 -11.02,2 -4.02,0 -7.7,-0.67 -11.05,-2 -3.34,-1.33 -6.22,-3.18 -8.62,-5.54 -2.41,-2.36 -4.28,-5.12 -5.64,-8.29 -1.35,-3.17 -2.03,-6.59 -2.03,-10.26 z m 13.45,0 c 0,1.97 0.37,3.78 1.11,5.44 0.74,1.66 1.75,3.1 3.01,4.33 1.27,1.22 2.74,2.17 4.43,2.85 1.68,0.68 3.46,1.02 5.34,1.02 1.88,0 3.66,-0.34 5.35,-1.02 1.68,-0.68 3.17,-1.63 4.46,-2.85 1.29,-1.22 2.3,-2.66 3.05,-4.33 0.74,-1.66 1.11,-3.48 1.11,-5.44 0,-1.97 -0.37,-3.78 -1.11,-5.44 -0.75,-1.66 -1.76,-3.1 -3.05,-4.33 -1.29,-1.22 -2.78,-2.17 -4.46,-2.85 -1.68,-0.68 -3.46,-1.02 -5.35,-1.02 -1.88,0 -3.66,0.34 -5.34,1.02 -1.68,0.68 -3.16,1.63 -4.43,2.85 -1.27,1.22 -2.27,2.67 -3.01,4.33 -0.74,1.66 -1.11,3.47 -1.11,5.44 z"
   id="path8" />
	<path
   class="st3"
   d="M 1146.65,654.03 H 1133.8 V 604.6 h 20.46 c 5.55,0 9.8,1.44 12.75,4.33 2.95,2.89 4.43,6.95 4.43,12.19 0,5.25 -1.48,9.31 -4.43,12.2 -2.95,2.88 -7.2,4.33 -12.75,4.33 h -7.61 z m 0,-26.75 h 4.26 c 4.72,0 7.08,-2.05 7.08,-6.16 0,-4.11 -2.36,-6.16 -7.08,-6.16 h -4.26 z"
   id="path9" />
	<path
   class="st3"
   d="m 1176.03,654.03 8.39,-49.44 h 12.72 l 9.9,26.36 9.84,-26.36 h 12.72 l 8.4,49.44 h -12.79 l -4.26,-28.46 -11.67,28.46 h -5.12 l -11.08,-28.46 -4.26,28.46 z"
   id="path10" />
	<path
   class="st3"
   d="m 1274.24,615.48 h -15.28 v 8.26 h 14.42 v 10.88 h -14.42 v 8.52 h 15.28 v 10.88 h -28.13 V 604.6 h 28.13 z"
   id="path11" />
	<path
   class="st3"
   d="M 1283.49,654.03 V 604.6 h 12.85 l 23.73,30.23 V 604.6 h 12.79 v 49.44 h -12.79 l -23.73,-30.23 v 30.23 h -12.85 z"
   id="path12" />
	<path
   class="st3"
   d="m 1361.97,615.48 v 38.55 h -12.85 v -38.55 h -10.56 V 604.6 h 33.96 v 10.88 z"
   id="path13" />
	<path
   class="st3"
   d="m 858.89,692.88 c 0,-3.67 0.68,-7.09 2.03,-10.26 1.35,-3.17 3.24,-5.94 5.64,-8.3 2.4,-2.36 5.28,-4.21 8.62,-5.54 3.34,-1.33 7.02,-2 11.05,-2 3.98,0 7.65,0.67 11.02,2 3.37,1.33 6.26,3.18 8.69,5.54 2.43,2.36 4.32,5.13 5.67,8.3 1.35,3.17 2.03,6.59 2.03,10.26 0,3.67 -0.68,7.09 -2.03,10.26 -1.35,3.17 -3.24,5.93 -5.67,8.29 -2.43,2.36 -5.32,4.21 -8.69,5.54 -3.37,1.33 -7.04,2 -11.02,2 -4.02,0 -7.7,-0.67 -11.05,-2 -3.34,-1.33 -6.22,-3.18 -8.62,-5.54 -2.4,-2.36 -4.28,-5.12 -5.64,-8.29 -1.36,-3.17 -2.03,-6.59 -2.03,-10.26 z m 13.44,0 c 0,1.97 0.37,3.78 1.11,5.44 0.74,1.66 1.75,3.1 3.01,4.33 1.27,1.22 2.74,2.17 4.43,2.85 1.68,0.68 3.46,1.02 5.34,1.02 1.88,0 3.66,-0.34 5.34,-1.02 1.68,-0.68 3.17,-1.63 4.46,-2.85 1.29,-1.22 2.31,-2.66 3.05,-4.33 0.74,-1.66 1.11,-3.48 1.11,-5.44 0,-1.97 -0.37,-3.78 -1.11,-5.44 -0.74,-1.66 -1.76,-3.1 -3.05,-4.33 -1.29,-1.22 -2.78,-2.17 -4.46,-2.85 -1.68,-0.68 -3.46,-1.02 -5.34,-1.02 -1.88,0 -3.66,0.34 -5.34,1.02 -1.68,0.68 -3.16,1.63 -4.43,2.85 -1.27,1.22 -2.27,2.67 -3.01,4.33 -0.74,1.66 -1.11,3.47 -1.11,5.44 z"
   id="path14" />
	<path
   class="st3"
   d="m 950.09,679.04 h -15.47 v 8.26 h 14.1 v 10.88 h -14.1 v 19.41 h -12.85 v -49.44 h 28.32 z"
   id="path15" />
	<path
   class="st3"
   d="m 992.9,687.24 h 18.56 v -19.08 h 12.85 v 49.44 h -12.85 V 697.2 H 992.9 v 20.39 h -12.85 v -49.44 h 12.85 z"
   id="path16" />
	<path
   class="st3"
   d="m 1047.52,668.16 v 26.88 c 0,1.44 0.05,2.92 0.16,4.43 0.11,1.51 0.44,2.88 0.98,4.1 0.55,1.22 1.41,2.22 2.59,2.98 1.18,0.77 2.84,1.15 4.98,1.15 2.14,0 3.79,-0.38 4.95,-1.15 1.16,-0.76 2.02,-1.76 2.59,-2.98 0.57,-1.22 0.91,-2.59 1.02,-4.1 0.11,-1.51 0.16,-2.98 0.16,-4.43 v -26.88 h 12.79 v 28.65 c 0,7.69 -1.76,13.31 -5.28,16.85 -3.52,3.54 -8.93,5.31 -16.23,5.31 -7.3,0 -12.72,-1.77 -16.26,-5.31 -3.54,-3.54 -5.31,-9.16 -5.31,-16.85 v -28.65 z"
   id="path17" />
	<path
   class="st3"
   d="m 1085.88,717.6 8.39,-49.44 h 12.72 l 9.9,26.36 9.84,-26.36 h 12.72 l 8.4,49.44 h -12.79 l -4.26,-28.46 -11.67,28.46 H 1114 l -11.08,-28.46 -4.26,28.46 z"
   id="path18" />
	<path
   class="st3"
   d="m 1186.25,709.01 h -18.36 l -2.95,8.59 h -13.7 l 18.82,-49.44 h 14.03 l 18.82,49.44 h -13.7 z m -3.41,-9.77 -5.77,-16.46 -5.77,16.46 z"
   id="path19" />
	<path
   class="st3"
   d="m 1208.55,717.6 v -49.44 h 12.85 l 23.74,30.23 v -30.23 h 12.78 v 49.44 h -12.78 l -23.74,-30.23 v 30.23 z"
   id="path20" />
	<path
   class="st3"
   d="m 1281.13,668.16 v 49.44 h -12.85 v -49.44 z"
   id="path21" />
	<path
   class="st3"
   d="m 1310.24,679.04 v 38.55 h -12.85 v -38.55 h -10.56 v -10.88 h 33.96 v 10.88 z"
   id="path22" />
	<path
   class="st3"
   d="M 1339.35,668.16 V 717.6 H 1326.5 V 668.16 Z"
   id="path23" />
	<path
   class="st3"
   d="m 1377.83,679.04 h -15.28 v 8.26 h 14.42 v 10.88 h -14.42 v 8.52 h 15.28 v 10.88 h -28.13 v -49.44 h 28.13 z"
   id="path24" />
	<path
   class="st3"
   d="m 1414.22,680.81 c -1.4,-1.14 -2.8,-1.98 -4.19,-2.52 -1.4,-0.55 -2.75,-0.82 -4.06,-0.82 -1.66,0 -3.02,0.39 -4.06,1.18 -1.05,0.79 -1.57,1.81 -1.57,3.08 0,0.87 0.26,1.6 0.78,2.16 0.52,0.57 1.21,1.06 2.07,1.48 0.85,0.42 1.81,0.78 2.89,1.08 1.07,0.31 2.13,0.63 3.18,0.98 4.2,1.4 7.27,3.27 9.21,5.61 1.94,2.34 2.92,5.39 2.92,9.15 0,2.54 -0.43,4.83 -1.28,6.88 -0.85,2.06 -2.1,3.81 -3.74,5.28 -1.64,1.46 -3.65,2.6 -6.03,3.41 -2.38,0.81 -5.08,1.21 -8.09,1.21 -6.25,0 -12.05,-1.86 -17.38,-5.57 l 5.51,-10.36 c 1.93,1.7 3.83,2.97 5.7,3.8 1.88,0.83 3.74,1.25 5.57,1.25 2.1,0 3.66,-0.48 4.69,-1.44 1.03,-0.96 1.54,-2.05 1.54,-3.28 0,-0.74 -0.13,-1.39 -0.39,-1.93 -0.26,-0.55 -0.7,-1.05 -1.31,-1.51 -0.61,-0.46 -1.41,-0.88 -2.39,-1.28 -0.98,-0.39 -2.17,-0.83 -3.57,-1.31 -1.66,-0.53 -3.29,-1.1 -4.88,-1.74 -1.6,-0.63 -3.01,-1.48 -4.26,-2.52 -1.25,-1.05 -2.25,-2.37 -3.02,-3.97 -0.77,-1.6 -1.15,-3.62 -1.15,-6.06 0,-2.45 0.41,-4.67 1.21,-6.66 0.81,-1.99 1.94,-3.69 3.41,-5.11 1.46,-1.42 3.26,-2.52 5.38,-3.31 2.12,-0.79 4.49,-1.18 7.11,-1.18 2.45,0 5.01,0.34 7.67,1.02 2.66,0.68 5.22,1.67 7.67,2.98 z"
   id="path25" />
</g>
<g
   id="g48"
   transform="matrix(1.7299049,0,0,1.7299049,-687.38793,-566.32301)">
	<path
   class="st2"
   d="m 858.44,487.25 v -30.98 l 21.15,22.13 v -20.16 h 4.38 v 30.77 l -21.15,-22.07 v 20.31 z"
   id="path26" />
	<path
   class="st2"
   d="m 920.49,480.21 h -12.42 l -3.23,7.04 h -4.71 l 14.35,-30.83 13.84,30.83 h -4.79 z m -1.78,-4.11 -4.3,-9.86 -4.51,9.86 z"
   id="path27" />
	<path
   class="st2"
   d="m 950.65,462.37 v 24.89 h -4.38 v -24.89 h -6.67 v -4.12 h 17.7 v 4.12 z"
   id="path28" />
	<path
   class="st2"
   d="m 977.89,458.25 v 29 h -4.38 v -29 z"
   id="path29" />
	<path
   class="st2"
   d="m 995.73,472.62 c 0,-4.08 1.5,-7.59 4.49,-10.52 2.98,-2.93 6.56,-4.4 10.74,-4.4 4.13,0 7.68,1.48 10.63,4.43 2.97,2.96 4.45,6.51 4.45,10.65 0,4.17 -1.49,7.71 -4.47,10.61 -2.99,2.92 -6.6,4.38 -10.84,4.38 -3.74,0 -7.11,-1.29 -10.09,-3.89 -3.27,-2.86 -4.91,-6.61 -4.91,-11.26 z m 4.41,0.06 c 0,3.21 1.08,5.84 3.23,7.91 2.14,2.07 4.62,3.1 7.42,3.1 3.04,0 5.61,-1.05 7.7,-3.15 2.09,-2.13 3.14,-4.72 3.14,-7.78 0,-3.09 -1.03,-5.69 -3.1,-7.78 -2.05,-2.1 -4.6,-3.15 -7.63,-3.15 -3.02,0 -5.57,1.05 -7.65,3.15 -2.07,2.08 -3.11,4.64 -3.11,7.7 z"
   id="path30" />
	<path
   class="st2"
   d="m 1043.86,487.25 v -30.98 l 21.15,22.13 v -20.16 h 4.38 v 30.77 l -21.15,-22.07 v 20.31 z"
   id="path31" />
	<path
   class="st2"
   d="m 1105.91,480.21 h -12.42 l -3.23,7.04 h -4.71 l 14.35,-30.83 13.85,30.83 h -4.79 z m -1.78,-4.11 -4.3,-9.86 -4.51,9.86 z"
   id="path32" />
	<path
   class="st2"
   d="m 1134.06,458.25 v 24.89 h 8.53 v 4.11 h -12.91 v -29 z"
   id="path33" />
	<path
   class="st2"
   d="m 862.82,518.96 v 11.78 h -4.38 v -29 h 4.96 c 2.43,0 4.26,0.17 5.5,0.51 1.25,0.34 2.35,0.98 3.31,1.92 1.67,1.63 2.5,3.68 2.5,6.16 0,2.66 -0.89,4.76 -2.67,6.31 -1.78,1.55 -4.18,2.33 -7.19,2.33 h -2.03 z m 0,-4.05 h 1.63 c 4.02,0 6.03,-1.55 6.03,-4.64 0,-2.99 -2.07,-4.49 -6.22,-4.49 h -1.45 v 9.13 z"
   id="path34" />
	<path
   class="st2"
   d="m 901.35,518.38 8.98,12.36 h -5.35 l -8.28,-11.87 h -0.79 v 11.87 h -4.38 v -29 h 5.13 c 3.83,0 6.6,0.72 8.3,2.16 1.88,1.6 2.82,3.72 2.82,6.35 0,2.05 -0.59,3.82 -1.77,5.3 -1.18,1.47 -2.73,2.42 -4.66,2.83 z m -5.44,-3.32 h 1.39 c 4.14,0 6.22,-1.58 6.22,-4.75 0,-2.97 -2.01,-4.45 -6.05,-4.45 h -1.56 z"
   id="path35" />
	<path
   class="st2"
   d="m 924.9,516.11 c 0,-4.08 1.5,-7.59 4.49,-10.52 2.98,-2.93 6.56,-4.4 10.74,-4.4 4.13,0 7.68,1.48 10.63,4.43 2.97,2.96 4.45,6.51 4.45,10.65 0,4.17 -1.49,7.71 -4.47,10.61 -2.99,2.92 -6.6,4.38 -10.84,4.38 -3.74,0 -7.11,-1.29 -10.09,-3.89 -3.27,-2.86 -4.91,-6.61 -4.91,-11.26 z m 4.41,0.06 c 0,3.21 1.08,5.84 3.23,7.91 2.14,2.07 4.62,3.1 7.42,3.1 3.04,0 5.61,-1.05 7.7,-3.16 2.09,-2.13 3.14,-4.72 3.14,-7.78 0,-3.09 -1.03,-5.69 -3.1,-7.78 -2.05,-2.1 -4.6,-3.15 -7.63,-3.15 -3.02,0 -5.57,1.05 -7.65,3.15 -2.07,2.08 -3.11,4.65 -3.11,7.71 z"
   id="path36" />
	<path
   class="st2"
   d="m 987.94,515.64 h 11.99 v 0.96 c 0,2.18 -0.26,4.11 -0.77,5.78 -0.5,1.55 -1.35,3.01 -2.53,4.36 -2.69,3.03 -6.12,4.55 -10.28,4.55 -4.06,0 -7.53,-1.46 -10.43,-4.39 -2.89,-2.94 -4.34,-6.47 -4.34,-10.6 0,-4.21 1.47,-7.78 4.41,-10.71 2.94,-2.94 6.52,-4.41 10.75,-4.41 2.27,0 4.38,0.46 6.35,1.39 1.88,0.93 3.73,2.43 5.54,4.51 l -3.12,2.99 c -2.38,-3.17 -5.28,-4.75 -8.7,-4.75 -3.07,0 -5.64,1.06 -7.72,3.17 -2.08,2.08 -3.12,4.68 -3.12,7.81 0,3.23 1.16,5.89 3.48,7.98 2.17,1.94 4.51,2.91 7.04,2.91 2.15,0 4.09,-0.73 5.8,-2.18 1.71,-1.46 2.67,-3.22 2.87,-5.26 h -7.23 v -4.11 z"
   id="path37" />
	<path
   class="st2"
   d="m 1027.57,518.38 8.98,12.36 h -5.35 l -8.28,-11.87 h -0.79 v 11.87 h -4.38 v -29 h 5.13 c 3.83,0 6.6,0.72 8.3,2.16 1.88,1.6 2.82,3.72 2.82,6.35 0,2.05 -0.59,3.82 -1.77,5.3 -1.18,1.47 -2.73,2.42 -4.66,2.83 z m -5.45,-3.32 h 1.39 c 4.14,0 6.22,-1.58 6.22,-4.75 0,-2.97 -2.01,-4.45 -6.05,-4.45 h -1.56 z"
   id="path38" />
	<path
   class="st2"
   d="m 1070.25,523.7 h -12.42 l -3.23,7.04 h -4.71 l 14.35,-30.83 13.84,30.83 h -4.79 z m -1.78,-4.11 -4.3,-9.86 -4.51,9.86 z"
   id="path39" />
	<path
   class="st2"
   d="m 1093.01,530.74 6.11,-31.18 9.96,22.54 10.31,-22.54 5.48,31.18 h -4.49 l -2.8,-17.51 -8.59,18.84 -8.34,-18.86 -3.12,17.53 z"
   id="path40" />
	<path
   class="st2"
   d="m 1142.3,530.74 6.11,-31.18 9.96,22.54 10.31,-22.54 5.48,31.18 h -4.49 l -2.8,-17.51 -8.59,18.84 -8.34,-18.86 -3.12,17.53 z"
   id="path41" />
	<path
   class="st2"
   d="M 1208.62,505.85 H 1197 v 6.97 h 11.29 v 4.11 H 1197 v 9.69 h 11.62 v 4.11 h -16 v -29 h 16 z"
   id="path42" />
	<path
   class="st2"
   d="m 872.92,549.34 h -10.11 v 6.97 h 9.75 v 4.11 h -9.75 v 13.81 h -4.38 v -29 h 14.48 v 4.11 z"
   id="path43" />
	<path
   class="st2"
   d="m 888.9,559.6 c 0,-4.08 1.5,-7.59 4.49,-10.52 2.98,-2.93 6.56,-4.4 10.74,-4.4 4.13,0 7.68,1.48 10.63,4.43 2.97,2.96 4.45,6.51 4.45,10.65 0,4.17 -1.49,7.71 -4.47,10.61 -2.99,2.92 -6.6,4.38 -10.84,4.38 -3.74,0 -7.11,-1.29 -10.09,-3.89 -3.27,-2.86 -4.91,-6.61 -4.91,-11.26 z m 4.41,0.06 c 0,3.21 1.08,5.84 3.23,7.91 2.14,2.07 4.62,3.1 7.42,3.1 3.04,0 5.61,-1.05 7.7,-3.16 2.09,-2.13 3.14,-4.72 3.14,-7.78 0,-3.09 -1.03,-5.69 -3.1,-7.78 -2.05,-2.1 -4.6,-3.16 -7.63,-3.16 -3.02,0 -5.57,1.05 -7.65,3.16 -2.07,2.08 -3.11,4.65 -3.11,7.71 z"
   id="path44" />
	<path
   class="st2"
   d="m 946.85,561.87 8.98,12.36 h -5.35 l -8.28,-11.87 h -0.79 v 11.87 h -4.38 v -29 h 5.13 c 3.83,0 6.6,0.72 8.3,2.16 1.88,1.6 2.82,3.72 2.82,6.35 0,2.05 -0.59,3.82 -1.77,5.3 -1.17,1.47 -2.73,2.42 -4.66,2.83 z m -5.44,-3.32 h 1.39 c 4.14,0 6.22,-1.58 6.22,-4.75 0,-2.97 -2.01,-4.45 -6.05,-4.45 h -1.56 z"
   id="path45" />
	<path
   class="st2"
   d="m 1004.69,549.34 v 24.89 h -4.38 v -24.89 h -6.67 v -4.12 h 17.7 v 4.12 z"
   id="path46" />
	<path
   class="st2"
   d="m 1031.93,556.57 h 12.51 v -11.35 h 4.38 v 29 h -4.38 v -13.54 h -12.51 v 13.54 h -4.38 v -29 h 4.38 z"
   id="path47" />
	<path
   class="st2"
   d="m 1084.08,549.34 h -11.62 v 6.97 h 11.29 v 4.11 h -11.29 v 9.69 h 11.62 v 4.11 h -16 v -29 h 16 z"
   id="path48" />
</g>
</svg>
