<?xml version="1.0" encoding="UTF-8" standalone="no"?>
<!-- Created with Inkscape (http://www.inkscape.org/) -->

<svg
   id="svg2"
   xml:space="preserve"
   viewBox="0 0 99.999997 100"
   version="1.1"
   inkscape:version="1.3 (0e150ed6c4, 2023-07-21)"
   sodipodi:docname="artifact-torn-manuscript.svg"
   width="100"
   height="100"
   xmlns:inkscape="http://www.inkscape.org/namespaces/inkscape"
   xmlns:sodipodi="http://sodipodi.sourceforge.net/DTD/sodipodi-0.dtd"
   xmlns="http://www.w3.org/2000/svg"
   xmlns:svg="http://www.w3.org/2000/svg"
   xmlns:rdf="http://www.w3.org/1999/02/22-rdf-syntax-ns#"
   xmlns:cc="http://creativecommons.org/ns#"
   xmlns:dc="http://purl.org/dc/elements/1.1/"><defs
   id="defs1" /><sodipodi:namedview
   id="namedview1"
   pagecolor="#505050"
   bordercolor="#ffffff"
   borderopacity="1"
   inkscape:showpageshadow="0"
   inkscape:pageopacity="0"
   inkscape:pagecheckerboard="1"
   inkscape:deskcolor="#d1d1d1"
   inkscape:zoom="5.6568543"
   inkscape:cx="44.105785"
   inkscape:cy="47.552931"
   inkscape:window-width="2560"
   inkscape:window-height="1388"
   inkscape:window-x="1440"
   inkscape:window-y="26"
   inkscape:window-maximized="1"
   inkscape:current-layer="g12" />&#10;  <g
   id="g10"
   transform="matrix(1.25,0,0,-1.25,0,50.78)">&#10;    <g
   id="g12">&#10;      <path
   id="path14"
   style="fill:#f9f9f9;fill-rule:evenodd;stroke-width:1.35312"
   d="M 39.410777,30.986649 1.7641725,-2.7402925 C 1.4035991,-3.202732 1.2648331,-3.9593409 1.3606574,-4.531264 l 38.7366296,-21.534096 0.0035,0.0032 0.0027,-0.0014 39.136528,40.484792 c 0,0 0.254342,0.781398 -1.444104,1.435926 -1.698447,0.654528 -38.385136,15.129517 -38.385136,15.129517 z M 40.087175,28.640237 74.421032,14.379309 39.462947,-20.986889 4.780174,-2.9193396 Z"
   sodipodi:nodetypes="ccccccczcccccc" />&#10;      &#10;      &#10;      &#10;      &#10;      &#10;      &#10;      &#10;      &#10;      &#10;      &#10;      &#10;      <path
   id="path38"
   style="fill:#f9f9f9;fill-rule:evenodd;stroke-width:1.498"
   d="m 39.741687,24.549877 0.107296,-0.175976 0.004,-0.206073 -0.04945,-0.01442 -0.08787,-0.435124 c -0.0576,0.01581 -0.120765,-0.0013 -0.191693,-0.05332 -0.0025,-0.0016 -0.0061,-0.0032 -0.0081,-0.0049 -0.0013,-9.72e-4 -0.0019,-0.0048 -0.0032,-0.0058 -0.07185,-0.05616 -0.152536,-0.145879 -0.240109,-0.27223 -0.209384,-0.266891 -0.370546,-0.447881 -0.486304,-0.548664 l -0.185583,-0.468368 -0.411341,-0.429335 c -0.0316,-0.143378 -0.01399,-0.273205 0.05821,-0.392602 0.07077,-0.119814 0.116771,-0.208523 0.134769,-0.27037 0.07368,-0.253144 0.06018,-0.465067 -0.03901,-0.628112 -0.472099,0.137163 -0.843743,0.199246 -1.130711,0.182803 l -0.144158,-0.241876 0.02814,-0.09667 -0.02206,-0.10881 -0.197766,-0.05757 -0.634259,-0.601494 -0.04945,-0.01442 -0.385171,-0.519222 -0.163476,-0.359623 -0.0517,-0.01501 -0.06974,-0.3299 c -0.01356,-0.205221 0.111507,-0.376796 0.370013,-0.509054 0.285394,-0.122871 0.431103,-0.252271 0.434028,-0.385596 l -0.202263,-0.05888 -0.174204,0.05412 -0.476946,-0.03646 c 0.264157,-0.40364 0.36938,-0.645556 0.322893,-0.732417 -0.08121,-0.2249 -0.278332,-0.282281 -0.59555,-0.173356 l -0.352257,0.104671 -0.281431,0.02046 c -0.181973,0.01399 -0.45387,-0.02728 -0.819204,-0.133629 L 33.483378,16.243632 32.893692,15.664875 32.633814,15.360077 30.049615,12.672258 29.323931,11.63949 29.302602,11.528459 29.036051,11.146145 C 28.861611,10.887861 27.54303,9.6829949 25.079746,7.5274849 l 0.22981,-0.24514 0.0517,0.01501 c 0.312728,-0.323978 0.471627,-0.514777 0.489631,-0.576621 l 0.162899,-0.367007 0.05821,-0.392603 -0.142152,-0.248593 c -0.150398,0.02486 -0.292356,0.0441 -0.428215,0.05575 -0.407577,0.03493 -0.750445,0.01067 -1.023364,-0.06873 l -0.468257,-0.233806 c 0.0557,-0.191297 0.07682,-0.32497 0.06175,-0.396447 l -1.393367,-0.405587 c -0.297732,-0.08666 -0.550715,-0.262402 -0.759684,-0.530729 l -0.217121,-0.367926 -0.142167,-0.248592 0.0062,-0.205415 -0.04742,-0.942599 0.02747,-0.09439 -0.073,-0.126087 -0.02616,-0.10271 -0.073,-0.126087 -0.04494,-0.01312 -0.225824,-0.170558 c -0.07693,-0.089473 -0.560166,-0.160899 -1.442875,-0.210353 -0.01341,-0.077227 -0.313624,-0.470903 -0.896916,-1.18987342 -0.174446,-0.2582831 -0.240448,-0.411086 -0.18769,-0.469056 0.104859,-0.1083487 0.140855,-0.2319379 0.109243,-0.3753106 -0.291979,-0.0849858 -0.523096,-0.1700236 -0.704762,-0.2587864 0.01024,-0.00274 0.02176,-0.00735 0.0322,-0.010095 -0.0027,-0.00144 -0.0056,-0.00317 -0.0081,-0.0049 -0.05714,0.014854 -0.111766,0.024012 -0.161864,0.028468 l -0.268524,-0.1829871 0.229156,-0.24289528 0.128611,-0.064969 c 0.01096,-0.00447 0.02309,-0.012258 0.03417,-0.016873 l 0.250524,-0.2074213 0.121847,-0.066916 0.315718,-0.3225222 0.251126,-0.1341054 1.684358,-1.1552131 0.590763,-0.5471845 c 0.325086,-0.3377959 0.620339,-0.6226823 0.889729,-0.8623934 0.0084,-0.00721 0.01898,-0.018964 0.02714,-0.026218 l 0.003,-0.00159 c 0.0089,-0.00793 0.01683,-0.013845 0.02583,-0.021733 0.266469,-0.2338026 0.505003,-0.4223838 0.719119,-0.5610175 1.003823,-0.5971045 2.673331,-1.8302643 5.012041,-3.684797 l 1.420328,-0.817645 c 0.199878,0.1923567 0.471302,0.2360769 0.823047,0.1371772 l 0.225898,-0.039068 0.476948,0.036443 c 0.282645,0.015171 0.689932,0.096004 1.21923,0.2500729 l 0.485717,-0.3705486 c 0.155954,-0.1605501 0.302456,-0.183822 0.452734,-0.073002 l -0.186829,0.4575506 c 0.16253,0.047302 0.358868,-0.00143 0.576845,-0.1392539 0.137941,-0.098715 0.312503,-0.2183414 0.536469,-0.360654 0.233054,-0.066339 0.670446,-0.1445697 1.306512,-0.2340156 0.6073,-0.09782 1.063449,-0.239827 1.367265,-0.425981 0.166705,-0.09034 0.426715,-0.35779 0.771137,-0.806718 0.330311,-0.384384 0.602518,-0.645858 0.822168,-0.789423 0.09843,-0.05678 0.214966,-0.110801 0.349324,-0.161599 0.403078,-0.152393 0.967112,-0.278691 1.694328,-0.377096 -0.386078,0.09357 -0.77884,0.461332 -1.182838,1.098861 -0.380427,0.572624 -0.443083,1.034726 -0.185946,1.384167 l 0.322457,0.1986882 1.195019,0.1406383 c 0.03308,0.00952 0.219993,0.1661356 0.564163,0.4738151 0.212124,0.1288416 0.415017,0.1879019 0.59555,0.173355 0.06152,0.2925009 0.01865,0.5563694 -0.122222,0.7883983 -0.02205,0.045471 -0.05053,0.090351 -0.08812,0.1352447 -0.03758,0.04488 -0.08307,0.089024 -0.136327,0.1333987 -0.106575,0.088721 -0.244627,0.1774478 -0.415742,0.2641541 l -0.50669,0.2669174 -0.232338,0.2370951 -0.517761,0.673257 -0.392057,0.6098992 -0.541323,0.5615771 c -0.695827,0.2733102 -1.208509,0.5753611 -1.554084,0.8835368 l -2.024725,1.780161 1.422292,-0.8243913 1.366609,-0.4237322 c 0.353414,-0.1046279 0.694723,-0.107368 1.026974,-0.010672 l 1.944044,0.3562295 0.750326,0.018503 c 0.386496,-0.094994 0.59467,-0.1364994 0.62919,-0.1264476 0.146008,-0.024603 0.43942,-0.2155263 0.866102,-0.5718625 0.354899,-0.2383742 0.552781,-0.3510291 0.580107,-0.3430742 l 0.509866,0.6603469 c 0.257543,0.3479992 0.716552,0.7579588 1.367776,1.2221101 l 0.152824,0.044476 1.159713,0.6471729 c 0.442253,0.1958279 1.019987,0.2618985 1.723656,0.1921303 l 1.803831,-0.091692 c 1.339942,0.0062 2.354687,0.8134325 3.037862,2.42738888 -0.0496,-0.1673311 -0.100835,-0.3902426 -0.155873,-0.6621309 l 2.712213,1.61114502 c 0.670645,1.153167 1.418639,2.267419 2.259475,3.334385 l 0.391916,0.52119 -0.21046,1.074747 -0.0032,0.203823 c 0.01211,0.204801 0.126419,0.482913 0.35088,0.821282 0.214719,0.270007 0.252,0.555645 0.127227,0.861008 l -0.02747,0.0944 c 0.206043,0.401656 0.673922,0.781139 1.395909,1.125473 l 0.761785,1.6624751 0.04945,0.01442 0.191604,0.262985 0.09048,0.233544 0.366391,0.416249 0.214883,0.367274 0.09722,0.235508 0.483554,2.400579 -0.0046,0.20832 0.133745,0.453357 0.134047,0.653341 0.168628,0.358683 c 0.01067,0.07022 6.43e-4,0.105003 -0.02814,0.09664 l -0.348324,-0.101395 c -0.018,0.06184 -0.07606,0.07537 -0.176733,0.04606 l -2.017047,-0.482303 c -0.179788,-0.05234 -0.341624,-0.08996 -0.479142,-0.112661 -0.136298,-0.02234 -0.249741,-0.03044 -0.339408,-0.02322 l -0.276929,0.02178 -0.694438,-0.20214 -0.215813,-0.372432 -0.156625,-0.316183 -0.155473,-0.286599 c -0.09752,-0.168798 -0.182584,-0.295658 -0.265262,-0.386812 l -0.348344,-0.101398 -1.15094,-1.054167 0.207048,0.779413 -3.276656,-0.95378 -0.75004,-0.01125 -0.348341,-0.101398 -1.185955,0.171597 c 0.09628,0.296376 0.347898,0.546115 0.757075,0.732308 -0.141302,0.233465 -0.426128,0.356108 -0.854794,0.365505 -0.467451,-0.136081 -0.775312,-0.187935 -0.927075,-0.165032 l -0.0517,-0.01501 c -1.187591,0.269015 -1.984408,0.281927 -2.379661,0.02645 l -0.167392,-0.153559 -0.646518,-1.11211 -0.192915,-0.258491 0.02814,-0.09664 -0.529585,-0.768475 -0.0517,-0.01501 -0.557995,-0.679233 0.004,-0.01341 L 44.637527,10.33638 44.10961,9.3611779 c -0.189492,-0.329765 -0.390548,-0.559618 -0.606754,-0.695879 -0.246645,-0.138879 -0.483368,-0.245526 -0.713501,-0.312514 l -0.595549,-0.173356 -0.197314,-0.08425 -2.215563,-0.713175 0.219449,0.158955 0.46687,0.447933 0.06917,0.122525 0.0092,0.0101 -0.0026,-0.0079 0.358998,0.416534 c 0.377828,0.366239 0.830293,0.967266 1.35526,1.8010941 0.174987,0.277942 0.358426,0.580969 0.549134,0.910684 l 0.237134,0.483447 -0.01709,0.01696 0.557657,1.266641 0.06683,0.331493 c 0.194289,0.945854 0.348723,1.40455 0.461653,1.370335 -0.05985,-0.08233 -0.108665,-0.166985 -0.147603,-0.25505 -0.002,-0.0045 -0.0061,-0.01009 -0.0079,-0.01442 -0.0025,-0.005 -0.003,-0.01082 -0.005,-0.01612 -0.112776,-0.274185 -0.125308,-0.574485 -0.03026,-0.901036 0.623897,0.456198 0.868181,1.585403 0.736133,3.40046 l -0.02747,0.09439 c 0.0014,0.120953 0.0065,0.23201 0.01732,0.334145 0.03227,0.306392 0.107728,0.527986 0.228522,0.663775 l 0.150574,0.04383 0.341525,0.309062 c 0.07837,0.0899 0.326167,0.538033 0.736993,1.345656 l -1.723143,0.936715 -0.509931,0.261115 -0.07691,0.07998 -0.407862,0.295701 -0.07981,0.08158 -0.434028,0.385596 -0.07916,0.07933 -0.513848,0.467188 -0.201679,0.148513 -0.236554,0.243179 z"
   sodipodi:nodetypes="ccccccsccccccsccccccccccccccccccccccccccccccccccccscccscccccccccccccccccccccccccccccccccccccccccccccccccsccccccccsscccccccccccccccccccccccccccccccccccccccccccccsccccccccccccccccccccccccccccccccccscccccccccsccccccssccccsccccccccccccccc" />&#10;      &#10;      &#10;      &#10;      &#10;      &#10;      &#10;      &#10;      &#10;      &#10;      &#10;      &#10;      &#10;      &#10;      &#10;      &#10;      &#10;      &#10;      &#10;      &#10;      &#10;      &#10;      &#10;      &#10;      &#10;      &#10;      &#10;      &#10;      &#10;      &#10;      &#10;      &#10;      &#10;      &#10;      &#10;      &#10;      &#10;      &#10;      &#10;      &#10;      &#10;      &#10;      &#10;      &#10;      &#10;      &#10;      &#10;      &#10;      &#10;      &#10;      &#10;      &#10;      &#10;      &#10;      &#10;      &#10;      &#10;      &#10;      &#10;      &#10;      &#10;      &#10;      &#10;      &#10;      &#10;      &#10;      &#10;      &#10;      &#10;      &#10;      &#10;      &#10;      &#10;      &#10;      &#10;      &#10;      &#10;      &#10;      &#10;      &#10;      &#10;      &#10;      &#10;      &#10;      &#10;      &#10;      &#10;      &#10;      &#10;      &#10;      &#10;      &#10;      &#10;      &#10;      &#10;      &#10;      &#10;      &#10;      &#10;      &#10;      &#10;      &#10;      &#10;      &#10;      &#10;      &#10;      &#10;      &#10;      &#10;      &#10;      &#10;      &#10;      &#10;      &#10;      &#10;      &#10;      &#10;      &#10;      &#10;      &#10;      &#10;      &#10;      &#10;      &#10;      &#10;      &#10;      &#10;      &#10;      &#10;      &#10;      &#10;      &#10;      &#10;      &#10;      &#10;      &#10;      &#10;      &#10;      &#10;      &#10;      &#10;    </g>&#10;  </g>&#10;<metadata
   id="metadata1"><rdf:RDF><cc:Work><dc:format>image/svg+xml</dc:format><dc:type
         rdf:resource="http://purl.org/dc/dcmitype/StillImage" /><cc:license
         rdf:resource="http://creativecommons.org/publicdomain/zero/1.0/" /><dc:publisher><cc:Agent
           rdf:about="http://openclipart.org/"><dc:title>Openclipart</dc:title></cc:Agent></dc:publisher></cc:Work><cc:License
       rdf:about="http://creativecommons.org/publicdomain/zero/1.0/"><cc:permits
         rdf:resource="http://creativecommons.org/ns#Reproduction" /><cc:permits
         rdf:resource="http://creativecommons.org/ns#Distribution" /><cc:permits
         rdf:resource="http://creativecommons.org/ns#DerivativeWorks" /></cc:License></rdf:RDF></metadata></svg>
