<?xml version="1.0" encoding="UTF-8" standalone="no"?>
<!-- Created with Inkscape (http://www.inkscape.org/) -->

<svg
   width="30"
   height="30"
   viewBox="0 0 30 30"
   id="svg8077"
   version="1.1"
   inkscape:version="1.3 (0e150ed6c4, 2023-07-21)"
   sodipodi:docname="04_show.svg"
   inkscape:export-filename="/home/tim/Documents/Privat/Kunst/Rahmenbedingungen/Website/Icons/Page-Tools/04_show.png"
   inkscape:export-xdpi="89"
   inkscape:export-ydpi="89"
   xmlns:inkscape="http://www.inkscape.org/namespaces/inkscape"
   xmlns:sodipodi="http://sodipodi.sourceforge.net/DTD/sodipodi-0.dtd"
   xmlns="http://www.w3.org/2000/svg"
   xmlns:svg="http://www.w3.org/2000/svg"
   xmlns:rdf="http://www.w3.org/1999/02/22-rdf-syntax-ns#"
   xmlns:cc="http://creativecommons.org/ns#"
   xmlns:dc="http://purl.org/dc/elements/1.1/">
  <defs
     id="defs8079" />
  <sodipodi:namedview
     id="base"
     pagecolor="#ffffff"
     bordercolor="#666666"
     borderopacity="1.0"
     inkscape:pageopacity="0.0"
     inkscape:pageshadow="2"
     inkscape:zoom="15.839192"
     inkscape:cx="0.72604714"
     inkscape:cy="16.920055"
     inkscape:document-units="px"
     inkscape:current-layer="layer1"
     showgrid="false"
     units="px"
     inkscape:window-width="2560"
     inkscape:window-height="1388"
     inkscape:window-x="1440"
     inkscape:window-y="26"
     inkscape:window-maximized="1"
     inkscape:showpageshadow="0"
     inkscape:pagecheckerboard="1"
     inkscape:deskcolor="#d1d1d1" />
  <metadata
     id="metadata8082">
    <rdf:RDF>
      <cc:Work
         rdf:about="">
        <dc:format>image/svg+xml</dc:format>
        <dc:type
           rdf:resource="http://purl.org/dc/dcmitype/StillImage" />
        <dc:title />
      </cc:Work>
    </rdf:RDF>
  </metadata>
  <g
     inkscape:groupmode="layer"
     id="layer3"
     inkscape:label="Background"
     style="display:inline" />
  <g
     inkscape:label="Layer 1"
     inkscape:groupmode="layer"
     id="layer1"
     transform="translate(0,-1022.3622)">
    <path
       id="rect4633"
       style="opacity:1;fill:#ffffff;fill-rule:evenodd;stroke:none;stroke-width:1.91665;stroke-linecap:square;stroke-linejoin:bevel"
       d="m 6.3044411,1023.6918 c -1.153922,0 -2.0840811,0.93 -2.0840811,2.084 v 22.6426 c 0,1.1539 0.9301591,2.0818 2.0840811,2.0818 H 23.690599 c 1.153922,0 2.084081,-0.9279 2.084081,-2.0818 v -22.6426 c 1e-6,-1.154 -0.930159,-2.084 -2.084081,-2.084 z m 0.3025644,2.5649 h 7.2570275 v 7.4603 H 6.6070055 Z m 8.6908205,1.0658 h 8.094725 v 2.2376 h -8.094725 z m -4.082361,0.262 -3.8226955,5.0487 h 1.3750871 l 0.7360896,-1.0252 h 1.7815158 l -0.0271,1.0252 h 1.320896 l 0.02258,-5.0487 z m 0.207732,1.3072 -0.0271,1.7184 h -1.244126 z m 3.874629,2.5516 h 8.094725 v 2.2376 h -8.094725 z m -8.8601662,4.5113 H 23.392551 v 2.2376 H 6.4376598 Z m 0.097091,4.5136 H 23.464805 v 2.2376 H 6.5347513 Z m 0,4.5114 H 23.464805 v 2.2376 H 6.5347513 Z" />
  </g>
</svg>
