<?xml version="1.0" encoding="UTF-8" standalone="no"?>
<svg
   height="300pt"
   width="250pt"
   version="1.1"
   viewBox="0 0 250 300"
   id="svg1"
   sodipodi:docname="CornerDecoration4.svg"
   inkscape:version="1.3 (0e150ed6c4, 2023-07-21)"
   xmlns:inkscape="http://www.inkscape.org/namespaces/inkscape"
   xmlns:sodipodi="http://sodipodi.sourceforge.net/DTD/sodipodi-0.dtd"
   xmlns="http://www.w3.org/2000/svg"
   xmlns:svg="http://www.w3.org/2000/svg">
  <defs
     id="defs1" />
  <sodipodi:namedview
     id="namedview1"
     pagecolor="#505050"
     bordercolor="#ffffff"
     borderopacity="1"
     inkscape:showpageshadow="0"
     inkscape:pageopacity="0"
     inkscape:pagecheckerboard="1"
     inkscape:deskcolor="#d1d1d1"
     inkscape:document-units="pt"
     inkscape:zoom="0.8531397"
     inkscape:cx="11.135339"
     inkscape:cy="234.42819"
     inkscape:window-width="2560"
     inkscape:window-height="1388"
     inkscape:window-x="1440"
     inkscape:window-y="26"
     inkscape:window-maximized="1"
     inkscape:current-layer="svg1" />
  <path
     d="m 221.74139,4.441618 c 25.52314,-3.46688317 27.55655,27.304752 12.32515,38.087002 -1.60179,2.71992 -12.23882,5.009525 -5.31372,7.006839 14.51203,2.249009 19.35576,19.632141 9.0928,27.946171 -8.13364,7.364078 -24.3146,3.393806 -27.21125,-6.105617 1.27568,-7.226057 11.97986,7.242291 15.26976,0.0081 8.0665,-9.304563 -10.61785,-15.94604 -18.57885,-10.928397 -23.81583,10.481842 -21.51386,38.379283 -10.93437,55.705584 1.46751,-14.41963 18.61721,-25.762107 35.19142,-19.656493 17.14011,3.442516 14.45448,31.510473 -5.17944,27.515843 -1.8128,-4.35999 8.94892,-3.6455 8.05691,-8.83365 -0.33571,-7.2017 -12.6129,-6.79574 -16.26728,-1.59135 -9.04484,10.73353 2.3883,22.34394 6.26328,32.9638 19.46127,38.46861 25.01478,88.62881 -8.44057,122.67246 -5.55351,5.56975 6.99225,1.97296 10.36848,3.58868 13.65837,1.54264 14.75181,19.3642 3.43377,23.87034 -4.36415,1.59947 -16.05626,-0.30041 -14.69426,-5.61847 5.24658,1.42086 13.02533,-1.38837 8.27751,-6.45473 -12.29637,-3.86472 -24.1899,2.66309 -36.20812,4.0271 -39.93925,7.97303 -90.659409,11.15574 -121.572997,-15.94603 -2.234833,3.49936 -9.629923,16.58745 0.460395,9.95409 6.052272,6.65771 -10.713769,12.56036 -16.622168,7.25042 -3.117256,-1.98108 -4.872511,-9.37763 -9.534008,-4.97705 -9.495641,9.64556 -31.1917431,6.06501 -32.8894486,-7.26665 -4.546398,-9.66181 9.8313456,-23.79728 20.5834816,-15.28028 -4.824554,1.37214 -16.056267,2.12723 -11.423544,9.18278 6.205737,7.69697 20.736945,2.36268 24.084399,-5.10695 8.402204,-16.6524 6.28247,-37.59985 24.065216,-50.13584 14.205096,-12.99879 36.246494,-10.83909 54.364954,-15.70247 8.65158,-1.1854 16.22891,-13.10433 6.38798,-17.17203 -6.75246,-3.07717 -6.77164,6.38978 -11.27008,8.29779 -5.78371,-5.89452 -3.0693,-16.40883 5.81248,-18.83646 11.92231,-4.09207 30.70257,2.49257 29.75301,14.8743 1.08385,11.22881 -11.44273,19.33174 -22.92382,20.89061 16.75645,7.39657 19.7682,30.56866 41.15737,34.14109 17.23603,4.58732 33.69514,-14.38716 22.73199,-26.71205 -4.0956,-4.57109 -16.30565,-9.88914 -20.84245,-4.32752 8.34465,0.31665 12.8335,8.71187 9.69706,15.28839 -7.96099,8.07857 -25.50395,1.99731 -24.02685,-8.71186 2.81992,-15.82426 32.17008,-17.4968 41.02309,-4.76595 14.52162,16.39259 6.03309,43.16148 -16.57421,50.76914 -15.62465,6.08125 -33.64718,4.07581 -48.86898,-1.93237 12.51698,21.50768 -30.02159,30.21953 -37.004239,11.03395 2.656861,-4.4087 9.236679,3.49124 13.418599,0.44655 7.67324,-3.06904 2.63768,-13.83505 -5.49597,-12.93382 -14.435296,-1.15292 -31.652141,-10.34382 -27.134517,-24.56048 4.651905,-13.77822 28.841817,-13.89189 34.452877,-0.96618 2.62809,-13.39662 -17.542963,-22.14096 -30.577888,-16.14902 -21.887933,6.54405 -22.520976,32.13566 -10.589079,46.06814 14.818955,19.51847 44.600747,24.41433 70.181427,23.05031 9.51483,-1.94048 25.30253,-5.06636 19.12557,-16.13278 11.14539,-6.73078 17.51418,7.31536 9.49564,13.5996 22.55934,-4.14077 42.66324,-17.89464 51.69849,-35.82175 2.10055,-6.30047 7.35673,-17.3263 -1.65934,-21.53203 -13.52409,4.28692 -6.40716,-15.32898 3.23236,-12.70649 4.05723,-0.91747 11.67292,10.11648 9.96562,1.0149 -2.24442,-15.82426 -10.87682,-39.72708 -32.78394,-41.13982 4.14356,4.63605 11.8168,10.01906 8.75709,16.50627 -4.81496,13.29107 -32.59211,11.61852 -34.9804,-1.95672 -5.74535,-10.78225 4.03804,-23.09903 -3.56806,-33.31293 -4.61354,-6.60089 -21.58101,-7.31537 -21.57141,2.20841 -0.83447,3.2639 8.13364,7.99738 1.39077,8.74434 -14.71345,-2.59002 -20.52593,-20.18424 -9.69706,-29.33454 11.27967,-10.78225 30.4436,-6.38167 42.43304,0.0649 -8.01854,-26.25738 -14.17632,-58.449859 11.0207,-79.892575 14.98202,-11.431783 45.34888,-18.966368 38.65398,-40.441559 0.7961,-5.821441 -13.31308,-6.446617 -10.5699,-0.03247 2.33075,2.646847 0.58509,8.784937 -3.7503,4.86338 -9.70665,-5.464168 -4.85332,-18.6009767 6.53185,-18.6659302 M 207.99669,153.49324 c -4.40252,2.09474 -5.68779,8.60631 -0.80569,10.96087 9.323,5.66718 16.814,13.03938 22.16609,21.62946 -1.50587,-11.95141 -8.92974,-26.51719 -21.3604,-32.59033 M 106.35496,212.5764 c 1.78403,4.28692 9.78339,5.62658 10.96315,10.94464 3.30909,4.75782 5.37128,18.75526 15.01079,12.85263 2.43626,-11.89457 -12.79514,-22.36017 -25.97394,-23.79727 z"
     id="path1"
     style="fill:#f9f9f9;stroke-width:0.882471" />
</svg>
