<?xml version="1.0" encoding="UTF-8" standalone="no"?>
<svg
   width="64"
   height="64"
   viewBox="0 0 16.93 16.93"
   version="1.1"
   id="svg1"
   sodipodi:docname="1527172379.svg"
   inkscape:version="1.3 (0e150ed6c4, 2023-07-21)"
   xmlns:inkscape="http://www.inkscape.org/namespaces/inkscape"
   xmlns:sodipodi="http://sodipodi.sourceforge.net/DTD/sodipodi-0.dtd"
   xmlns="http://www.w3.org/2000/svg"
   xmlns:svg="http://www.w3.org/2000/svg">
  <defs
     id="defs1" />
  <sodipodi:namedview
     id="namedview1"
     pagecolor="#505050"
     bordercolor="#ffffff"
     borderopacity="1"
     inkscape:showpageshadow="0"
     inkscape:pageopacity="0"
     inkscape:pagecheckerboard="1"
     inkscape:deskcolor="#d1d1d1"
     inkscape:zoom="18.5"
     inkscape:cx="31.972973"
     inkscape:cy="32"
     inkscape:window-width="2560"
     inkscape:window-height="1388"
     inkscape:window-x="1440"
     inkscape:window-y="26"
     inkscape:window-maximized="1"
     inkscape:current-layer="svg1" />
  <path
     d="M8.51,0C3.83-.02.02,3.75+0,8.42c-.02,4.68+3.75,8.49+8.42,8.51+4.68.02+8.49-3.75+8.51-8.42C16.96,3.83+13.18.02+8.51,0Zm-.12,2.28c.41,0+.75.15+1.03.44.29.28.43.63.43,1.04+0+.41-.14.75-.43,1.04-.28.28-.63.42-1.03.42-.42,0-.76-.14-1.05-.42C7.06,4.52+6.91,4.17+6.91,3.76+6.91,3.34+7.06,3+7.35,2.72+7.63,2.43+7.98,2.28+8.39,2.28ZM6,6.07h3.89v7.25h1.17v.93H6V13.32H7.16V7H6Z"
     id="path1"
     style="fill:#f9f9f9" />
</svg>
