<?xml version="1.0" encoding="UTF-8" standalone="no"?>
<!-- Created with Inkscape (http://www.inkscape.org/) -->

<svg
   width="210mm"
   height="262mm"
   viewBox="0 0 210 262"
   version="1.1"
   id="svg1"
   inkscape:version="1.3.2 (091e20ef0f, 2023-11-25, custom)"
   sodipodi:docname="xmltei.svg"
   xmlns:inkscape="http://www.inkscape.org/namespaces/inkscape"
   xmlns:sodipodi="http://sodipodi.sourceforge.net/DTD/sodipodi-0.dtd"
   xmlns="http://www.w3.org/2000/svg"
   xmlns:svg="http://www.w3.org/2000/svg">
  <sodipodi:namedview
     id="namedview1"
     pagecolor="#ffffff"
     bordercolor="#000000"
     borderopacity="0.25"
     inkscape:showpageshadow="2"
     inkscape:pageopacity="0.0"
     inkscape:pagecheckerboard="0"
     inkscape:deskcolor="#d1d1d1"
     inkscape:document-units="mm"
     inkscape:zoom="0.61580177"
     inkscape:cx="322.34399"
     inkscape:cy="581.35591"
     inkscape:window-width="1920"
     inkscape:window-height="1001"
     inkscape:window-x="0"
     inkscape:window-y="0"
     inkscape:window-maximized="1"
     inkscape:current-layer="layer1" />
  <defs
     id="defs1" />
  <g
     inkscape:label="Layer 1"
     inkscape:groupmode="layer"
     id="layer1">
    <path
       id="rect2"
       style="fill:none;stroke:#ffffff;stroke-width:14.4874;stroke-dasharray:none;stroke-opacity:1"
       d="m 26.135394,11.749791 c -8.778465,0 -15.846033,7.06757 -15.846033,15.846034 V 234.82626 c 0,8.77846 7.067568,15.84603 15.846033,15.84603 H 185.01669 c 8.77848,0 15.84514,-7.06757 15.84514,-15.84603 V 86.702955 L 125.90866,11.749791 Z" />
    <path
       id="path4"
       style="fill:#ffffff;stroke:#ffffff;stroke-width:14.4874;stroke-linecap:round;stroke-linejoin:round;stroke-dasharray:none;stroke-opacity:1;fill-opacity:1"
       d="m 123.08165,11.749508 v 56.957698 c 0,8.77846 7.06758,15.846035 15.84604,15.846035 h 59.7845 L 125.90844,11.749508 Z" />
    <text
       xml:space="preserve"
       style="font-size:75.0688px;fill:#000080;stroke:#ffffff;stroke-width:6.0587;stroke-linecap:round;stroke-linejoin:round;stroke-dasharray:none;stroke-opacity:1"
       x="22.155598"
       y="151.17982"
       id="text4"
       transform="scale(0.97196466,1.028844)"><tspan
         sodipodi:role="line"
         id="tspan4"
         style="font-size:75.0688px;fill:#f9f9f9;stroke-width:6.0587;stroke-dasharray:none"
         x="22.155598"
         y="151.17982">&lt;tei&gt;</tspan></text>
    <path
       id="path5"
       style="fill:#f9f9f9;stroke:none;stroke-width:15.7958;stroke-dasharray:none;stroke-opacity:1"
       d="m 9.9972727,168.57771 v 58.80163 c 0,10.52301 7.0086713,18.99469 15.7141943,18.99469 H 183.27348 c 8.70553,0 15.71329,-8.47168 15.71329,-18.99469 v -58.80163 z m 170.1839373,8.01212 h 6.42005 a 2.9447147,3.1170393 0 0 1 2.94227,3.11503 v 58.69705 a 2.9447147,3.1170393 0 0 1 -2.94227,3.11865 h -6.42005 a 2.9447147,3.1170393 0 0 1 -2.94591,-3.11865 v -58.69705 a 2.9447147,3.1170393 0 0 1 2.94591,-3.11503 z m -50.20307,16.52887 h 9.1e-4 c 5.1299,2.1e-4 9.53387,1.73993 12.38461,5.05167 1.17935,-1.22834 2.49624,-2.28565 4.00151,-3.04773 a 2.9447147,3.1170393 0 0 1 0.0236,-0.0141 c 2.66381,-1.31986 5.52572,-1.9903 8.47038,-1.9903 4.92861,0 9.16646,1.41007 12.04091,4.58161 2.95462,3.20759 4.11153,7.95466 4.11153,13.75025 v 26.95135 a 2.9447147,3.1170393 0 0 1 -2.9459,3.11865 h -6.34641 a 2.9447147,3.1170393 0 0 1 -2.9459,-3.11865 v -26.64403 c 0,-2.82374 -0.58195,-4.47254 -1.27565,-5.32808 -0.6937,-0.85554 -1.65129,-1.36474 -3.73056,-1.36474 -3.2175,0 -4.80747,0.83339 -5.80906,2.2276 -1.06967,1.55621 -1.82664,4.23459 -1.82664,8.24851 v 22.86074 a 2.9447147,3.1170393 0 0 1 -2.94591,3.11865 h -6.34641 a 2.9447147,3.1170393 0 0 1 -2.9459,-3.11865 v -26.64403 c 0,-2.81964 -0.58395,-4.45964 -1.28564,-5.31717 -0.70166,-0.85753 -1.68636,-1.37565 -3.79513,-1.37565 -3.33421,0 -4.76812,0.84547 -5.67086,2.38671 -1.07248,1.83104 -1.81755,4.98497 -1.81755,9.48235 v 21.46779 a 2.9447147,3.1170393 0 0 1 -2.94588,3.11865 h -6.41916 a 2.9447147,3.1170393 0 0 1 -2.94681,-3.11865 v -41.39444 a 2.9447147,3.1170393 0 0 1 2.94681,-3.11865 h 5.17988 a 2.9447147,3.1170393 0 0 1 2.89952,2.57038 l 0.007,0.0391 c 0.65783,-0.49895 1.26704,-1.06872 2.00394,-1.44204 0.002,-0.002 0.005,-0.002 0.007,-0.004 2.4777,-1.27952 5.15982,-1.93379 7.9212,-1.93393 z m -60.849195,0.77012 h 7.294739 a 2.9447147,3.1170393 0 0 1 2.432178,1.35839 l 7.628439,11.82269 7.568407,-11.8127 a 2.9447147,3.1170393 0 0 1 2.438547,-1.36838 h 7.221105 a 2.9447147,3.1170393 0 0 1 2.40491,4.91437 l -12.290953,18.43097 13.015603,19.36111 a 2.9447147,3.1170393 0 0 1 -2.39764,4.92529 h -7.298381 a 2.9447147,3.1170393 0 0 1 -2.431263,-1.3611 l -8.236704,-12.78103 -8.360359,12.79829 a 2.9447147,3.1170393 0 0 1 -2.422184,1.34384 h -7.22473 a 2.9447147,3.1170393 0 0 1 -2.401265,-4.91802 L 79.022255,217.23781 66.724038,198.80319 a 2.9447147,3.1170393 0 0 1 2.404907,-4.91437 z m -11.820874,32.05394 c 1.815415,0 3.647774,0.63175 5.054396,1.85572 1.827432,1.54617 2.487654,4.00905 2.487654,6.43552 0,2.3915 -0.678098,4.80825 -2.417645,6.37461 -1.397824,1.29578 -3.272727,1.99393 -5.124405,1.99393 -1.844218,0 -3.71203,-0.72229 -5.093509,-2.02211 -1.695138,-1.59498 -2.301256,-3.97337 -2.301256,-6.34643 0,-2.41052 0.581028,-4.83089 2.371266,-6.41006 1.39061,-1.22663 3.218553,-1.88118 5.023499,-1.88118 z" />
  </g>
</svg>
